<svg width="119" height="88" viewBox="0 0 119 88" fill="none" xmlns="http://www.w3.org/2000/svg">
<g clip-path="url(#clip0_1293_810)">
<path d="M35.0276 0V43.6903H83.6142V0H35.0276ZM71.6036 2.09245L59.3 22.5984L47.0382 2.09245H71.6454H71.6036ZM59.3 41.556L52.9808 37.0782L59.3 26.5322L65.6192 37.0782L59.3 41.556ZM37.0782 2.09245H44.611L58.1282 24.5653L51.3068 35.9064L37.0782 25.8627V2.09245ZM37.0782 41.6397V28.4154L42.8952 32.5166V41.6397H37.0782ZM44.9458 41.6397V33.9814L55.8265 41.6397H44.9458ZM62.8153 41.6397L73.696 33.9395V41.6397H62.8153ZM81.5636 41.6397H75.7466V32.5166L81.5636 28.4154V41.6397ZM67.335 35.9064L60.5136 24.5653L74.0308 2.09245H81.5636V25.8627L67.335 35.9064Z" fill="black"/>
<path d="M41.6397 77.3368H42.8533V87.2132H41.6397V82.6935H36.2412V87.2132H35.0275V77.3368H36.2412V81.6054H41.6397V77.3368Z" fill="black"/>
<path d="M45.1969 82.275C45.1969 79.2619 47.3312 77.1695 50.2187 77.1695C53.1063 77.1695 55.2406 79.2619 55.2406 82.275C55.2406 85.2882 53.1063 87.3806 50.2187 87.3806C47.3312 87.3806 45.1969 85.2882 45.1969 82.275ZM54.027 82.275C54.027 79.8478 52.3949 78.2994 50.2187 78.2994C48.0426 78.2994 46.4105 79.8478 46.4105 82.275C46.4105 84.7023 48.0426 86.2507 50.2187 86.2507C52.3949 86.2507 54.027 84.7023 54.027 82.275Z" fill="black"/>
<path d="M57.5841 83.2375V77.3368H58.7978V83.1538C58.7978 85.1625 59.7184 86.2506 61.4761 86.2506C63.2338 86.2506 64.1126 85.2044 64.1126 83.1956V77.2949H65.3262V83.1119C65.3262 85.7903 63.9452 87.2968 61.4761 87.2968C59.007 87.2968 57.626 85.7903 57.626 83.1538L57.5841 83.2375Z" fill="black"/>
<path d="M67.3768 85.6648L68.2556 84.8697C69.1345 85.8322 69.8877 86.2507 71.2688 86.2507C72.6498 86.2507 73.4449 85.6648 73.4449 84.6186C73.4449 83.5724 72.9846 83.2794 71.3943 82.9028L70.5155 82.6935C68.5486 82.1913 67.6279 81.3544 67.6279 79.9315C67.6279 78.5086 68.9671 77.1695 70.9758 77.1695C72.9846 77.1695 73.5705 77.6717 74.4493 78.7179L73.5705 79.513C72.6916 78.5505 72.022 78.2994 70.8503 78.2994C69.6785 78.2994 68.8415 78.8853 68.8415 79.9315C68.8415 80.9777 69.3856 81.2288 70.8084 81.6055L71.6872 81.8147C73.7797 82.3587 74.6167 83.1539 74.6167 84.6604C74.6167 86.167 73.2775 87.4225 71.2269 87.4225C69.1763 87.4225 68.2556 86.8366 67.3768 85.7485V85.6648Z" fill="black"/>
<path d="M77.0021 87.2132V77.3368H83.6142V78.4249H78.2157V81.6054H82.8609V82.6935H78.2157V86.1251H83.6142V87.2132H77.0021Z" fill="black"/>
<path d="M0 68.7579V57.2076H4.81263C7.23987 57.2076 8.70458 58.2957 8.70458 60.1789C8.70458 62.0621 8.07685 62.2713 6.86323 62.7735C8.36979 63.1083 9.16492 64.0708 9.16492 65.5356C9.16492 67.0003 7.65836 68.7998 5.06372 68.7998H0V68.7579ZM2.51094 61.8947H4.56154C5.60776 61.8947 6.19365 61.4344 6.19365 60.5555C6.19365 59.6767 5.60776 59.2164 4.56154 59.2164H2.51094V61.8528V61.8947ZM2.51094 66.7492H4.77078C5.94255 66.7492 6.57029 66.247 6.57029 65.3263C6.57029 64.4056 5.94255 63.9034 4.81263 63.9034H2.51094V66.7492Z" fill="black"/>
<path d="M21.8033 68.7579H18.9157L16.8233 65.2844C16.4885 64.6985 16.3629 64.6148 15.7352 64.6148H14.1449V68.716H11.634V57.1657H16.8651C19.3761 57.1657 21.05 58.5886 21.05 60.8066C21.05 63.0246 20.213 63.6105 18.7483 64.1127C18.9994 64.3219 19.1668 64.6148 19.4598 65.0333L21.8033 68.7579ZM14.1449 62.5642H16.4466C17.744 62.5642 18.4554 62.0202 18.4554 60.974C18.4554 59.9278 17.744 59.3837 16.4466 59.3837H14.1449V62.6061V62.5642Z" fill="black"/>
<path d="M23.8121 68.7579V57.2076H32.0982V59.3838H26.2812V61.811H31.1775V63.9871H26.2812V66.5399H32.1819V68.7161H23.8121V68.7579Z" fill="black"/>
<path d="M37.7059 68.7579V59.4674H34.1487V57.1657H43.6903V59.4674H40.1331V68.7579H37.6641H37.7059Z" fill="black"/>
<path d="M49.1307 68.7579V59.4674H45.5735V57.1657H55.1151V59.4674H51.5579V68.7579H49.0888H49.1307Z" fill="black"/>
<path d="M57.1657 68.7579V57.2076H65.4518V59.3838H59.6348V61.811H64.5311V63.9871H59.6348V66.5399H65.5355V68.7161H57.1657V68.7579Z" fill="black"/>
<path d="M68.0464 68.7579V57.2076H70.8503L75.6211 64.5312C75.7885 64.7404 75.8722 64.9497 75.9977 65.2008C75.9977 64.9915 75.9977 64.7823 75.9977 64.5312V57.2076H78.425V68.7579H75.6211L70.8503 61.4762C70.7247 61.267 70.5992 61.0577 70.4737 60.8066C70.4737 61.0577 70.4737 61.2251 70.4737 61.4762V68.7579H68.0464Z" fill="black"/>
<path d="M88.6779 57.2076H91.1889V68.7579H88.6779V64.029H83.5305V68.7579H81.0196V57.2076H83.5305V61.7691H88.6779V57.2076Z" fill="black"/>
<path d="M102.028 68.7579L101.107 66.1633H96.5455L95.6249 68.7579H92.9884L97.4662 57.2076H100.186L104.664 68.7579H102.028ZM97.3407 64.0708H100.354L99.0565 60.43C98.9728 60.2207 98.9309 60.0533 98.8472 59.8441C98.7635 60.0952 98.7217 60.2626 98.638 60.43L97.3407 64.0708Z" fill="black"/>
<path d="M106.506 68.7579V57.2076H109.602L112.574 63.192L115.545 57.2076H118.6V68.7579H116.173V61.4762C116.173 61.267 116.173 61.0577 116.173 60.8485C116.089 61.0577 115.963 61.267 115.838 61.4762L113.578 66.0377H111.527L109.226 61.4344L108.891 60.8066C108.891 61.0159 108.891 61.2251 108.891 61.4762V68.7579H106.464H106.506Z" fill="black"/>
</g>
<defs>
<clipPath id="clip0_1293_810">
<rect width="119" height="88" fill="white"/>
</clipPath>
</defs>
</svg>
