<svg width="49" height="44" viewBox="0 0 49 44" fill="none" xmlns="http://www.w3.org/2000/svg">
<g clip-path="url(#clip0_1293_868)">
<path d="M0 0V43.6903H48.5866V0H0ZM36.576 2.09245L24.2724 22.5984L12.0107 2.09245H36.6178H36.576ZM24.2724 41.556L17.9532 37.0782L24.2724 26.5322L30.5916 37.0782L24.2724 41.556ZM2.0506 2.09245H9.58341L23.1006 24.5653L16.2792 35.9064L2.0506 25.8627V2.09245ZM2.0506 41.6397V28.4154L7.86761 32.5166V41.6397H2.0506ZM9.91821 41.6397V33.9814L20.7989 41.6397H9.91821ZM27.7877 41.6397L38.6684 33.9395V41.6397H27.7877ZM46.536 41.6397H40.719V32.5166L46.536 28.4154V41.6397ZM32.3074 35.9064L25.486 24.5653L39.0032 2.09245H46.536V25.8627L32.3074 35.9064Z" fill="white"/>
</g>
<defs>
<clipPath id="clip0_1293_868">
<rect width="49" height="44" fill="white"/>
</clipPath>
</defs>
</svg>
