<?xml version="1.0" encoding="utf-8"?>
<!-- Generator: Adobe Illustrator 28.3.0, SVG Export Plug-In . SVG Version: 6.00 Build 0)  -->
<svg version="1.1" id="Layer_1" xmlns="http://www.w3.org/2000/svg" xmlns:xlink="http://www.w3.org/1999/xlink" x="0px" y="0px"
	 viewBox="0 0 72.2 72.1" style="enable-background:new 0 0 72.2 72.1;" xml:space="preserve">
<style type="text/css">
	.st0{fill:#000000;}
</style>
<path class="st0" d="M25.2,59.7C22.5,60,20,60.5,20,62.8c0,1.9,1.6,2.7,3.1,2.7c1.5,0,2.9-0.5,3.8-1.5c0.8-0.8,1.2-1.9,1.2-3v-2
	c-0.3,0.3-1.1,0.4-1.5,0.4L25.2,59.7z"/>
<path class="st0" d="M0.4,71.9h71.5V0.4H0.4V71.9z M10.8,67.3c-3.7,0-6.1-1.9-6.1-5.3v-0.1h2v0.1c0,2.3,1.6,3.6,4.1,3.6
	c1.3,0,3.9-0.6,3.9-2.7c0-4.1-9.5-1.2-9.5-7.1c0-3,2.8-4.3,5.5-4.3c3.3,0,5.5,1.9,5.5,4.9v0.1h-2v-0.1c0-2-1.4-3.1-3.6-3.1
	c-1.6,0-3.4,0.7-3.4,2.5c0,3.9,9.5,1.2,9.5,7.1C16.7,65.9,13.7,67.3,10.8,67.3 M28.5,66.9c-0.2-0.8-0.2-2.4-0.2-2.4
	c-0.8,1.7-2.5,2.9-5.2,2.9c-3.1,0-5-1.7-5-4.5c0-4,3.6-4.4,7.1-4.8l0.8-0.1c1.4-0.2,2.2-0.4,2.2-1.9c0-2-1.2-2.9-3.7-2.9
	c-2.1,0-3.8,0.9-3.8,3.2v0.1h-2v-0.1c0-3.5,2.8-4.9,6-4.9c3.5,0,5.5,1.4,5.5,4.6v8.2c0,0.7,0.1,2.2,0.3,2.7H28.5z M38.2,66.9H36
	l-5.3-15.1H33l4.1,12.8l4.1-12.8h2.1L38.2,66.9z M46.5,66.9h-2.1V51.8h2.1V66.9z M46.8,47.9C46.8,47.8,46.8,47.8,46.8,47.9
	c0,0.8-0.7,1.4-1.4,1.4c-0.7,0-1.4-0.6-1.4-1.4c0-0.7,0.7-1.4,1.4-1.4C46.1,46.5,46.8,47,46.8,47.9C46.8,47.8,46.8,47.8,46.8,47.9
	L46.8,47.9z M50.6,66.9h-2.1V46.1h2.1V66.9z M54.7,66.9h-2.1V46.1h2.1V66.9z M62,67.3c-3.7,0-6.2-1.9-6.2-5.3v-0.1h2v0.1
	c0,2.3,1.7,3.6,4.1,3.6c1.3,0,3.9-0.6,3.9-2.7c0-4.1-9.6-1.2-9.6-7.1c0-3,2.8-4.3,5.5-4.3c3.3,0,5.5,1.9,5.5,4.9v0.1h-2v-0.1
	c0-2-1.4-3.1-3.6-3.1c-1.6,0-3.4,0.7-3.4,2.5c0,3.9,9.6,1.2,9.6,7.1C67.9,65.9,65,67.3,62,67.3"/>
</svg>
