<?xml version="1.0" encoding="UTF-8"?>
<svg id="Layer_1" data-name="Layer 1" xmlns="http://www.w3.org/2000/svg" version="1.1" viewBox="0 0 200 31">
  <defs>
    <style>
      .cls-1 {
        fill-rule: evenodd;
      }

      .cls-1, .cls-2 {
        fill: #000;
        stroke-width: 0px;
      }
    </style>
  </defs>
  <g>
    <path class="cls-1" d="M95.2,29.2h5.5V1.7h-5.5v27.5Z"/>
    <path class="cls-1" d="M66.1,1.7h5.5v22.8h13.8v4.8h-19.3V1.7Z"/>
    <path class="cls-1" d="M35.4,1.7h20.5v4.7h-15v6.4h13.9v4.7h-13.9v7h15.1v4.7h-20.6V1.7Z"/>
    <path class="cls-1" d="M164.5,27.1l.8,2.2h6l-2.1-5.4-4.6,3.2Z"/>
    <path class="cls-1" d="M153.6,17.4l3.7-10.6h.2l3.7,10.6h-7.6,0ZM162.8,22h5.7l-7.9-20.3h-6.4l-10.7,27.5h6l2.5-7.2h10.8Z"/>
    <path class="cls-1" d="M110.8,15.5c0-8.9,5.6-14.5,13.6-14.5s11.1,4.1,12.4,9.8h-5.9c-.9-2.8-3-5-6.5-5-5.4,0-8,4.7-8,9.7s2.6,9.8,8,9.8,6.4-3.1,6.9-6.7h5.8c-.8,6.5-5.2,11.5-12.7,11.5s-13.6-5.7-13.6-14.5"/>
    <path class="cls-1" d="M179.8,1.7v27.5h19.3v-4.8h-13.8V1.7h-5.5Z"/>
  </g>
  <g>
    <path class="cls-2" d="M19.1,22.9v6.3h5.5v-10.2l-5.5,3.9Z"/>
    <path class="cls-2" d="M19.1,1.7v11H6.4s-5.5,0-5.5,0v16.5h5.5v-11.6h12.7s5.5,0,5.5,0V1.7h-5.5Z"/>
    <path class="cls-2" d="M6.4,7.6V1.7H.9v9.8l5.5-3.9Z"/>
  </g>
</svg>