<?xml version="1.0" encoding="utf-8"?>
<!-- Generator: Adobe Illustrator 27.0.0, SVG Export Plug-In . SVG Version: 6.00 Build 0)  -->
<svg version="1.1" id="Layer_1" xmlns="http://www.w3.org/2000/svg" xmlns:xlink="http://www.w3.org/1999/xlink" x="0px" y="0px"
	 viewBox="0 0 400 347.3" style="enable-background:new 0 0 400 347.3;" xml:space="preserve">
<style type="text/css">
	.st0{fill:#000000;}
</style>
<g>
	<g>
		<path class="st0" d="M140,132.6v2.8c0,0.2,0.1,0.5,0.2,0.7l40.8,53.3c0.1,0.2,0.2,0.4,0.2,0.7v33.4c0,0.6-0.5,1.1-1.1,1.1h-24.4
			c-0.3,0-0.7-0.2-0.9-0.4l-67.7-87.9c-0.2-0.3-0.5-0.4-0.9-0.4l-37.1,0c-0.6,0-1.1,0.5-1.1,1.1v86.6c0,0.6-0.5,1.1-1.1,1.1H4.8
			c-0.6,0-1.1-0.5-1.1-1.1V3.7c0-0.6,0.5-1.1,1.1-1.1h113.4c43,0,76.4,39.1,67.9,81.3C180.8,110.3,161.6,127.2,140,132.6
			 M111.5,40.6H49.2c-0.6,0-1.1,0.5-1.1,1.1v54.9c0,0.6,0.5,1.1,1.1,1.1h62.3c19,0,31.7-6.3,31.7-28.5
			C143.2,47,130.5,40.6,111.5,40.6"/>
		<path class="st0" d="M364.2,3l-58.4,71.4c-0.6,0.7-1.5,1.2-2.5,1.2h-0.1c-1,0-1.9-0.4-2.5-1.2L242.3,3c-0.2-0.2-0.4-0.3-0.7-0.3
			h-27.7c-0.5,0-0.9,0.4-0.9,0.9v33.6c0,0.2,0.1,0.4,0.2,0.6l59.8,69.2c0.1,0.2,0.2,0.4,0.2,0.6v2.5c0,0.2-0.1,0.4-0.2,0.6l-63,78.7
			c-0.1,0.2-0.2,0.4-0.2,0.6v33.6c0,0.5,0.4,0.9,0.9,0.9h27.9c0.3,0,0.6-0.1,0.7-0.4l61.4-80.8c0.6-0.8,1.5-1.3,2.5-1.3
			c1,0,1.9,0.5,2.5,1.3l61.4,80.8c0.2,0.2,0.5,0.4,0.7,0.4h27.9c0.5,0,0.9-0.4,0.9-0.9v-33.6c0-0.2-0.1-0.4-0.2-0.6l-63-78.7
			c-0.1-0.2-0.2-0.4-0.2-0.6v-2.5c0-0.2,0.1-0.4,0.2-0.6l59.8-69.2c0.1-0.2,0.2-0.4,0.2-0.6V3.5c0-0.5-0.4-0.9-0.9-0.9h-27.7
			C364.6,2.6,364.4,2.7,364.2,3"/>
	</g>
	<polygon class="st0" points="4.5,285.4 3.7,286.3 3.7,343.6 4.5,344.5 39.2,344.5 40,343.6 40,335.2 39.2,334.3 15.3,334.3 
		14.5,333.5 14.5,286.3 13.8,285.4 	"/>
	<g>
		<path class="st0" d="M84,294.7c-10,0-15.4,8.4-15.4,20.2c0,11.8,5.4,20.2,15.4,20.2c10,0,15.4-8.4,15.4-20.2
			C99.5,303.1,94.1,294.7,84,294.7 M84,345.3c-16.2,0-26.2-12.7-26.2-30.4c0-17.7,10-30.4,26.2-30.4c16.2,0,26.2,12.7,26.2,30.4
			C110.3,332.7,100.2,345.3,84,345.3"/>
	</g>
	<polygon class="st0" points="170.5,285.4 169.7,286.3 169.7,325.1 169,325.1 148.1,286.3 146.6,285.4 135.8,285.4 135,286.3 
		135,343.6 135.8,344.5 145,344.5 145.8,343.6 145.8,304.8 146.6,304.8 167.4,343.6 169,344.5 179.8,344.5 180.5,343.6 180.5,286.3 
		179.8,285.4 	"/>
	<g>
		<path class="st0" d="M226.9,295.5h-6.9l-0.8,0.8v37.1l0.8,0.8h6.9c10.8,0,14.7-5.9,14.7-19.4C241.5,301.4,237.7,295.5,226.9,295.5
			 M226.1,344.5h-17l-0.8-0.8v-57.4l0.8-0.8h17c19.3,0,26.2,11,26.2,29.5C252.3,333.5,245.4,344.5,226.1,344.5"/>
		<path class="st0" d="M300.2,294.7c-10,0-15.4,8.4-15.4,20.2c0,11.8,5.4,20.2,15.4,20.2c10,0,15.4-8.4,15.4-20.2
			C315.7,303.1,310.3,294.7,300.2,294.7 M300.2,345.3c-16.2,0-26.2-12.7-26.2-30.4c0-17.7,10-30.4,26.2-30.4
			c16.2,0,26.2,12.7,26.2,30.4C326.5,332.7,316.4,345.3,300.2,345.3"/>
	</g>
	<polygon class="st0" points="386.7,285.4 385.9,286.3 385.9,325.1 385.2,325.1 364.3,286.3 362.8,285.4 352,285.4 351.2,286.3 
		351.2,343.6 352,344.5 361.2,344.5 362,343.6 362,304.8 362.8,304.8 383.6,343.6 385.2,344.5 396,344.5 396.7,343.6 396.7,286.3 
		396,285.4 	"/>
</g>
</svg>
