<svg width="240" height="128" viewBox="0 0 240 128" fill="none" xmlns="http://www.w3.org/2000/svg">
<path d="M238.815 59.5H216.315V28.45H238.59V34.345H223.02V40.825H236.16V46.72H223.02V53.605H238.815V59.5Z" fill="black"/>
<path d="M212.146 59.5H191.266V28.45H197.971V53.335H212.146V59.5Z" fill="black"/>
<path d="M175.193 59.5H161.603V28.45H174.518C181.088 28.45 184.958 31.42 184.958 36.37C184.958 39.655 183.293 42.04 180.008 43.3C184.103 44.2 186.173 46.765 186.173 50.725C186.173 56.26 182.123 59.5 175.193 59.5ZM168.308 33.895V41.005H173.843C176.678 41.005 178.253 39.745 178.253 37.45C178.253 35.155 176.678 33.895 173.843 33.895H168.308ZM168.308 46.45V54.055H174.383C177.488 54.055 179.198 52.66 179.198 50.23C179.198 47.8 177.533 46.45 174.473 46.45H168.308Z" fill="black"/>
<path d="M158.095 59.5H150.985L148.51 52.57H136.315L133.84 59.5H126.775L138.79 28.45H146.125L158.095 59.5ZM141.895 37.135L138.385 46.9H146.485L142.975 37.135C142.795 36.595 142.66 36.145 142.435 35.515C142.255 36.145 142.075 36.595 141.895 37.135Z" fill="black"/>
<path d="M101.948 59.5H95.3776V28.45H102.893L115.718 48.115C116.123 48.7 116.438 49.285 116.753 49.87C116.708 49.285 116.708 48.7 116.708 48.115V28.45H123.278V59.5H115.718L102.938 39.925C102.578 39.34 102.218 38.8 101.903 38.17C101.948 38.8 101.948 39.34 101.948 39.925V59.5Z" fill="black"/>
<path d="M90.4997 59.5H67.9997V28.45H90.2747V34.345H74.7047V40.825H87.8447V46.72H74.7047V53.605H90.4997V59.5Z" fill="black"/>
<path d="M51.1627 28.45C58.6327 28.45 63.3127 32.5 63.3127 38.935C63.3127 45.55 58.4527 49.825 50.9827 49.825H44.9977V59.5H38.2927V28.45H51.1627ZM44.9977 43.885H50.4427C54.0877 43.885 56.3377 42.04 56.3377 39.16C56.3377 36.145 54.1777 34.39 50.5327 34.39H44.9977V43.885Z" fill="black"/>
<path d="M17.322 59.95C7.96195 59.95 1.12195 53.29 1.12195 43.975C1.12195 34.66 7.96195 28 17.322 28C26.592 28 33.477 34.66 33.477 43.975C33.477 53.29 26.592 59.95 17.322 59.95ZM17.322 53.785C22.677 53.785 26.502 49.87 26.502 43.975C26.502 38.035 22.677 34.165 17.322 34.165C11.922 34.165 8.09695 38.08 8.09695 43.975C8.09695 49.915 11.922 53.785 17.322 53.785Z" fill="black"/>
<path d="M162.071 100.67C160.099 100.67 158.28 99.99 157.226 98.766L158.858 97.1C159.759 98.12 160.847 98.545 162.122 98.545C163.465 98.545 164.162 98.069 164.162 97.219C164.162 96.471 163.669 96.114 162.36 95.808L161.255 95.57C158.773 95.043 157.6 94.023 157.6 92.187C157.6 89.977 159.3 88.6 162.156 88.6C163.924 88.6 165.369 89.195 166.508 90.317L164.91 91.983C164.043 90.997 163.159 90.708 161.969 90.708C160.796 90.708 160.099 91.201 160.099 92.017C160.099 92.748 160.66 93.088 161.901 93.377L163.006 93.598C165.539 94.142 166.678 95.196 166.678 97.066C166.678 99.242 164.944 100.67 162.071 100.67Z" fill="black"/>
<path d="M141.53 100.5L138.487 88.77H141.071L143.111 97.389C143.145 97.542 143.213 97.746 143.247 97.95C143.281 97.746 143.349 97.542 143.383 97.389L145.474 88.77H148.857L150.914 97.389C150.948 97.542 150.999 97.729 151.033 97.95L151.169 97.389L153.277 88.77H155.844L152.733 100.5H149.299L147.293 91.898L147.174 91.354C147.14 91.524 147.089 91.728 147.055 91.898L144.964 100.5H141.53Z" fill="black"/>
<path d="M131.085 100.67C127.549 100.67 124.965 98.154 124.965 94.635C124.965 91.116 127.549 88.6 131.085 88.6C134.587 88.6 137.188 91.116 137.188 94.635C137.188 98.154 134.587 100.67 131.085 100.67ZM131.085 98.341C133.108 98.341 134.553 96.862 134.553 94.635C134.553 92.391 133.108 90.929 131.085 90.929C129.045 90.929 127.6 92.408 127.6 94.635C127.6 96.879 129.045 98.341 131.085 98.341Z" fill="black"/>
<path d="M116.415 100.5H111.927V88.77H116.415C119.951 88.77 122.79 90.895 122.79 94.618C122.79 98.341 119.934 100.5 116.415 100.5ZM114.46 91.099V98.171H116.279C118.472 98.171 120.155 97.015 120.155 94.618C120.155 92.238 118.489 91.099 116.279 91.099H114.46Z" fill="black"/>
<path d="M100.61 100.5H98.1275V88.77H100.967L105.812 96.199C105.965 96.42 106.084 96.641 106.203 96.862C106.186 96.641 106.186 96.42 106.186 96.199V88.77H108.667V100.5H105.812L100.984 93.105C100.848 92.884 100.712 92.68 100.593 92.442C100.61 92.68 100.61 92.884 100.61 93.105V100.5Z" fill="black"/>
<path d="M94.8466 100.5H92.3136V88.77H94.8466V100.5Z" fill="black"/>
<path d="M75.821 100.5L72.778 88.77H75.362L77.402 97.389C77.436 97.542 77.504 97.746 77.538 97.95C77.572 97.746 77.64 97.542 77.674 97.389L79.765 88.77H83.148L85.205 97.389C85.239 97.542 85.29 97.729 85.324 97.95L85.46 97.389L87.568 88.77H90.135L87.024 100.5H83.59L81.584 91.898L81.465 91.354C81.431 91.524 81.38 91.728 81.346 91.898L79.255 100.5H75.821Z" fill="black"/>
</svg>
