<svg width="240" height="128" viewBox="0 0 240 128" fill="none" xmlns="http://www.w3.org/2000/svg">
<path d="M221.81 47.755V42.175H236.48V59.5H231.125V56.035C229.265 58.645 226.07 59.95 221.54 59.95C217.07 59.95 213.38 58.51 210.47 55.63C207.56 52.72 206.105 48.91 206.105 44.2C206.105 39.4 207.635 35.5 210.695 32.5C213.785 29.5 217.715 28 222.485 28C228.275 28 232.745 29.845 235.895 33.535L230.945 37.63C229.055 35.32 226.235 34.165 222.485 34.165C219.695 34.165 217.43 35.08 215.69 36.91C213.95 38.71 213.08 41.14 213.08 44.2C213.08 47.41 213.935 49.885 215.645 51.625C217.385 53.365 219.68 54.235 222.53 54.235C224.9 54.235 226.82 53.74 228.29 52.75C229.76 51.76 230.495 50.365 230.495 48.565V47.755H221.81Z" fill="black"/>
<path d="M179.973 59.5H173.403V28.45H180.918L193.743 48.115C194.013 48.505 194.358 49.09 194.778 49.87C194.748 49.48 194.733 48.895 194.733 48.115V28.45H201.303V59.5H193.743L180.963 39.925C180.393 39.025 180.048 38.44 179.928 38.17C179.958 38.59 179.973 39.175 179.973 39.925V59.5Z" fill="black"/>
<path d="M166.968 59.5H160.263V28.45H166.968V59.5Z" fill="black"/>
<path d="M132.556 59.5H125.986V28.45H133.501L146.326 48.115C146.596 48.505 146.941 49.09 147.361 49.87C147.331 49.48 147.316 48.895 147.316 48.115V28.45H153.886V59.5H146.326L133.546 39.925C132.976 39.025 132.631 38.44 132.511 38.17C132.541 38.59 132.556 39.175 132.556 39.925V59.5Z" fill="black"/>
<path d="M98.2782 59.5H91.7082V28.45H99.2232L112.048 48.115C112.318 48.505 112.663 49.09 113.083 49.87C113.053 49.48 113.038 48.895 113.038 48.115V28.45H119.608V59.5H112.048L99.2682 39.925C98.6982 39.025 98.3532 38.44 98.2332 38.17C98.2632 38.59 98.2782 39.175 98.2782 39.925V59.5Z" fill="black"/>
<path d="M72.0671 59.905C67.8071 59.875 64.4921 58.705 62.1221 56.395C59.7521 54.055 58.5671 50.8 58.5671 46.63V28.45H65.2721V45.955C65.2721 48.415 65.8571 50.32 67.0271 51.67C68.2271 53.02 69.9221 53.71 72.1121 53.74C74.3021 53.68 75.9671 53.005 77.1071 51.715C78.2771 50.395 78.8621 48.505 78.8621 46.045V28.45H85.5671V46.54C85.5671 50.74 84.3821 54.01 82.0121 56.35C79.6421 58.69 76.3271 59.875 72.0671 59.905Z" fill="black"/>
<path d="M45.2742 59.5H38.6142V34.615H29.1192V28.45H54.7692V34.615H45.2742V59.5Z" fill="black"/>
<path d="M15.192 59.95C12.552 59.95 10.092 59.515 7.81201 58.645C5.56201 57.745 3.74701 56.5 2.36701 54.91L6.68701 50.5C8.93701 53.05 11.817 54.325 15.327 54.325C18.927 54.325 20.727 53.155 20.727 50.815C20.727 49.825 20.367 49.06 19.647 48.52C18.927 47.98 17.697 47.5 15.957 47.08L13.032 46.45C9.70201 45.76 7.25701 44.695 5.69701 43.255C4.13701 41.815 3.35701 39.895 3.35701 37.495C3.35701 34.555 4.42201 32.245 6.55201 30.565C8.71201 28.855 11.667 28 15.417 28C20.007 28 23.847 29.515 26.937 32.545L22.707 36.955C21.597 35.695 20.427 34.825 19.197 34.345C17.997 33.835 16.572 33.58 14.922 33.58C13.362 33.58 12.147 33.895 11.277 34.525C10.407 35.125 9.97201 35.965 9.97201 37.045C9.97201 37.975 10.332 38.71 11.052 39.25C11.802 39.79 13.032 40.255 14.742 40.645L17.667 41.23C21.027 41.95 23.487 43.045 25.047 44.515C26.607 45.985 27.387 47.95 27.387 50.41C27.387 53.32 26.292 55.645 24.102 57.385C21.942 59.095 18.972 59.95 15.192 59.95Z" fill="black"/>
<path d="M173.765 100.67C171.793 100.67 169.974 99.99 168.92 98.766L170.552 97.1C171.453 98.12 172.541 98.545 173.816 98.545C175.159 98.545 175.856 98.069 175.856 97.219C175.856 96.471 175.363 96.114 174.054 95.808L172.949 95.57C170.467 95.043 169.294 94.023 169.294 92.187C169.294 89.977 170.994 88.6 173.85 88.6C175.618 88.6 177.063 89.195 178.202 90.317L176.604 91.983C175.737 90.997 174.853 90.708 173.663 90.708C172.49 90.708 171.793 91.201 171.793 92.017C171.793 92.748 172.354 93.088 173.595 93.377L174.7 93.598C177.233 94.142 178.372 95.196 178.372 97.066C178.372 99.242 176.638 100.67 173.765 100.67Z" fill="black"/>
<path d="M153.224 100.5L150.181 88.77H152.765L154.805 97.389C154.839 97.542 154.907 97.746 154.941 97.95C154.975 97.746 155.043 97.542 155.077 97.389L157.168 88.77H160.551L162.608 97.389C162.642 97.542 162.693 97.729 162.727 97.95L162.863 97.389L164.971 88.77H167.538L164.427 100.5H160.993L158.987 91.898L158.868 91.354C158.834 91.524 158.783 91.728 158.749 91.898L156.658 100.5H153.224Z" fill="black"/>
<path d="M148.576 100.5H140.076V88.77H148.491V90.997H142.609V93.445H147.573V95.672H142.609V98.273H148.576V100.5Z" fill="black"/>
<path d="M136.795 100.5H134.262V88.77H136.795V100.5Z" fill="black"/>
<path d="M129.593 88.77H132.262L127.893 100.5H124.952L120.6 88.77H123.286L126.227 97.253L126.431 97.916C126.516 97.678 126.567 97.457 126.652 97.27L129.593 88.77Z" fill="black"/>
<path d="M112.109 96.743L114.472 100.5H111.531L109.406 96.998C109.066 96.403 108.93 96.335 108.318 96.335H106.703V100.5H104.17V88.77H109.474C112.007 88.77 113.724 90.215 113.724 92.442C113.724 94.091 112.874 95.264 111.395 95.808C111.65 96.012 111.837 96.301 112.109 96.743ZM106.703 90.963V94.21H109.049C110.375 94.21 111.089 93.649 111.089 92.595C111.089 91.524 110.375 90.963 109.049 90.963H106.703Z" fill="black"/>
<path d="M101.478 100.5H92.9777V88.77H101.393V90.997H95.5107V93.445H100.475V95.672H95.5107V98.273H101.478V100.5Z" fill="black"/>
<path d="M88.308 88.77H90.977L86.608 100.5H83.667L79.315 88.77H82.001L84.942 97.253L85.146 97.916C85.231 97.678 85.282 97.457 85.367 97.27L88.308 88.77Z" fill="black"/>
<path d="M77.2921 100.5H74.7591V88.77H77.2921V100.5Z" fill="black"/>
<path d="M70.1108 96.743L72.4738 100.5H69.5328L67.4078 96.998C67.0678 96.403 66.9318 96.335 66.3198 96.335H64.7048V100.5H62.1718V88.77H67.4758C70.0088 88.77 71.7258 90.215 71.7258 92.442C71.7258 94.091 70.8758 95.264 69.3968 95.808C69.6518 96.012 69.8388 96.301 70.1108 96.743ZM64.7048 90.963V94.21H67.0508C68.3768 94.21 69.0908 93.649 69.0908 92.595C69.0908 91.524 68.3768 90.963 67.0508 90.963H64.7048Z" fill="black"/>
</svg>
