<svg width="240" height="128" viewBox="0 0 240 128" fill="none" xmlns="http://www.w3.org/2000/svg">
<path d="M165.725 11.463V9.355H171.267V15.9H169.244V14.591C168.541 15.577 167.334 16.07 165.623 16.07C163.934 16.07 162.54 15.526 161.441 14.438C160.342 13.3387 159.792 11.8993 159.792 10.12C159.792 8.30667 160.37 6.83333 161.526 5.7C162.693 4.56667 164.178 4 165.98 4C168.167 4 169.856 4.697 171.046 6.091L169.176 7.638C168.462 6.76533 167.397 6.329 165.98 6.329C164.926 6.329 164.07 6.67467 163.413 7.366C162.756 8.046 162.427 8.964 162.427 10.12C162.427 11.3327 162.75 12.2677 163.396 12.925C164.053 13.5823 164.92 13.911 165.997 13.911C166.892 13.911 167.618 13.724 168.173 13.35C168.728 12.976 169.006 12.449 169.006 11.769V11.463H165.725Z" fill="black"/>
<path d="M149.07 15.9H146.588V4.16998H149.427L154.272 11.599C154.374 11.7463 154.504 11.9673 154.663 12.262C154.651 12.1147 154.646 11.8937 154.646 11.599V4.16998H157.128V15.9H154.272L149.444 8.50498C149.228 8.16498 149.098 7.94398 149.053 7.84198C149.064 8.00065 149.07 8.22165 149.07 8.50498V15.9Z" fill="black"/>
<path d="M143.307 15.9H140.774V4.16998H143.307V15.9Z" fill="black"/>
<path d="M134.8 15.9H132.284V6.49898H128.697V4.16998H138.387V6.49898H134.8V15.9Z" fill="black"/>
<path d="M126.822 15.9H118.322V4.16998H126.737V6.39698H120.855V8.84498H125.819V11.072H120.855V13.673H126.822V15.9Z" fill="black"/>
<path d="M109.794 11.463V9.355H115.336V15.9H113.313V14.591C112.611 15.577 111.404 16.07 109.692 16.07C108.004 16.07 106.61 15.526 105.51 14.438C104.411 13.3387 103.861 11.8993 103.861 10.12C103.861 8.30667 104.439 6.83333 105.595 5.7C106.763 4.56667 108.247 4 110.049 4C112.237 4 113.925 4.697 115.115 6.091L113.245 7.638C112.531 6.76533 111.466 6.329 110.049 6.329C108.995 6.329 108.14 6.67467 107.482 7.366C106.825 8.046 106.496 8.964 106.496 10.12C106.496 11.3327 106.819 12.2677 107.465 12.925C108.123 13.5823 108.99 13.911 110.066 13.911C110.962 13.911 111.687 13.724 112.242 13.35C112.798 12.976 113.075 12.449 113.075 11.769V11.463H109.794Z" fill="black"/>
<path d="M99.9741 12.143L102.337 15.9H99.3961L97.2711 12.398C97.1011 12.1033 96.9538 11.922 96.8291 11.854C96.7044 11.7747 96.4891 11.735 96.1831 11.735H94.5681V15.9H92.0351V4.16998H97.3391C98.6084 4.16998 99.6341 4.50432 100.416 5.17298C101.198 5.84165 101.589 6.73132 101.589 7.84198C101.589 8.65798 101.385 9.35498 100.977 9.93298C100.58 10.511 100.008 10.936 99.2601 11.208C99.4414 11.3553 99.6794 11.667 99.9741 12.143ZM94.5681 6.36298V9.60998H96.9141C98.2741 9.60998 98.9541 9.07165 98.9541 7.99498C98.9541 6.90698 98.2741 6.36298 96.9141 6.36298H94.5681Z" fill="black"/>
<path d="M89.8597 15.9H87.1737L86.2387 13.282H81.6317L80.6967 15.9H78.0277L82.5667 4.16998H85.3377L89.8597 15.9ZM83.7397 7.45098L82.4137 11.14H85.4737L84.1477 7.45098C84.1364 7.40565 84.1137 7.34332 84.0797 7.26398C84.0571 7.18465 84.0344 7.11098 84.0117 7.04298C83.9891 6.97498 83.9664 6.90698 83.9437 6.83898L83.7397 7.45098Z" fill="black"/>
<path d="M74.3705 15.9H71.8545V6.49898H68.2675V4.16998H77.9575V6.49898H74.3705V15.9Z" fill="black"/>
<path d="M183.112 83.2618V52.6049L190.992 65.8414C191.6 66.8595 192.216 67.9547 193.671 67.9547C195.125 67.9547 195.758 66.8595 196.349 65.8414L204.22 52.6049V83.2703C204.22 85.0158 204.896 85.7431 206.642 85.7431C208.387 85.7431 209.14 85.0158 209.14 83.2703V43.3813C209.14 41.6701 208.387 40.9 206.642 40.9C204.896 40.9 204.751 41.7043 203.758 43.3813L193.679 60.6734L183.6 43.3813C182.582 41.7043 182.393 40.9 180.699 40.9C179.005 40.9 178.192 41.6701 178.192 43.3813V83.2703C178.192 85.0158 178.954 85.7431 180.699 85.7431C182.445 85.7431 183.121 85.0158 183.121 83.2703M55.6419 64.5665C54.9231 63.7622 53.5199 62.7526 53.2889 62.6242C53.5028 62.4103 53.7253 62.1707 53.9392 61.9483C57.2076 58.3033 56.7798 52.9215 56.7798 52.9215C56.7884 45.7343 52.1082 40.9 45.1348 40.9H33.4385C32.0952 40.9 31 42.0038 31 43.3471V83.1591C31 84.511 32.0952 85.5976 33.4385 85.5976H46.8461C53.7937 85.5976 58.4911 80.789 58.4911 73.5847C58.4911 73.5847 58.9702 68.2542 55.6419 64.5579M50.2001 58.7483C49.0194 60.1001 47.5306 60.7932 45.5541 60.7932H35.9027V45.8198H45.1348C49.4129 45.8198 51.8771 48.4209 51.8771 52.93C51.8771 52.93 52.2365 56.4552 50.2001 58.7654M53.5884 73.6018C53.5884 78.1109 51.1327 80.712 46.8546 80.712H35.9027V65.7301H47.2825C49.2333 65.7301 50.7477 66.3633 51.9114 67.7665C53.5884 69.7344 53.5884 73.6018 53.5884 73.6018ZM65.0537 85.8629C66.7906 85.8629 67.4751 85.127 67.4751 83.373V65.7472H74.0548L84.3308 84.4596C85.1608 85.9827 86.1875 86.2907 87.6848 85.4179C89.2335 84.5709 89.4731 83.6297 88.6346 82.081L79.5222 65.559C81.8923 65.0884 83.9287 63.8734 85.5287 62.0424C88.8228 58.2092 88.3522 53.007 88.3522 53.007C88.3522 45.8113 83.6805 40.9941 76.7329 40.9941C76.7329 40.9941 64.7114 41.0198 64.566 41.0455C63.1713 41.1653 62.5809 41.9182 62.5809 43.5011V83.3645C62.5809 85.1185 63.3082 85.8543 65.0622 85.8543M67.4922 45.914H76.7415C81.011 45.914 83.4752 48.4979 83.4752 52.9985C83.4752 52.9985 83.9714 56.2327 81.8153 58.8595C80.6602 60.2456 79.1115 60.8018 77.1607 60.8018H67.4922V45.914ZM92.7073 43.3813V83.2703C92.7073 85.0158 93.4432 85.7431 95.1715 85.7431H112.412C113.875 85.7431 114.748 84.8618 114.748 83.2703C114.748 81.6789 113.867 80.8318 112.412 80.8318H97.6271V65.7216H108.083C109.58 65.7216 110.393 64.9344 110.393 63.283C110.393 61.6317 109.58 60.8018 108.083 60.8018H97.6271V45.8113H112.412C113.875 45.8113 114.748 45.007 114.748 43.3813C114.748 41.7556 113.867 40.9 112.412 40.9H95.1715C93.4517 40.9 92.7073 41.6701 92.7073 43.3813ZM118.744 43.3813V83.2703C118.744 85.0158 119.488 85.7431 121.242 85.7431H138.44C139.92 85.7431 140.793 84.8618 140.793 83.2703C140.793 81.6789 139.92 80.8318 138.44 80.8318H123.647V65.7216H134.136C135.634 65.7216 136.438 64.9344 136.438 63.283C136.438 61.6317 135.634 60.8018 134.136 60.8018H123.647V45.8113H138.44C139.92 45.8113 140.793 45.007 140.793 43.3813C140.793 41.7556 139.92 40.9 138.44 40.9H121.242C119.488 40.9 118.744 41.6701 118.744 43.3813ZM143.873 82.5858C143.591 83.4671 143.266 84.9388 145.439 85.6233C147.347 86.2565 148.288 85.0158 148.571 84.203L151.386 75.3216H166.984L169.807 84.203C170.064 85.0158 170.962 86.3934 173.067 85.7003C175.035 85.05 174.778 83.3901 174.565 82.6628L161.893 43.2615C161.337 41.5845 160.798 40.9086 159.198 40.9086C157.598 40.9086 157.024 41.5845 156.502 43.2615L143.882 82.5944L143.873 82.5858ZM153.14 70.4018L159.189 51.929L165.247 70.4018H153.14Z" fill="black"/>
<path d="M179.964 118.463V116.355H185.506V122.9H183.483V121.591C182.781 122.577 181.574 123.07 179.862 123.07C178.174 123.07 176.78 122.526 175.68 121.438C174.581 120.339 174.031 118.899 174.031 117.12C174.031 115.307 174.609 113.833 175.765 112.7C176.933 111.567 178.417 111 180.219 111C182.407 111 184.095 111.697 185.285 113.091L183.415 114.638C182.701 113.765 181.636 113.329 180.219 113.329C179.165 113.329 178.31 113.675 177.652 114.366C176.995 115.046 176.666 115.964 176.666 117.12C176.666 118.333 176.989 119.268 177.635 119.925C178.293 120.582 179.16 120.911 180.236 120.911C181.132 120.911 181.857 120.724 182.412 120.35C182.968 119.976 183.245 119.449 183.245 118.769V118.463H179.964Z" fill="black"/>
<path d="M163.309 122.9H160.827V111.17H163.666L168.511 118.599C168.613 118.746 168.743 118.967 168.902 119.262C168.891 119.115 168.885 118.894 168.885 118.599V111.17H171.367V122.9H168.511L163.683 115.505C163.468 115.165 163.337 114.944 163.292 114.842C163.303 115.001 163.309 115.222 163.309 115.505V122.9Z" fill="black"/>
<path d="M157.546 122.9H155.013V111.17H157.546V122.9Z" fill="black"/>
<path d="M145.968 122.9H141.48V111.17H145.968C147.804 111.17 149.322 111.697 150.524 112.751C151.736 113.794 152.343 115.216 152.343 117.018C152.343 118.82 151.736 120.254 150.524 121.319C149.311 122.373 147.792 122.9 145.968 122.9ZM144.013 113.499V120.571H145.832C146.976 120.571 147.906 120.271 148.62 119.67C149.345 119.058 149.708 118.174 149.708 117.018C149.708 115.873 149.351 115.001 148.637 114.4C147.923 113.799 146.988 113.499 145.832 113.499H144.013Z" fill="black"/>
<path d="M130.162 122.9H127.68V111.17H130.519L135.364 118.599C135.466 118.746 135.597 118.967 135.755 119.262C135.744 119.115 135.738 118.894 135.738 118.599V111.17H138.22V122.9H135.364L130.536 115.505C130.321 115.165 130.191 114.944 130.145 114.842C130.157 115.001 130.162 115.222 130.162 115.505V122.9Z" fill="black"/>
<path d="M125.505 122.9H122.819L121.884 120.282H117.277L116.342 122.9H113.673L118.212 111.17H120.983L125.505 122.9ZM119.385 114.451L118.059 118.14H121.119L119.793 114.451C119.782 114.406 119.759 114.343 119.725 114.264C119.702 114.185 119.68 114.111 119.657 114.043C119.634 113.975 119.612 113.907 119.589 113.839L119.385 114.451Z" fill="black"/>
<path d="M110.016 122.9H107.5V113.499H103.913V111.17H113.603V113.499H110.016V122.9Z" fill="black"/>
<path d="M97.8013 123.07C96.804 123.07 95.8747 122.906 95.0133 122.577C94.1633 122.237 93.4777 121.767 92.9563 121.166L94.5883 119.5C95.4383 120.463 96.5263 120.945 97.8523 120.945C99.2123 120.945 99.8923 120.503 99.8923 119.619C99.8923 119.245 99.7563 118.956 99.4843 118.752C99.2123 118.548 98.7477 118.367 98.0903 118.208L96.9853 117.97C95.7273 117.709 94.8037 117.307 94.2143 116.763C93.625 116.219 93.3303 115.494 93.3303 114.587C93.3303 113.476 93.7327 112.604 94.5373 111.969C95.3533 111.323 96.4697 111 97.8863 111C99.6203 111 101.071 111.572 102.238 112.717L100.64 114.383C100.221 113.907 99.779 113.578 99.3143 113.397C98.861 113.204 98.3227 113.108 97.6993 113.108C97.11 113.108 96.651 113.227 96.3223 113.465C95.9937 113.692 95.8293 114.009 95.8293 114.417C95.8293 114.768 95.9653 115.046 96.2373 115.25C96.5207 115.454 96.9853 115.63 97.6313 115.777L98.7363 115.998C100.006 116.27 100.935 116.684 101.524 117.239C102.114 117.794 102.408 118.537 102.408 119.466C102.408 120.565 101.995 121.444 101.167 122.101C100.351 122.747 99.2293 123.07 97.8013 123.07Z" fill="black"/>
<path d="M87.6966 122.9H85.1806V113.499H81.5936V111.17H91.2836V113.499H87.6966V122.9Z" fill="black"/>
<path d="M74.2076 123.053C72.5983 123.042 71.3459 122.6 70.4506 121.727C69.5553 120.843 69.1076 119.613 69.1076 118.038V111.17H71.6406V117.783C71.6406 118.712 71.8616 119.432 72.3036 119.942C72.7569 120.452 73.3973 120.713 74.2246 120.724C75.0519 120.701 75.6809 120.446 76.1116 119.959C76.5536 119.46 76.7746 118.746 76.7746 117.817V111.17H79.3076V118.004C79.3076 119.591 78.8599 120.826 77.9646 121.71C77.0693 122.594 75.8169 123.042 74.2076 123.053Z" fill="black"/>
<path d="M60.4373 123.07C58.6693 123.07 57.2073 122.503 56.0513 121.37C54.8953 120.237 54.3173 118.792 54.3173 117.035C54.3173 115.278 54.8953 113.833 56.0513 112.7C57.2073 111.567 58.6693 111 60.4373 111C62.194 111 63.6503 111.567 64.8063 112.7C65.9623 113.833 66.5403 115.278 66.5403 117.035C66.5403 118.792 65.9623 120.237 64.8063 121.37C63.6503 122.503 62.194 123.07 60.4373 123.07ZM60.4373 120.741C61.4573 120.741 62.2903 120.401 62.9363 119.721C63.5823 119.041 63.9053 118.146 63.9053 117.035C63.9053 115.924 63.5823 115.029 62.9363 114.349C62.2903 113.669 61.4573 113.329 60.4373 113.329C59.406 113.329 58.5673 113.669 57.9213 114.349C57.2753 115.029 56.9523 115.924 56.9523 117.035C56.9523 118.146 57.2753 119.041 57.9213 119.721C58.5673 120.401 59.406 120.741 60.4373 120.741Z" fill="black"/>
</svg>
