<svg width="240" height="128" viewBox="0 0 240 128" fill="none" xmlns="http://www.w3.org/2000/svg">
<path d="M180.153 75.3139C180.67 74.9868 181.322 74.8521 181.973 74.7944C183.401 74.7271 184.704 75.3139 185.94 76.0354C186.784 76.4971 187.694 76.3625 188.154 75.641C188.547 74.9195 188.346 74.0729 187.502 73.5535C185.94 72.5722 183.535 72.0528 182.299 72.0528C181.063 72.0528 180.086 72.3125 179.041 72.7743C177.153 73.6208 176.176 75.1888 176.176 77.3437C176.176 79.4985 177.22 80.8068 179.108 81.5283C180.018 81.8554 181.063 82.1151 182.04 82.4422C182.951 82.7693 183.928 83.029 184.838 83.4234C185.49 83.6832 185.816 84.27 185.816 84.9915C185.816 86.0978 185.097 86.8866 183.861 87.1463C181.715 87.5407 179.827 86.8866 178.131 85.5783C177.355 84.9915 176.435 85.1165 175.917 85.7707C175.4 86.4248 175.591 87.3387 176.435 87.9255C177.671 88.8394 179.041 89.4262 180.469 89.7533C182.491 90.1477 184.503 90.1477 186.391 89.1665C188.211 88.2526 189.055 86.6172 188.997 84.5971C188.93 82.6346 188.02 81.3263 186.324 80.6144C185.279 80.1623 184.177 79.893 183.133 79.5082C182.155 79.1811 181.12 78.9213 180.201 78.4596C178.964 77.8054 178.897 76.045 180.133 75.3235M165.884 77.8728C165.884 75.6506 164.974 73.9479 162.895 73.0436C162.176 72.7165 161.333 72.5241 160.556 72.4568C158.084 72.3895 155.679 72.3895 153.207 72.3895C152.296 72.3895 151.712 73.1109 151.712 74.0826V88.3296C151.712 89.3108 152.431 90.0323 153.341 89.9649C154.251 89.8976 154.836 89.2435 154.836 88.2622V84.3469C154.836 83.8852 154.97 83.7601 155.42 83.7601H158.084C158.477 83.7601 158.669 83.8948 158.927 84.2219C159.704 85.2031 160.422 86.117 161.208 87.0982C161.793 87.8774 162.377 88.6663 162.962 89.3878C163.546 90.1092 164.591 90.1766 165.242 89.6475C165.894 89.1184 165.961 88.2718 165.376 87.4926C165.309 87.358 165.185 87.1656 165.051 87.0309C164.073 85.7226 163.096 84.4816 162.061 83.1733C162.454 83.0386 162.713 82.9136 162.904 82.7789C164.926 81.7977 165.894 80.1046 165.894 77.8824M162.77 77.8151C162.837 78.9887 162.444 79.9026 161.409 80.4317C160.892 80.7587 160.173 80.8934 159.522 80.9511C158.084 81.0858 156.723 81.0185 155.353 81.0185C154.96 81.0185 154.836 80.8261 154.836 80.4317V78.0844C154.836 77.2956 154.836 76.5164 154.769 75.7372C154.769 75.3428 154.903 75.2177 155.286 75.2177C156.723 75.2177 158.218 75.1504 159.646 75.2177C160.096 75.2177 160.556 75.3524 160.949 75.4774C162.051 75.8045 162.703 76.5837 162.77 77.8343M146.767 6.84934C146.901 6.782 147.026 6.71466 147.16 6.65694C147.16 6.5896 147.093 6.52227 147.026 6.46455C146.767 6.53189 146.441 6.65694 146.183 6.72428C144.103 7.44577 141.947 8.16726 139.801 8.81179C138.431 9.27355 137.779 8.81179 137.463 7.44577C137.003 5.41598 136.619 3.39581 136.159 1.43336C136.092 0.981226 135.968 0.519473 135.834 0C135.642 0.192397 135.642 0.394414 135.575 0.586812C135.057 2.87634 134.598 5.15625 134.08 7.44577C133.754 8.87913 133.103 9.27355 131.675 8.81179C129.461 8.09992 127.248 7.37843 125.034 6.65694C124.843 6.65694 124.641 6.58961 124.45 6.52227C124.517 6.65694 124.641 6.782 124.708 6.84934C126.529 8.48472 128.35 10.1201 130.17 11.8132C131.148 12.7271 131.081 13.4486 130.17 14.3625C129.653 14.8819 129.068 15.411 128.474 15.9305C127.104 17.1715 125.81 18.3451 124.44 19.586C124.45 19.6053 124.45 19.6149 124.459 19.6245C124.641 19.5668 124.852 19.5091 125.025 19.4514C127.238 18.7299 129.452 18.018 131.665 17.2965C133.036 16.9021 133.678 17.2965 134.003 18.6722C134.396 20.4326 134.789 22.27 135.172 24.0304C135.307 24.6846 135.498 25.4061 135.632 26.1179C135.824 25.9832 135.824 25.7909 135.891 25.5985C136.409 23.3089 136.869 21.029 137.386 18.7395C137.712 17.2965 138.363 16.9117 139.724 17.3638C140.96 17.7583 142.129 18.1431 143.298 18.5375C144.535 18.9319 145.771 19.3263 147.007 19.7111C146.489 19.0569 145.905 18.5375 145.311 18.0084C144.008 16.8348 142.704 15.6611 141.411 14.4779C140.299 13.4293 140.299 12.7175 141.344 11.7362C141.411 11.6016 141.535 11.5438 141.602 11.4765C143.356 9.90846 145.052 8.40776 146.748 6.83972M124.45 19.6149C124.45 19.6149 124.392 19.6341 124.363 19.6438C124.459 19.6919 124.469 19.663 124.45 19.6149ZM131.263 86.2132C131.33 85.232 131.263 84.1834 131.263 83.2118C131.263 82.6025 131.544 82.2979 132.106 82.2979H138.68C139.59 82.2979 140.175 81.6438 140.107 80.7972C140.04 80.0757 139.456 79.5563 138.546 79.5563H131.905C131.387 79.5563 131.253 79.4216 131.253 78.9021C131.32 77.8535 131.32 76.8146 131.253 75.766C131.253 75.2466 131.387 75.0445 131.972 75.0445H139.782C140.625 75.0445 141.209 74.4577 141.209 73.6689C141.209 72.9474 140.625 72.3606 139.782 72.2933H130.218C128.656 72.2933 128.139 72.8127 128.139 74.3808V87.7716C128.139 89.1473 128.723 89.7341 130.094 89.7341H139.533C139.791 89.7341 140.05 89.7341 140.251 89.6667C140.903 89.5321 141.353 89.0126 141.353 88.3584C141.42 87.7043 140.96 87.1175 140.309 86.9828C140.05 86.9154 139.724 86.9155 139.465 86.9155H132.049C131.464 86.9155 131.263 86.7808 131.263 86.194M137.769 39.1528C132.691 34.3814 127.554 29.6773 122.476 24.9732C118.509 21.3176 114.599 17.6524 110.632 13.9969C109.788 13.2081 108.811 12.8906 107.7 13.083C105.879 13.3427 104.767 14.7857 104.767 16.6808V52.813C104.767 53.9289 105.16 54.8332 106.003 55.5547C107.105 56.4686 108.409 56.661 109.712 56.0165C111.015 55.4296 111.667 54.3137 111.667 52.8804V24.5306C111.858 24.6653 111.992 24.723 111.992 24.8577C113.363 26.0987 114.723 27.407 116.094 28.6479C121.297 33.4194 126.443 38.1812 131.646 42.9527C131.972 43.2124 132.096 43.4722 132.096 43.9339V52.8227C132.096 53.1497 132.097 53.5442 132.164 53.8712C132.614 55.5739 134.176 56.6802 135.805 56.4878C137.626 56.2954 138.996 54.9198 138.996 53.0247V41.9137C138.996 40.8075 138.546 39.8936 137.76 39.1721M104.892 72.2259C103.589 72.2259 103.004 72.8127 103.004 74.121V87.839C103.004 89.1473 103.589 89.7341 104.892 89.7341C106.971 89.7341 109.127 89.8014 111.207 89.7341C112.702 89.7341 114.139 89.4743 115.5 88.6855C118.173 87.1175 118.365 82.6154 115.365 81.1724C115.04 81.0377 114.647 80.8453 114.264 80.6529C114.455 80.5856 114.522 80.5279 114.656 80.3258C116.151 79.3446 116.803 77.9786 116.611 76.2085C116.42 74.5058 115.442 73.3995 113.88 72.7454C113.296 72.4857 112.644 72.2836 111.992 72.2836C109.587 72.2163 107.24 72.2163 104.901 72.2163M106.205 82.8655C106.205 82.4711 106.339 82.346 106.722 82.346C108.351 82.346 109.98 82.2787 111.6 82.346C112.117 82.346 112.644 82.4807 113.094 82.6731C114.005 83.0002 114.465 83.7217 114.465 84.7029C114.465 85.6841 113.947 86.4056 113.037 86.7231C112.452 86.9155 111.801 86.9154 111.149 87.0501H109.003C108.217 87.0501 107.508 86.9828 106.789 87.1175C106.396 87.1175 106.205 86.9828 106.205 86.5307V82.8751V82.8655ZM106.138 75.6795C106.138 75.2177 106.329 75.0926 106.722 75.0926C107.441 75.0926 108.092 75.0926 108.801 75.0253C109.712 75.0926 110.622 75.0253 111.533 75.285C113.094 75.4774 113.871 76.7857 113.353 78.1614C113.162 78.7482 112.769 79.1426 112.184 79.335C111.6 79.5274 111.015 79.7294 110.363 79.7294C109.127 79.7968 107.891 79.7294 106.722 79.7294C106.329 79.7294 106.138 79.5947 106.138 79.1426V75.6795ZM92.9233 87.8967C90.7769 83.0675 88.5633 78.2287 86.4168 73.3899C86.024 72.6011 85.4394 72.149 84.5291 72.149C83.6188 72.149 82.9671 72.5434 82.5743 73.3899L76.1348 87.8967C75.9432 88.1564 75.9432 88.5508 76.0007 88.8779C76.1348 89.4647 76.6523 89.8591 77.2368 89.9265C77.8884 90.0515 78.54 89.7341 78.7988 89.0799C79.2587 88.0987 79.7091 87.1175 80.102 86.1362C80.2936 85.7418 80.4949 85.6168 80.8877 85.6168H88.1704C88.5633 85.6168 88.755 85.6841 88.8891 86.0785C89.282 86.9924 89.7324 87.9736 90.1253 88.8875C90.384 89.5417 90.9014 89.9361 91.6201 89.9361C92.7317 89.9361 93.4408 88.8298 92.9233 87.9063M87.5188 82.75H81.5298C82.5072 80.4605 83.4846 78.2383 84.5195 75.8911C85.564 78.2383 86.5414 80.4605 87.5092 82.75M66.1595 87.9063V74.121C66.1595 73.8613 66.1595 73.5342 66.0924 73.2745C65.9008 72.6877 65.5079 72.3606 64.8563 72.2259C64.2717 72.1586 63.7543 72.2933 63.4285 72.8127C63.1697 73.2071 63.0356 73.6593 63.0356 74.121V84.0487C62.9685 84.0487 62.9014 84.0487 62.9685 84.1161C62.9014 83.9814 62.7769 83.9237 62.7098 83.789C60.1704 80.5856 57.6982 77.3244 55.2259 74.121C54.9001 73.6593 54.5743 73.1398 54.1239 72.7454C53.5394 72.0912 52.7536 72.0912 51.9774 72.351C51.3258 72.6107 51 73.0725 51 73.7843V88.4161C51 88.6759 51.1342 89.0703 51.3258 89.33C51.7187 89.9168 52.3703 90.1189 53.0219 89.8495C53.6735 89.5898 53.9993 89.0607 53.9993 88.3488V77.6323C54.3922 77.8247 54.5838 78.0844 54.7755 78.3538C57.5065 81.8843 60.18 85.4051 62.911 88.9356C63.5626 89.7822 64.3388 90.0419 65.1916 89.7244C65.8433 89.4647 66.1691 88.9356 66.1691 87.8967" fill="#1D1D1B"/>
<path d="M159.67 122.563V120.455H165.212V127H163.189V125.691C162.475 126.694 161.251 127.17 159.568 127.17C156.253 127.17 153.737 124.841 153.737 121.22C153.737 117.565 156.338 115.1 159.925 115.1C162.101 115.1 163.835 115.831 164.991 117.191L163.121 118.738C162.424 117.888 161.353 117.429 159.925 117.429C157.834 117.429 156.372 118.891 156.372 121.22C156.372 123.719 157.851 125.011 159.942 125.011C161.676 125.011 162.951 124.28 162.951 122.869V122.563H159.67Z" fill="black"/>
<path d="M143.015 127H140.533V115.27H143.372L148.217 122.699C148.37 122.92 148.489 123.141 148.608 123.362C148.591 123.141 148.591 122.92 148.591 122.699V115.27H151.073V127H148.217L143.389 119.605C143.253 119.384 143.117 119.18 142.998 118.942C143.015 119.18 143.015 119.384 143.015 119.605V127Z" fill="black"/>
<path d="M137.252 127H134.719V115.27H137.252V127Z" fill="black"/>
<path d="M128.745 127H126.229V117.599H122.642V115.27H132.332V117.599H128.745V127Z" fill="black"/>
<path d="M122.579 127H119.893L118.958 124.382H114.351L113.416 127H110.747L115.286 115.27H118.057L122.579 127ZM116.459 118.551L115.133 122.24H118.193L116.867 118.551C116.799 118.347 116.748 118.177 116.663 117.939C116.595 118.177 116.527 118.347 116.459 118.551Z" fill="black"/>
<path d="M107.137 123.243L109.5 127H106.559L104.434 123.498C104.094 122.903 103.958 122.835 103.346 122.835H101.731V127H99.1983V115.27H104.502C107.035 115.27 108.752 116.715 108.752 118.942C108.752 120.591 107.902 121.764 106.423 122.308C106.678 122.512 106.865 122.801 107.137 123.243ZM101.731 117.463V120.71H104.077C105.403 120.71 106.117 120.149 106.117 119.095C106.117 118.024 105.403 117.463 104.077 117.463H101.731Z" fill="black"/>
<path d="M88.4402 119.605L87.4202 121.05L85.9072 119.962L86.9442 118.619L85.3972 118.126L85.9582 116.358L87.5392 116.902L87.5222 115.27H89.3922L89.3752 116.885L90.9222 116.358L91.5002 118.126L89.9532 118.619L90.9902 119.962L89.4602 121.05L88.4402 119.605Z" fill="black"/>
<path d="M79.6393 119.316C81.9173 119.316 83.5153 120.829 83.5153 123.09C83.5153 125.521 81.7303 127.17 79.0613 127.17C76.9873 127.17 75.4063 126.405 74.5223 124.96L76.2053 123.532C76.9873 124.603 77.8203 125.062 78.8743 125.062C80.2003 125.062 80.9993 124.314 80.9993 123.107C80.9993 121.934 80.2513 121.203 79.0443 121.203C78.2113 121.203 77.5993 121.509 77.1233 122.138H74.8793L75.4403 115.27H82.7163V117.446H77.4633L77.2423 120.115C77.8713 119.571 78.6703 119.316 79.6393 119.316Z" fill="black"/>
</svg>
