<svg width="240" height="128" viewBox="0 0 240 128" fill="none" xmlns="http://www.w3.org/2000/svg">
<path d="M168.08 48.95C159.98 48.95 154.85 42.74 154.85 32.975C154.85 23.21 159.98 17 168.08 17C176.18 17 181.22 23.165 181.22 32.975C181.22 42.74 176.135 48.95 168.08 48.95ZM168.08 42.875C172.13 42.875 174.515 39.14 174.515 32.975C174.515 26.81 172.13 23.075 168.08 23.075C163.985 23.075 161.555 26.81 161.555 32.975C161.555 39.14 163.985 42.875 168.08 42.875Z" fill="black"/>
<path d="M137.802 48.95C129.702 48.95 124.572 42.74 124.572 32.975C124.572 23.21 129.702 17 137.802 17C145.902 17 150.942 23.165 150.942 32.975C150.942 42.74 145.857 48.95 137.802 48.95ZM137.802 42.875C141.852 42.875 144.237 39.14 144.237 32.975C144.237 26.81 141.852 23.075 137.802 23.075C133.707 23.075 131.277 26.81 131.277 32.975C131.277 39.14 133.707 42.875 137.802 42.875Z" fill="black"/>
<path d="M110.536 28.475C116.836 28.475 120.931 32.48 120.931 38.465C120.931 44.945 116.071 48.95 108.961 48.95C101.131 48.95 96.2711 43.46 96.2711 34.28C96.2711 23.3 101.356 17 110.266 17C114.631 17 118.141 18.35 120.571 20.915L116.386 25.1C114.586 23.3 112.651 22.49 110.176 22.49C105.586 22.49 102.796 26.135 102.796 32.39V32.525C104.191 30.05 107.161 28.475 110.536 28.475ZM109.006 43.865C112.336 43.865 114.406 41.795 114.406 38.78C114.406 35.765 112.336 33.695 109.006 33.695C105.721 33.695 103.651 35.765 103.651 38.78C103.651 41.795 105.721 43.865 109.006 43.865Z" fill="black"/>
<path d="M89.6308 40.85C92.3308 40.85 93.9058 42.92 93.9058 45.8C93.9058 48.545 92.0608 51.515 90.3058 53.36H86.2558C87.8758 51.56 88.8208 50.12 89.2258 48.86C87.2008 48.635 85.5808 47.06 85.5808 44.855C85.5808 42.605 87.2458 40.85 89.6308 40.85Z" fill="black"/>
<path d="M72.4795 28.475C78.7795 28.475 82.8745 32.48 82.8745 38.465C82.8745 44.945 78.0145 48.95 70.9045 48.95C63.0745 48.95 58.2145 43.46 58.2145 34.28C58.2145 23.3 63.2995 17 72.2095 17C76.5745 17 80.0845 18.35 82.5145 20.915L78.3295 25.1C76.5295 23.3 74.5945 22.49 72.1195 22.49C67.5295 22.49 64.7395 26.135 64.7395 32.39V32.525C66.1345 30.05 69.1045 28.475 72.4795 28.475ZM70.9495 43.865C74.2795 43.865 76.3495 41.795 76.3495 38.78C76.3495 35.765 74.2795 33.695 70.9495 33.695C67.6645 33.695 65.5945 35.765 65.5945 38.78C65.5945 41.795 67.6645 43.865 70.9495 43.865Z" fill="black"/>
<path d="M192.541 111.5H184.041V99.77H192.456V101.997H186.574V104.445H191.538V106.672H186.574V109.273H192.541V111.5Z" fill="black"/>
<path d="M176.812 111.67C173.31 111.67 170.726 109.171 170.726 105.618C170.726 102.082 173.31 99.6 176.812 99.6C178.699 99.6 180.382 100.348 181.521 101.691L179.651 103.238C178.988 102.422 177.917 101.929 176.812 101.929C174.806 101.929 173.361 103.408 173.361 105.618C173.361 107.879 174.772 109.341 176.812 109.341C178.104 109.341 178.954 108.899 179.821 107.93L181.657 109.494C180.552 110.888 178.886 111.67 176.812 111.67Z" fill="black"/>
<path d="M169.743 111.5H167.057L166.122 108.882H161.515L160.58 111.5H157.911L162.45 99.77H165.221L169.743 111.5ZM163.623 103.051L162.297 106.74H165.357L164.031 103.051C163.963 102.847 163.912 102.677 163.827 102.439C163.759 102.677 163.691 102.847 163.623 103.051Z" fill="black"/>
<path d="M152.768 99.77C155.59 99.77 157.358 101.3 157.358 103.731C157.358 106.23 155.522 107.845 152.7 107.845H150.439V111.5H147.906V99.77H152.768ZM150.439 105.601H152.496C153.873 105.601 154.723 104.904 154.723 103.816C154.723 102.677 153.907 102.014 152.53 102.014H150.439V105.601Z" fill="black"/>
<path d="M140.579 111.67C138.607 111.67 136.788 110.99 135.734 109.766L137.366 108.1C138.267 109.12 139.355 109.545 140.63 109.545C141.973 109.545 142.67 109.069 142.67 108.219C142.67 107.471 142.177 107.114 140.868 106.808L139.763 106.57C137.281 106.043 136.108 105.023 136.108 103.187C136.108 100.977 137.808 99.6 140.664 99.6C142.432 99.6 143.877 100.195 145.016 101.317L143.418 102.983C142.551 101.997 141.667 101.708 140.477 101.708C139.304 101.708 138.607 102.201 138.607 103.017C138.607 103.748 139.168 104.088 140.409 104.377L141.514 104.598C144.047 105.142 145.186 106.196 145.186 108.066C145.186 110.242 143.452 111.67 140.579 111.67Z" fill="black"/>
<path d="M128.655 111.5H120.155V99.77H128.57V101.997H122.688V104.445H127.652V106.672H122.688V109.273H128.655V111.5Z" fill="black"/>
<path d="M112.926 111.67C109.424 111.67 106.84 109.171 106.84 105.618C106.84 102.082 109.424 99.6 112.926 99.6C114.813 99.6 116.496 100.348 117.635 101.691L115.765 103.238C115.102 102.422 114.031 101.929 112.926 101.929C110.92 101.929 109.475 103.408 109.475 105.618C109.475 107.879 110.886 109.341 112.926 109.341C114.218 109.341 115.068 108.899 115.935 107.93L117.771 109.494C116.666 110.888 115 111.67 112.926 111.67Z" fill="black"/>
<path d="M105.857 111.5H103.171L102.236 108.882H97.6291L96.6941 111.5H94.0251L98.5641 99.77H101.335L105.857 111.5ZM99.7371 103.051L98.4111 106.74H101.471L100.145 103.051C100.077 102.847 100.026 102.677 99.9411 102.439C99.8731 102.677 99.8051 102.847 99.7371 103.051Z" fill="black"/>
<path d="M90.415 107.743L92.778 111.5H89.837L87.712 107.998C87.372 107.403 87.236 107.335 86.624 107.335H85.009V111.5H82.476V99.77H87.78C90.313 99.77 92.03 101.215 92.03 103.442C92.03 105.091 91.18 106.264 89.701 106.808C89.956 107.012 90.143 107.301 90.415 107.743ZM85.009 101.963V105.21H87.355C88.681 105.21 89.395 104.649 89.395 103.595C89.395 102.524 88.681 101.963 87.355 101.963H85.009Z" fill="black"/>
<path d="M77.8277 107.743L80.1907 111.5H77.2497L75.1247 107.998C74.7847 107.403 74.6487 107.335 74.0367 107.335H72.4217V111.5H69.8887V99.77H75.1927C77.7257 99.77 79.4427 101.215 79.4427 103.442C79.4427 105.091 78.5927 106.264 77.1137 106.808C77.3687 107.012 77.5557 107.301 77.8277 107.743ZM72.4217 101.963V105.21H74.7677C76.0937 105.21 76.8077 104.649 76.8077 103.595C76.8077 102.524 76.0937 101.963 74.7677 101.963H72.4217Z" fill="black"/>
<path d="M67.1959 111.5H58.6959V99.77H67.1109V101.997H61.2289V104.445H66.1929V106.672H61.2289V109.273H67.1959V111.5Z" fill="black"/>
<path d="M52.7222 111.5H50.2062V102.099H46.6192V99.77H56.3092V102.099H52.7222V111.5Z" fill="black"/>
<path d="M207.375 85.743L209.738 89.5H206.797L204.672 85.998C204.332 85.403 204.196 85.335 203.584 85.335H201.969V89.5H199.436V77.77H204.74C207.273 77.77 208.99 79.215 208.99 81.442C208.99 83.091 208.14 84.264 206.661 84.808C206.916 85.012 207.103 85.301 207.375 85.743ZM201.969 79.963V83.21H204.315C205.641 83.21 206.355 82.649 206.355 81.595C206.355 80.524 205.641 79.963 204.315 79.963H201.969Z" fill="black"/>
<path d="M190.663 89.67C187.127 89.67 184.543 87.154 184.543 83.635C184.543 80.116 187.127 77.6 190.663 77.6C194.165 77.6 196.766 80.116 196.766 83.635C196.766 87.154 194.165 89.67 190.663 89.67ZM190.663 87.341C192.686 87.341 194.131 85.862 194.131 83.635C194.131 81.391 192.686 79.929 190.663 79.929C188.623 79.929 187.178 81.408 187.178 83.635C187.178 85.879 188.623 87.341 190.663 87.341Z" fill="black"/>
<path d="M176.267 89.67C172.731 89.67 170.147 87.154 170.147 83.635C170.147 80.116 172.731 77.6 176.267 77.6C179.769 77.6 182.37 80.116 182.37 83.635C182.37 87.154 179.769 89.67 176.267 89.67ZM176.267 87.341C178.29 87.341 179.735 85.862 179.735 83.635C179.735 81.391 178.29 79.929 176.267 79.929C174.227 79.929 172.782 81.408 172.782 83.635C172.782 85.879 174.227 87.341 176.267 87.341Z" fill="black"/>
<path d="M161.596 89.5H157.108V77.77H161.596C165.132 77.77 167.971 79.895 167.971 83.618C167.971 87.341 165.115 89.5 161.596 89.5ZM159.641 80.099V87.171H161.46C163.653 87.171 165.336 86.015 165.336 83.618C165.336 81.238 163.67 80.099 161.46 80.099H159.641Z" fill="black"/>
<path d="M151.135 89.5H148.619V80.099H145.032V77.77H154.722V80.099H151.135V89.5Z" fill="black"/>
<path d="M137.646 89.653C134.433 89.636 132.546 87.783 132.546 84.638V77.77H135.079V84.383C135.079 86.236 135.997 87.29 137.663 87.324C139.312 87.29 140.213 86.27 140.213 84.417V77.77H142.746V84.604C142.746 87.783 140.876 89.636 137.646 89.653Z" fill="black"/>
<path d="M123.875 89.67C120.339 89.67 117.755 87.154 117.755 83.635C117.755 80.116 120.339 77.6 123.875 77.6C127.377 77.6 129.978 80.116 129.978 83.635C129.978 87.154 127.377 89.67 123.875 89.67ZM123.875 87.341C125.898 87.341 127.343 85.862 127.343 83.635C127.343 81.391 125.898 79.929 123.875 79.929C121.835 79.929 120.39 81.408 120.39 83.635C120.39 85.879 121.835 87.341 123.875 87.341Z" fill="black"/>
<path d="M105.304 89.5H102.771V77.77H110.761V80.099H105.304V82.768H109.979V85.08H105.304V89.5Z" fill="black"/>
<path d="M93.9992 89.67C90.4632 89.67 87.8792 87.154 87.8792 83.635C87.8792 80.116 90.4632 77.6 93.9992 77.6C97.5012 77.6 100.102 80.116 100.102 83.635C100.102 87.154 97.5012 89.67 93.9992 89.67ZM93.9992 87.341C96.0222 87.341 97.4672 85.862 97.4672 83.635C97.4672 81.391 96.0222 79.929 93.9992 79.929C91.9592 79.929 90.5142 81.408 90.5142 83.635C90.5142 85.879 91.9592 87.341 93.9992 87.341Z" fill="black"/>
<path d="M77.4004 89.5H74.8844V80.099H71.2974V77.77H80.9874V80.099H77.4004V89.5Z" fill="black"/>
<path d="M64.1027 89.5H61.5697V77.77H69.5597V80.099H64.1027V82.768H68.7777V85.08H64.1027V89.5Z" fill="black"/>
<path d="M53.8004 83.635C53.8004 85.267 53.2394 86.678 52.2874 87.732C52.6104 88.361 52.8824 89.075 53.1204 89.925L50.8424 90.503C50.7234 89.942 50.5874 89.5 50.4514 89.092C49.6354 89.466 48.7004 89.67 47.6974 89.67C44.1614 89.67 41.5774 87.154 41.5774 83.635C41.5774 80.116 44.1614 77.6 47.6974 77.6C51.1994 77.6 53.8004 80.116 53.8004 83.635ZM47.6974 79.929C45.6574 79.929 44.2124 81.374 44.2124 83.737C44.2124 84.553 44.3654 85.25 44.6544 85.845C45.3684 85.012 46.3884 84.468 47.6974 84.468C48.9894 84.468 49.9414 84.91 50.7574 85.76C51.0294 85.199 51.1654 84.519 51.1654 83.737C51.1654 81.357 49.7204 79.929 47.6974 79.929ZM45.7764 87.12C46.3034 87.443 46.9664 87.63 47.6974 87.63C48.4114 87.63 49.0404 87.46 49.5504 87.137C49.1084 86.559 48.4624 86.27 47.7144 86.27C46.8814 86.27 46.3204 86.559 45.7764 87.12Z" fill="black"/>
<path d="M34.845 89.67C32.873 89.67 31.054 88.99 30 87.766L31.632 86.1C32.533 87.12 33.621 87.545 34.896 87.545C36.239 87.545 36.936 87.069 36.936 86.219C36.936 85.471 36.443 85.114 35.134 84.808L34.029 84.57C31.547 84.043 30.374 83.023 30.374 81.187C30.374 78.977 32.074 77.6 34.93 77.6C36.698 77.6 38.143 78.195 39.282 79.317L37.684 80.983C36.817 79.997 35.933 79.708 34.743 79.708C33.57 79.708 32.873 80.201 32.873 81.017C32.873 81.748 33.434 82.088 34.675 82.377L35.78 82.598C38.313 83.142 39.452 84.196 39.452 86.066C39.452 88.242 37.718 89.67 34.845 89.67Z" fill="black"/>
</svg>
