<svg width="240" height="128" viewBox="0 0 240 128" fill="none" xmlns="http://www.w3.org/2000/svg">
<path d="M213.194 59.95C203.834 59.95 196.994 53.29 196.994 43.975C196.994 34.66 203.834 28 213.194 28C222.464 28 229.349 34.66 229.349 43.975C229.349 53.29 222.464 59.95 213.194 59.95ZM213.194 53.785C218.549 53.785 222.374 49.87 222.374 43.975C222.374 38.035 218.549 34.165 213.194 34.165C207.794 34.165 203.969 38.08 203.969 43.975C203.969 49.915 207.794 53.785 213.194 53.785Z" fill="black"/>
<path d="M188.954 49.555L195.209 59.5H187.424L181.799 50.23C180.899 48.655 180.539 48.475 178.919 48.475H174.644V59.5H167.939V28.45H181.979C188.684 28.45 193.229 32.275 193.229 38.17C193.229 42.535 190.979 45.64 187.064 47.08C187.739 47.62 188.234 48.385 188.954 49.555ZM174.644 34.255V42.85H180.854C184.364 42.85 186.254 41.365 186.254 38.575C186.254 35.74 184.364 34.255 180.854 34.255H174.644Z" fill="black"/>
<path d="M163.062 59.5H140.562V28.45H162.837V34.345H147.267V40.825H160.407V46.72H147.267V53.605H163.062V59.5Z" fill="black"/>
<path d="M135.569 59.5H109.064V54.775L125.804 34.615H109.559V28.45H135.479V33.535L119.054 53.335H135.569V59.5Z" fill="black"/>
<path d="M85.6461 59.5H78.9861V34.615H69.4911V28.45H95.1411V34.615H85.6461V59.5Z" fill="black"/>
<path d="M66.7773 59.5H44.2773V28.45H66.5523V34.345H50.9823V40.825H64.1223V46.72H50.9823V53.605H66.7773V59.5Z" fill="black"/>
<path d="M16.57 59.5H10V28.45H17.515L30.34 48.115C30.745 48.7 31.06 49.285 31.375 49.87C31.33 49.285 31.33 48.7 31.33 48.115V28.45H37.9V59.5H30.34L17.56 39.925C17.2 39.34 16.84 38.8 16.525 38.17C16.57 38.8 16.57 39.34 16.57 39.925V59.5Z" fill="black"/>
<path d="M197.905 96.063V93.955H203.447V100.5H201.424V99.191C200.71 100.194 199.486 100.67 197.803 100.67C194.488 100.67 191.972 98.341 191.972 94.72C191.972 91.065 194.573 88.6 198.16 88.6C200.336 88.6 202.07 89.331 203.226 90.691L201.356 92.238C200.659 91.388 199.588 90.929 198.16 90.929C196.069 90.929 194.607 92.391 194.607 94.72C194.607 97.219 196.086 98.511 198.177 98.511C199.911 98.511 201.186 97.78 201.186 96.369V96.063H197.905Z" fill="black"/>
<path d="M181.25 100.5H178.768V88.77H181.607L186.452 96.199C186.605 96.42 186.724 96.641 186.843 96.862C186.826 96.641 186.826 96.42 186.826 96.199V88.77H189.308V100.5H186.452L181.624 93.105C181.488 92.884 181.352 92.68 181.233 92.442C181.25 92.68 181.25 92.884 181.25 93.105V100.5Z" fill="black"/>
<path d="M175.487 100.5H172.954V88.77H175.487V100.5Z" fill="black"/>
<path d="M163.908 100.5H159.42V88.77H163.908C167.444 88.77 170.283 90.895 170.283 94.618C170.283 98.341 167.427 100.5 163.908 100.5ZM161.953 91.099V98.171H163.772C165.965 98.171 167.648 97.015 167.648 94.618C167.648 92.238 165.982 91.099 163.772 91.099H161.953Z" fill="black"/>
<path d="M156.995 100.5H149.107V88.77H151.64V98.171H156.995V100.5Z" fill="black"/>
<path d="M145.827 100.5H143.294V88.77H145.827V100.5Z" fill="black"/>
<path d="M135.024 100.653C131.811 100.636 129.924 98.783 129.924 95.638V88.77H132.457V95.383C132.457 97.236 133.375 98.29 135.041 98.324C136.69 98.29 137.591 97.27 137.591 95.417V88.77H140.124V95.604C140.124 98.783 138.254 100.636 135.024 100.653Z" fill="black"/>
<path d="M123.104 100.5H117.97V88.77H122.849C125.331 88.77 126.793 89.892 126.793 91.762C126.793 93.003 126.164 93.904 124.923 94.38C126.47 94.72 127.252 95.689 127.252 97.185C127.252 99.276 125.722 100.5 123.104 100.5ZM120.503 90.827V93.513H122.594C123.665 93.513 124.26 93.037 124.26 92.17C124.26 91.303 123.665 90.827 122.594 90.827H120.503ZM120.503 95.57V98.443H122.798C123.971 98.443 124.617 97.916 124.617 96.998C124.617 96.08 123.988 95.57 122.832 95.57H120.503Z" fill="black"/>
<path d="M101.552 100.5H99.0703V88.77H101.909L106.754 96.199C106.907 96.42 107.026 96.641 107.145 96.862C107.128 96.641 107.128 96.42 107.128 96.199V88.77H109.61V100.5H106.754L101.926 93.105C101.79 92.884 101.654 92.68 101.535 92.442C101.552 92.68 101.552 92.884 101.552 93.105V100.5Z" fill="black"/>
<path d="M90.298 100.67C86.762 100.67 84.178 98.154 84.178 94.635C84.178 91.116 86.762 88.6 90.298 88.6C93.8 88.6 96.401 91.116 96.401 94.635C96.401 98.154 93.8 100.67 90.298 100.67ZM90.298 98.341C92.321 98.341 93.766 96.862 93.766 94.635C93.766 92.391 92.321 90.929 90.298 90.929C88.258 90.929 86.813 92.408 86.813 94.635C86.813 96.879 88.258 98.341 90.298 98.341Z" fill="black"/>
<path d="M77.851 100.5H72.717V88.77H77.596C80.078 88.77 81.54 89.892 81.54 91.762C81.54 93.003 80.911 93.904 79.67 94.38C81.217 94.72 81.999 95.689 81.999 97.185C81.999 99.276 80.469 100.5 77.851 100.5ZM75.25 90.827V93.513H77.341C78.412 93.513 79.007 93.037 79.007 92.17C79.007 91.303 78.412 90.827 77.341 90.827H75.25ZM75.25 95.57V98.443H77.545C78.718 98.443 79.364 97.916 79.364 96.998C79.364 96.08 78.735 95.57 77.579 95.57H75.25Z" fill="black"/>
<path d="M68.0687 96.743L70.4317 100.5H67.4907L65.3657 96.998C65.0257 96.403 64.8897 96.335 64.2777 96.335H62.6627V100.5H60.1297V88.77H65.4337C67.9667 88.77 69.6837 90.215 69.6837 92.442C69.6837 94.091 68.8337 95.264 67.3547 95.808C67.6097 96.012 67.7967 96.301 68.0687 96.743ZM62.6627 90.963V94.21H65.0087C66.3347 94.21 67.0487 93.649 67.0487 92.595C67.0487 91.524 66.3347 90.963 65.0087 90.963H62.6627Z" fill="black"/>
<path d="M57.9543 100.5H55.2683L54.3333 97.882H49.7263L48.7913 100.5H46.1223L50.6613 88.77H53.4323L57.9543 100.5ZM51.8343 92.051L50.5083 95.74H53.5683L52.2423 92.051C52.1743 91.847 52.1233 91.677 52.0383 91.439C51.9703 91.677 51.9023 91.847 51.8343 92.051Z" fill="black"/>
<path d="M40.0974 100.67C36.5954 100.67 34.0114 98.171 34.0114 94.618C34.0114 91.082 36.5954 88.6 40.0974 88.6C41.9844 88.6 43.6674 89.348 44.8064 90.691L42.9364 92.238C42.2734 91.422 41.2024 90.929 40.0974 90.929C38.0914 90.929 36.6464 92.408 36.6464 94.618C36.6464 96.879 38.0574 98.341 40.0974 98.341C41.3894 98.341 42.2394 97.899 43.1064 96.93L44.9424 98.494C43.8374 99.888 42.1714 100.67 40.0974 100.67Z" fill="black"/>
</svg>
