<?xml version="1.0" standalone="no"?>
<!DOCTYPE svg PUBLIC "-//W3C//DTD SVG 1.1//EN" "http://www.w3.org/Graphics/SVG/1.1/DTD/svg11.dtd" >
<svg xmlns="http://www.w3.org/2000/svg" xmlns:xlink="http://www.w3.org/1999/xlink" version="1.1">
<metadata>
Created by FontForge 20201107 at Tue Aug 20 13:41:39 2024
 By 
Copyright (c) 2019 by Sibylle Hagmann. All rights reserved.
</metadata>
<defs>
<font id="Utile-Medium" horiz-adv-x="1126" >
  <font-face 
    font-family="Utile Medium"
    font-weight="500"
    font-stretch="normal"
    units-per-em="2048"
    panose-1="2 11 6 3 3 5 4 2 2 4"
    ascent="1638"
    descent="-410"
    x-height="973"
    cap-height="1352"
    bbox="-303 -512 2591 2300"
    underline-thickness="30"
    underline-position="-102"
    unicode-range="U+000D-FB04"
  />
<missing-glyph horiz-adv-x="907" 
 />
    <glyph glyph-name="ff" unicode="ff" horiz-adv-x="1363" 
d="M61 973h160v117q0 121 83.5 196.5t217.5 75.5q91 0 166 -35v-166q-70 51 -141 51q-63 0 -102 -40t-39 -107v-92h497v117q0 121 83.5 196.5t217.5 75.5q91 0 166 -35v-166q-70 51 -141 51q-64 0 -103 -40t-39 -107v-92h273v-148h-273v-538q0 -155 21 -287h-205v825h-497
v-538q0 -161 20 -287h-205v825h-160v148z" />
    <glyph glyph-name="fi" unicode="fi" horiz-adv-x="1157" 
d="M920 1376q51 0 84.5 -33t33.5 -83q0 -47 -34.5 -81t-83.5 -34q-51 0 -85 33.5t-34 81.5q0 50 34 83t85 33zM61 973h160v117q0 121 83.5 196.5t217.5 75.5q91 0 166 -35v-166q-70 51 -141 51q-63 0 -102 -40t-39 -107v-92h272v-148h-272v-538q0 -161 20 -287h-205v825
h-160v148zM809 973h203v-686q0 -152 18 -287h-203v686q0 173 -18 287z" />
    <glyph glyph-name="fl" unicode="fl" horiz-adv-x="1163" 
d="M61 973h160v117q0 121 83.5 196.5t217.5 75.5q91 0 166 -35v-166q-70 51 -141 51q-63 0 -102 -40t-39 -107v-92h272v-148h-272v-538q0 -161 20 -287h-205v825h-160v148zM1036 0h-202v973q0 157 -19 379h203v-1065q0 -121 18 -287z" />
    <glyph glyph-name="ffi" unicode="ffi" horiz-adv-x="1839" 
d="M1602 1376q51 0 84.5 -33t33.5 -83q0 -47 -34.5 -81t-83.5 -34q-51 0 -85 33.5t-34 81.5q0 50 34 83t85 33zM61 973h160v117q0 121 83.5 196.5t217.5 75.5q91 0 166 -35v-166q-70 51 -141 51q-63 0 -102 -40t-39 -107v-92h464v117q0 121 83.5 196.5t217.5 75.5
q91 0 166 -35v-166q-70 51 -141 51q-63 0 -102 -40t-39 -107v-92h272v-148h-272v-538q0 -161 20 -287h-205v825h-464v-538q0 -161 20 -287h-205v825h-160v148zM1491 973h203v-686q0 -152 18 -287h-203v686q0 173 -18 287z" />
    <glyph glyph-name="ffl" unicode="ffl" horiz-adv-x="1851" 
d="M61 973h160v117q0 121 83.5 196.5t217.5 75.5q91 0 166 -35v-166q-70 51 -141 51q-63 0 -102 -40t-39 -107v-92h466v117q0 121 84 196.5t218 75.5q90 0 165 -35v-166q-70 51 -141 51q-63 0 -102 -40t-39 -107v-92h272v-148h-272v-538q0 -161 20 -287h-205v825h-466v-538
q0 -161 20 -287h-205v825h-160v148zM1724 0h-202v973q0 157 -19 379h203v-1065q0 -121 18 -287z" />
    <glyph glyph-name="ft" unicode="ft" horiz-adv-x="1464" 
d="M61 973h160v117q0 121 83.5 196.5t217.5 75.5q91 0 166 -35v-166q-70 51 -141 51q-63 0 -102 -40t-39 -107v-92h487q41 29 59.5 95t26.5 187h117v-282h315v-148h-315v-512q0 -182 147 -182q102 0 176 86v-174q-31 -28 -90 -45.5t-123 -17.5q-136 0 -215.5 80.5
t-79.5 226.5v538h-505v-538q0 -161 20 -287h-205v825h-160v148z" />
    <glyph glyph-name=".notdef" horiz-adv-x="907" 
 />
    <glyph glyph-name=".null" horiz-adv-x="0" 
 />
    <glyph glyph-name="nonmarkingreturn" horiz-adv-x="682" 
 />
    <glyph glyph-name="NULL" horiz-adv-x="0" 
 />
    <glyph glyph-name="NULL" horiz-adv-x="0" 
 />
    <glyph glyph-name="CR" unicode="&#xd;" horiz-adv-x="391" 
 />
    <glyph glyph-name="space" unicode=" " horiz-adv-x="378" 
 />
    <glyph glyph-name="exclam" unicode="!" horiz-adv-x="552" 
d="M350 414h-147l-23 938h195zM160 96q0 48 33.5 82.5t82.5 34.5q47 0 82 -35t35 -82q0 -49 -33.5 -82.5t-83.5 -33.5t-83 33t-33 83z" />
    <glyph glyph-name="quotedbl" unicode="&#x22;" horiz-adv-x="747" 
d="M133 834l-33 518h179l-35 -518h-111zM504 834l-33 518h178l-35 -518h-110z" />
    <glyph glyph-name="numbersign" unicode="#" horiz-adv-x="1024" 
d="M20 492h199l66 354h-179v117h199l72 389h139l-72 -389h236l72 389h139l-72 -389h180v-117h-200l-66 -354h182v-117h-202l-70 -375h-139l69 375h-235l-70 -375h-139l70 375h-179v117zM358 492h236l65 354h-235z" />
    <glyph glyph-name="dollar" unicode="$" horiz-adv-x="1103" 
d="M109 109v213q78 -76 194 -122t232 -46q135 0 212.5 59t77.5 160q0 96 -74.5 152.5t-218.5 68.5q-192 17 -302.5 118.5t-110.5 262.5q0 162 112 270t291 125v264h113v-264q191 -16 323 -117v-204q-67 69 -164 108t-200 41q-131 -2 -208 -58.5t-77 -158.5q0 -95 72 -147.5
t231 -67.5q410 -46 410 -377q0 -166 -103.5 -272t-283.5 -131v-267h-113v261q-117 2 -225.5 35.5t-187.5 93.5z" />
    <glyph glyph-name="percent" unicode="%" horiz-adv-x="1675" 
d="M1282 1397l-756 -1428h-118l755 1428h119zM362 1364q148 0 227 -106.5t79 -305.5t-79 -306t-227 -107t-226.5 106.5t-78.5 306.5q0 198 79 305t226 107zM362 1241q-86 0 -126.5 -71t-40.5 -218q0 -307 167 -307q170 0 170 307q0 147 -42 218t-128 71zM1313 813
q148 0 226.5 -106t78.5 -306q0 -201 -78.5 -307t-226.5 -106t-226.5 106.5t-78.5 306.5q0 198 79 305t226 107zM1313 690q-86 0 -127 -71t-41 -218q0 -307 168 -307q170 0 170 307q0 147 -42 218t-128 71z" />
    <glyph glyph-name="ampersand" unicode="&#x26;" horiz-adv-x="1296" 
d="M1094 0l-140 141q-188 -161 -409 -161q-197 0 -324 103t-127 263q0 111 64 199t217 186q-118 123 -157.5 193.5t-39.5 154.5q0 129 99 212t253 83q152 0 252.5 -83t100.5 -208q0 -98 -68.5 -193t-196.5 -179l324 -336q88 144 100 307h175q-9 -235 -158 -428l244 -254
h-209zM352 1073q0 -57 26 -98.5t136 -157.5q105 69 153 130.5t48 125.5q0 71 -51 117.5t-129 46.5t-130.5 -47t-52.5 -117zM281 352q0 -97 78.5 -162t195.5 -65q154 0 289 129l-365 371q-106 -71 -152 -135t-46 -138z" />
    <glyph glyph-name="quotesingle" unicode="'" horiz-adv-x="376" 
d="M133 834l-33 518h179l-35 -518h-111z" />
    <glyph glyph-name="parenleft" unicode="(" horiz-adv-x="573" 
d="M279 616q0 -267 81 -505.5t234 -421.5h-170q-160 177 -247 419t-87 508t87 507.5t247 418.5h170q-152 -185 -233.5 -423.5t-81.5 -502.5z" />
    <glyph glyph-name="parenright" unicode=")" horiz-adv-x="573" 
d="M-20 1542h170q159 -177 246 -418.5t87 -507.5t-87 -508t-246 -419h-170q153 183 234 421.5t81 505.5q0 264 -81.5 502.5t-233.5 423.5z" />
    <glyph glyph-name="asterisk" unicode="*" horiz-adv-x="1007" 
d="M432 492l19 337l-283 -184l-72 123l303 154l-303 153l72 123l283 -184l-19 338h143l-18 -338l283 184l71 -123l-303 -153l303 -154l-71 -123l-283 184l18 -337h-143z" />
    <glyph glyph-name="plus" unicode="+" horiz-adv-x="1024" 
d="M428 991h170v-387h367v-151h-367v-387h-170v387h-369v151h369v387z" />
    <glyph glyph-name="comma" unicode="," horiz-adv-x="491" 
d="M385 211l-170 -506h-111l76 506h205z" />
    <glyph glyph-name="hyphen" unicode="-" horiz-adv-x="702" 
d="M623 438h-543v150h543v-150z" />
    <glyph glyph-name="period" unicode="." horiz-adv-x="491" 
d="M129 106q0 48 34 82.5t83 34.5q47 0 81.5 -35t34.5 -82q0 -50 -33 -83t-83 -33t-83.5 33.5t-33.5 82.5z" />
    <glyph glyph-name="slash" unicode="/" horiz-adv-x="647" 
d="M506 1393h160l-523 -1434h-161z" />
    <glyph glyph-name="zero" unicode="0" horiz-adv-x="1056" 
d="M528 1372q214 0 328.5 -184.5t114.5 -511.5t-114.5 -511.5t-328.5 -184.5q-213 0 -327.5 184.5t-114.5 511.5t114.5 511.5t327.5 184.5zM528 1212q-124 0 -184.5 -137.5t-60.5 -388.5q0 -253 61 -399t184 -146q84 0 140.5 69.5t82 189.5t25.5 286q0 251 -61 388.5
t-187 137.5z" />
    <glyph glyph-name="one" unicode="1" horiz-adv-x="778" 
d="M432 1352h164v-1065q0 -158 18 -287h-202v1151l-320 -203h-14v187z" />
    <glyph glyph-name="two" unicode="2" horiz-adv-x="1052" 
d="M123 1012v219q167 141 389 141q197 0 316.5 -115t119.5 -299q0 -102 -30.5 -191.5t-98.5 -178.5t-157.5 -172t-225.5 -187l-61 -47v-10h579v-172h-852v162l121 92q279 212 404 375t125 319q0 116 -72 188t-191 72q-202 0 -366 -196z" />
    <glyph glyph-name="three" unicode="3" horiz-adv-x="997" 
d="M709 367q0 107 -74.5 174t-188.5 67h-92v154h88q107 0 177.5 65.5t70.5 169.5q0 100 -67 161t-172 61q-95 0 -181 -52t-155 -143v217q152 131 352 131q174 0 289.5 -99t115.5 -263q0 -122 -68 -209t-183 -113v-4q126 -27 202 -118t76 -220q0 -116 -60 -201t-153.5 -125
t-206.5 -40q-99 0 -195.5 33t-174.5 96v217q151 -191 348 -191q111 0 181.5 64t70.5 168z" />
    <glyph glyph-name="four" unicode="4" horiz-adv-x="1060" 
d="M807 0h-180v346h-586v223l590 783h176v-844h207v-162h-207v-346zM627 1090l-443 -582h443v582z" />
    <glyph glyph-name="five" unicode="5" horiz-adv-x="1073" 
d="M508 133q140 0 218.5 89.5t78.5 209.5q0 114 -74.5 196.5t-204.5 82.5q-141 0 -241 -103l-131 62v682h753v-170h-583v-387q101 69 239 69q193 0 307.5 -121.5t114.5 -316.5q0 -107 -37.5 -193.5t-101.5 -140.5t-146.5 -83t-175.5 -29q-103 0 -209.5 33.5t-193.5 97.5v211
q72 -89 179 -139t208 -50z" />
    <glyph glyph-name="six" unicode="6" horiz-adv-x="1101" 
d="M680 1223q-187 0 -296.5 -156t-109.5 -412h21q48 92 135.5 145.5t198.5 53.5q174 0 288.5 -122.5t114.5 -307.5q0 -194 -123 -319t-315 -125q-237 0 -371.5 184t-134.5 504q0 324 158 514t428 190q109 0 233 -39v-174q-114 64 -227 64zM326 412q0 -122 75.5 -201.5
t190.5 -79.5q116 0 193 82.5t77 204.5q0 120 -74.5 196t-191.5 76q-118 0 -194 -78t-76 -200z" />
    <glyph glyph-name="seven" unicode="7" horiz-adv-x="952" 
d="M74 1352h807v-146l-527 -1206h-190l520 1192h-610v160z" />
    <glyph glyph-name="eight" unicode="8" horiz-adv-x="1056" 
d="M528 1372q178 0 293 -97.5t115 -244.5q0 -106 -60.5 -188.5t-158.5 -118.5v-4q126 -50 194 -140.5t68 -211.5q0 -167 -128.5 -277t-322.5 -110q-193 0 -321.5 110.5t-128.5 276.5q0 122 67.5 212.5t194.5 139.5v4q-99 36 -160 118.5t-61 188.5q0 147 115.5 244.5
t293.5 97.5zM528 801q100 0 166 63t66 158q0 94 -66 155.5t-166 61.5q-101 0 -166 -61.5t-65 -155.5q0 -95 65.5 -158t165.5 -63zM528 125q116 0 192.5 71.5t76.5 180.5q0 108 -77.5 181t-191.5 73q-115 0 -191.5 -72.5t-76.5 -181.5t76 -180.5t192 -71.5z" />
    <glyph glyph-name="nine" unicode="9" horiz-adv-x="1101" 
d="M453 129q185 0 283.5 154t90.5 413h-20q-48 -92 -134.5 -144t-197.5 -52q-175 0 -290 121.5t-115 306.5q0 193 122.5 318.5t311.5 125.5q236 0 373 -184.5t137 -503.5q0 -333 -141 -518.5t-394 -185.5q-137 0 -305 59v174q147 -84 279 -84zM776 940q0 122 -75.5 201.5
t-190.5 79.5q-117 0 -193.5 -82.5t-76.5 -206.5q0 -119 74.5 -194.5t191.5 -75.5q118 0 194 78t76 200z" />
    <glyph glyph-name="colon" unicode=":" horiz-adv-x="491" 
d="M129 870q0 48 34 82.5t83 34.5q47 0 81.5 -35t34.5 -82q0 -50 -33 -83t-83 -33t-83.5 33.5t-33.5 82.5zM129 106q0 48 34 82.5t83 34.5q47 0 81.5 -35t34.5 -82q0 -50 -33 -83t-83 -33t-83.5 33.5t-33.5 82.5z" />
    <glyph glyph-name="semicolon" unicode=";" horiz-adv-x="491" 
d="M152 870q0 48 33.5 82.5t82.5 34.5q47 0 82 -35t35 -82q0 -49 -33.5 -82.5t-83.5 -33.5t-83 33t-33 83zM373 211l-170 -506h-111l76 506h205z" />
    <glyph glyph-name="less" unicode="&#x3c;" horiz-adv-x="1026" 
d="M66 567l895 379v-178l-660 -258l660 -258v-182l-895 379v118z" />
    <glyph glyph-name="equal" unicode="=" horiz-adv-x="1026" 
d="M88 797h850v-152h-850v152zM88 410h850v-152h-850v152z" />
    <glyph glyph-name="greater" unicode="&#x3e;" horiz-adv-x="1026" 
d="M66 70v182l661 258l-661 258v178l895 -379v-118z" />
    <glyph glyph-name="question" unicode="?" horiz-adv-x="874" 
d="M616 1024q0 88 -61 143.5t-158 55.5q-86 0 -170.5 -48t-154.5 -137v217q65 56 151.5 86.5t179.5 30.5q169 0 279.5 -97.5t110.5 -248.5q0 -108 -47.5 -189t-153.5 -155q-45 -35 -68 -58t-37.5 -56t-18.5 -68t-5 -99h-172v72q0 94 39.5 163.5t130.5 135.5q83 70 118 128
t37 124zM252 106q0 50 34 83.5t83 33.5q50 0 84 -34t34 -83q0 -50 -33.5 -83t-84.5 -33q-50 0 -83.5 33.5t-33.5 82.5z" />
    <glyph glyph-name="at" unicode="@" horiz-adv-x="1662" 
d="M84 610q0 220 98 398.5t271 279.5t387 101q157 0 294.5 -54t235 -148t153.5 -225.5t56 -281.5q0 -216 -86.5 -349.5t-237.5 -133.5q-85 0 -145.5 41.5t-77.5 113.5h-10q-92 -145 -266 -145q-104 0 -175 62.5t-71 156.5q0 219 305 254q106 12 151.5 44t45.5 95
t-45.5 102.5t-122.5 39.5q-75 0 -149 -38t-132 -104v152q55 42 133.5 68t153.5 26q138 0 215.5 -68t77.5 -190v-336q0 -102 30.5 -142t96.5 -40q96 0 146 105t50 288q0 171 -80.5 309.5t-223.5 217.5t-320 79q-183 0 -330.5 -89t-230 -244.5t-82.5 -346.5q0 -133 39 -246.5
t105 -193t153.5 -135.5t185 -82.5t199.5 -26.5q157 0 274 51v-106q-125 -41 -297 -41q-164 0 -308 60t-246 163.5t-161 248.5t-59 310zM823 569q-93 -12 -134.5 -46t-41.5 -93q0 -53 39 -84t100 -31q92 0 159 70t67 176v96q-71 -71 -189 -88z" />
    <glyph glyph-name="A" unicode="A" horiz-adv-x="1290" 
d="M494 1352h303l483 -1352h-205l-127 365h-612l-129 -365h-197zM643 1212h-4l-250 -688h504z" />
    <glyph glyph-name="B" unicode="B" horiz-adv-x="1232" 
d="M164 1352h471q114 0 203.5 -30t142 -80t79.5 -110.5t27 -127.5q0 -116 -69.5 -206.5t-202.5 -115.5v-4q163 -26 247.5 -116.5t84.5 -207.5q0 -67 -28.5 -129t-82 -113t-141.5 -81.5t-197 -30.5h-534v1352zM362 1198v-438h238q139 0 215 63t76 164q0 99 -75 155t-218 56
h-236zM362 604v-446h300q137 0 211.5 60t74.5 161q0 103 -81.5 164t-231.5 61h-273z" />
    <glyph glyph-name="C" unicode="C" horiz-adv-x="1263" 
d="M803 -20q-314 0 -508.5 193.5t-194.5 504.5q0 203 87.5 361t246 245.5t363.5 87.5q248 0 403 -125v-211q-90 80 -195.5 123t-213.5 43q-215 0 -352.5 -147.5t-137.5 -376.5q0 -124 40 -225t108.5 -166t157.5 -100t188 -35q106 0 212 41.5t193 121.5v-211
q-75 -60 -179.5 -92t-217.5 -32z" />
    <glyph glyph-name="D" unicode="D" horiz-adv-x="1402" 
d="M164 1352h416q327 0 525 -185.5t198 -490.5t-198 -490.5t-525 -185.5h-416v1352zM362 1178v-1004h209q241 0 385 137.5t144 366.5q0 226 -145 363t-384 137h-209z" />
    <glyph glyph-name="E" unicode="E" horiz-adv-x="1064" 
d="M164 1352h807v-174h-609v-408h564v-170h-564v-426h619v-174h-817v1352z" />
    <glyph glyph-name="F" unicode="F" horiz-adv-x="1048" 
d="M164 0v1352h813v-174h-615v-424h558v-170h-558v-584h-198z" />
    <glyph glyph-name="G" unicode="G" horiz-adv-x="1374" 
d="M1067 662h205v-558q-158 -116 -457 -124q-159 0 -293.5 52t-226.5 144.5t-143.5 222t-51.5 281.5q0 202 86 359t244.5 245t364.5 88q272 0 417 -125v-211q-86 77 -197.5 121.5t-223.5 44.5q-146 0 -258.5 -71t-172 -189.5t-59.5 -263.5q0 -150 62 -270.5t179 -191.5
t269 -73q133 3 266 52v272q0 116 -10 195z" />
    <glyph glyph-name="H" unicode="H" horiz-adv-x="1368" 
d="M1006 1352h198v-1352h-198v596h-644v-596h-198v1352h198v-582h644v582z" />
    <glyph glyph-name="I" unicode="I" horiz-adv-x="526" 
d="M164 1352h198v-1352h-198v1352z" />
    <glyph glyph-name="J" unicode="J" horiz-adv-x="782" 
d="M618 358q0 -176 -100 -277t-280 -101q-126 0 -258 57v190q108 -77 227 -77q103 0 158 57t55 149v996h198v-994z" />
    <glyph glyph-name="K" unicode="K" horiz-adv-x="1198" 
d="M948 0l-583 674v2l593 676h236l-604 -674l604 -678h-246zM164 1352h198v-1352h-198v1352z" />
    <glyph glyph-name="L" unicode="L" horiz-adv-x="999" 
d="M164 0v1352h198v-1178h570v-174h-768z" />
    <glyph glyph-name="M" unicode="M" horiz-adv-x="1722" 
d="M453 1352l401 -1078h8l398 1078h299v-1352h-189l4 1157h-6l-432 -1157h-162l-430 1157h-6l4 -1157h-188v1352h299z" />
    <glyph glyph-name="N" unicode="N" horiz-adv-x="1402" 
d="M1044 1352h195v-1352h-229l-654 1085h-8v-1085h-194v1352h229l651 -1078h10v1078z" />
    <glyph glyph-name="O" unicode="O" horiz-adv-x="1507" 
d="M754 1372q287 0 470 -194t183 -500q0 -203 -83 -362t-232.5 -247.5t-339.5 -88.5q-189 0 -338 88t-231.5 247.5t-82.5 362.5q0 201 83 359.5t232.5 246.5t338.5 88zM754 1202q-201 0 -327 -145.5t-126 -378.5q0 -235 125 -380.5t326 -145.5t327.5 146.5t126.5 379.5
t-125.5 378.5t-326.5 145.5z" />
    <glyph glyph-name="P" unicode="P" horiz-adv-x="1159" 
d="M362 0h-198v1352h471q211 0 340 -115.5t129 -300.5q0 -193 -127 -307.5t-344 -114.5h-271v-514zM633 1184h-271v-500h271q130 0 203 68t73 178q0 114 -74.5 184t-201.5 70z" />
    <glyph glyph-name="Q" unicode="Q" horiz-adv-x="1507" 
d="M1038 -244l-209 228q-54 -4 -77 -4q-189 0 -338 88t-231.5 247.5t-82.5 362.5q0 201 83 359.5t232.5 246.5t338.5 88q287 0 470 -194t183 -500q0 -228 -105.5 -399.5t-287.5 -247.5l256 -275h-232zM754 1202q-201 0 -327 -145.5t-126 -378.5q0 -235 125 -380.5
t326 -145.5t327.5 146.5t126.5 379.5t-125.5 378.5t-326.5 145.5z" />
    <glyph glyph-name="R" unicode="R" horiz-adv-x="1212" 
d="M164 1352h487q207 0 341 -116.5t134 -297.5q0 -178 -118 -293t-324 -115l522 -530h-241l-603 631v-631h-198v1352zM924 920q0 114 -80.5 189t-204.5 75h-277v-527h248q146 0 230 73.5t84 189.5z" />
    <glyph glyph-name="S" unicode="S" horiz-adv-x="1093" 
d="M109 109v213q78 -76 194 -122t232 -46q135 0 212.5 59t77.5 160q0 96 -74.5 152.5t-218.5 68.5q-192 17 -302.5 118.5t-110.5 262.5q0 176 130 286.5t331 110.5q106 0 205.5 -31t172.5 -88v-204q-67 69 -164 108t-200 41q-131 -2 -208 -58.5t-77 -158.5q0 -95 72 -147.5
t231 -67.5q410 -46 410 -377q0 -189 -133 -299t-357 -110q-120 0 -230.5 33.5t-192.5 95.5z" />
    <glyph glyph-name="T" unicode="T" horiz-adv-x="1058" 
d="M14 1178v174h1030v-174h-415v-1178h-199v1178h-416z" />
    <glyph glyph-name="U" unicode="U" horiz-adv-x="1359" 
d="M684 152q145 0 234.5 85t89.5 226v889h198v-903q0 -214 -143.5 -341.5t-378.5 -127.5q-237 0 -378.5 126.5t-141.5 339.5v906h201v-889q0 -141 86.5 -226t232.5 -85z" />
    <glyph glyph-name="V" unicode="V" horiz-adv-x="1234" 
d="M10 1352h205l410 -1162h4l395 1162h201l-486 -1352h-239z" />
    <glyph glyph-name="W" unicode="W" horiz-adv-x="1771" 
d="M1184 0l-295 1090h-4l-301 -1090h-211l-363 1352h197l272 -1127h6l306 1127h192l297 -1127h6l279 1127h196l-362 -1352h-215z" />
    <glyph glyph-name="X" unicode="X" horiz-adv-x="1230" 
d="M10 0l494 700l-451 652h217l351 -508l342 508h215l-449 -664l492 -688h-213l-400 553l-387 -553h-211z" />
    <glyph glyph-name="Y" unicode="Y" horiz-adv-x="1150" 
d="M10 1352h211l352 -637h5l356 637h207l-467 -817v-535h-197v535z" />
    <glyph glyph-name="Z" unicode="Z" horiz-adv-x="1150" 
d="M125 1352h952v-174l-776 -1004h778v-174h-997v174l760 1004h-717v174z" />
    <glyph glyph-name="bracketleft" unicode="[" horiz-adv-x="563" 
d="M162 -311v1853h434v-156h-262v-1542h262v-155h-434z" />
    <glyph glyph-name="backslash" unicode="\" horiz-adv-x="647" 
d="M145 1393l525 -1434h-170l-523 1434h168z" />
    <glyph glyph-name="bracketright" unicode="]" horiz-adv-x="563" 
d="M401 -311h-434v155h262v1542h-262v156h434v-1853z" />
    <glyph glyph-name="asciicircum" unicode="^" horiz-adv-x="1024" 
d="M53 688l387 664h146l385 -664h-187l-272 483l-272 -483h-187z" />
    <glyph glyph-name="underscore" unicode="_" horiz-adv-x="1024" 
d="M-8 -252v94h1040v-94h-1040z" />
    <glyph glyph-name="grave" unicode="`" horiz-adv-x="1026" 
d="M588 1135l-307 268h208l256 -268h-157z" />
    <glyph glyph-name="a" unicode="a" horiz-adv-x="1021" 
d="M688 145q-115 -165 -303 -165q-135 0 -220 73.5t-85 190.5q0 119 91 188.5t273 104.5q139 26 196.5 60t57.5 101q0 68 -52.5 108t-145.5 40q-189 0 -350 -164v197q66 53 163 83.5t199 30.5q170 0 270.5 -84.5t100.5 -230.5v-391q0 -162 39 -287h-197l-16 145h-21z
M698 506q-64 -67 -225 -105q-111 -26 -159 -62t-48 -93t42.5 -90t115.5 -33q118 0 196 81.5t78 215.5v86z" />
    <glyph glyph-name="b" unicode="b" horiz-adv-x="1198" 
d="M328 786h20q53 100 142.5 153.5t197.5 53.5q189 0 308.5 -142t119.5 -366q0 -223 -119.5 -364t-308.5 -141q-110 0 -198.5 53t-141.5 153h-20l-41 -186h-142v973q0 148 -20 379h203v-566zM641 135q134 0 211.5 94t77.5 258t-77.5 258.5t-211.5 94.5q-139 0 -229 -100.5
t-90 -254.5q0 -151 90 -250.5t229 -99.5z" />
    <glyph glyph-name="c" unicode="c" horiz-adv-x="983" 
d="M905 72q-143 -92 -313 -92q-100 0 -192 34.5t-163 97.5t-113 160.5t-42 214.5q0 224 139.5 365t364.5 141q170 0 309 -92v-211q-57 69 -135.5 107.5t-169.5 38.5q-151 0 -236.5 -98.5t-85.5 -252.5q0 -153 90 -250.5t242 -97.5q182 0 305 146v-211z" />
    <glyph glyph-name="d" unicode="d" horiz-adv-x="1196" 
d="M868 186h-20q-55 -101 -143 -153.5t-197 -52.5q-81 0 -156 31.5t-136 92t-97.5 160t-36.5 223.5t36.5 223t97.5 159t136 92t156 32q112 0 201 -53t141 -154h20v187q0 185 -18 379h201v-1065q0 -147 18 -287h-203v186zM557 135q139 0 229.5 99.5t90.5 250.5
q0 154 -90.5 254.5t-229.5 100.5q-134 0 -211.5 -94.5t-77.5 -258.5t77.5 -258t211.5 -94z" />
    <glyph glyph-name="e" unicode="e" horiz-adv-x="1075" 
d="M559 993q202 0 321 -124t119 -324q0 -36 -8 -107h-723q9 -140 101.5 -223.5t238.5 -83.5q103 0 190.5 40t143.5 112v-211q-142 -92 -342 -92q-108 0 -202 33.5t-164.5 96t-111 159.5t-40.5 218q0 77 19.5 150t59.5 137.5t95.5 113.5t133.5 77t169 28zM829 565
q3 119 -70 197t-192 78q-120 0 -202 -77t-91 -198h555z" />
    <glyph glyph-name="f" unicode="f" horiz-adv-x="681" 
d="M61 973h160v117q0 121 83.5 196.5t217.5 75.5q91 0 166 -35v-166q-70 51 -141 51q-63 0 -102 -40t-39 -107v-92h272v-148h-272v-538q0 -161 20 -287h-205v825h-160v148z" />
    <glyph glyph-name="g" unicode="g" horiz-adv-x="1196" 
d="M868 256h-20q-54 -100 -142 -153.5t-198 -53.5q-190 0 -308 131t-118 342q0 210 118.5 340.5t307.5 130.5q113 0 200.5 -53t139.5 -154h20l-20 187h203v-877q0 -189 -130 -306.5t-341 -117.5q-180 0 -365 76v191q184 -115 350 -115q137 0 220 81t83 216v135zM557 203
q139 0 229.5 89.5t90.5 225.5q0 138 -90.5 229t-229.5 91q-134 0 -211.5 -84.5t-77.5 -233.5t77.5 -233t211.5 -84z" />
    <glyph glyph-name="h" unicode="h" horiz-adv-x="1144" 
d="M125 1352h203v-545h20q44 90 124.5 138t184.5 48q154 0 252.5 -99.5t98.5 -256.5v-350q0 -149 18 -287h-203v596q0 110 -61.5 176t-163.5 66q-118 0 -194 -83t-76 -212v-543h-183v973q0 187 -20 379z" />
    <glyph glyph-name="i" unicode="i" horiz-adv-x="475" 
d="M238 1376q51 0 84.5 -33t33.5 -83q0 -47 -34.5 -81t-83.5 -34q-51 0 -85 33.5t-34 81.5q0 50 34 83t85 33zM127 973h203v-686q0 -152 18 -287h-203v686q0 173 -18 287z" />
    <glyph glyph-name="j" unicode="j" horiz-adv-x="475" 
d="M238 1376q51 0 84.5 -33t33.5 -83q0 -47 -34.5 -81t-83.5 -34q-51 0 -85 33.5t-34 81.5q0 50 34 83t85 33zM348 -287l-203 -26v999q0 121 -18 287h203v-973q0 -167 18 -287z" />
    <glyph glyph-name="k" unicode="k" horiz-adv-x="1048" 
d="M819 0l-467 498h-20v-211q0 -175 20 -287h-205v973q0 203 -18 379h203v-815h20l389 436h215l-409 -459l502 -514h-230z" />
    <glyph glyph-name="l" unicode="l" horiz-adv-x="475" 
d="M348 0h-203v973q0 168 -18 379h203v-1065q0 -121 18 -287z" />
    <glyph glyph-name="m" unicode="m" horiz-adv-x="1775" 
d="M1657 0h-203v592q0 112 -59.5 179t-159.5 67q-110 0 -181 -83.5t-71 -213.5v-541h-184v592q0 112 -59.5 179t-157.5 67q-113 0 -183.5 -83t-70.5 -216v-539h-185v686q0 116 -18 287h190v-168h21q40 88 120.5 138t182.5 50q105 0 187 -54.5t122 -150.5h4q47 98 134 151.5
t200 53.5q156 0 254 -99t98 -257v-350q0 -160 19 -287z" />
    <glyph glyph-name="n" unicode="n" horiz-adv-x="1144" 
d="M125 973h192v-168h21q40 87 124.5 137.5t192.5 50.5q153 0 253 -98t100 -254v-354q0 -129 18 -287h-203v592q0 113 -61.5 179.5t-165.5 66.5q-116 0 -192 -84t-76 -215v-539h-183v686q0 103 -20 287z" />
    <glyph glyph-name="o" unicode="o" horiz-adv-x="1134" 
d="M567 993q218 0 352 -142t134 -366t-134 -364.5t-352 -140.5q-217 0 -351 140.5t-134 364.5q0 226 133.5 367t351.5 141zM567 836q-135 0 -218 -96.5t-83 -254.5q0 -157 83 -252.5t218 -95.5t218 95.5t83 252.5q0 158 -83 254.5t-218 96.5z" />
    <glyph glyph-name="p" unicode="p" horiz-adv-x="1198" 
d="M328 186v-186q0 -170 20 -307h-203v993q0 144 -20 287h203v-187h20q55 101 143.5 154t196.5 53q82 0 157 -32t136.5 -92.5t98 -160t36.5 -223.5t-36.5 -222.5t-98 -159t-136.5 -92t-157 -31.5q-110 0 -198.5 52.5t-141.5 153.5h-20zM641 840q-139 0 -229 -100.5
t-90 -254.5q0 -151 90 -250.5t229 -99.5q134 0 211.5 94t77.5 258t-77.5 258.5t-211.5 94.5z" />
    <glyph glyph-name="q" unicode="q" horiz-adv-x="1196" 
d="M868 186h-20q-55 -101 -143 -153.5t-197 -52.5q-186 0 -306 143t-120 364q0 220 120 363t306 143q111 0 199.5 -53.5t140.5 -153.5h20l-18 187h203v-973q0 -166 18 -307h-203v493zM557 135q139 0 229.5 99.5t90.5 250.5q0 154 -90.5 254.5t-229.5 100.5
q-134 0 -211.5 -94.5t-77.5 -258.5t77.5 -258t211.5 -94z" />
    <glyph glyph-name="r" unicode="r" horiz-adv-x="757" 
d="M143 0v686q0 150 -20 287h190v-215h21q28 114 104 171.5t170 57.5q77 0 133 -33v-180q-67 55 -147 55q-127 0 -196.5 -95.5t-69.5 -266.5v-180q0 -182 18 -287h-203z" />
    <glyph glyph-name="s" unicode="s" horiz-adv-x="874" 
d="M625 276q0 62 -44.5 95.5t-144.5 42.5q-154 15 -238.5 91t-84.5 197q0 132 95 211.5t253 79.5q147 0 272 -82v-194q-110 129 -270 129q-80 0 -130 -36.5t-50 -102.5q0 -127 194 -142q156 -12 240 -85t84 -195q0 -137 -100 -221t-263 -84q-185 0 -329 104v203
q52 -71 140 -114.5t185 -43.5q90 0 140.5 37.5t50.5 109.5z" />
    <glyph glyph-name="t" unicode="t" horiz-adv-x="782" 
d="M737 43q-31 -28 -90 -45.5t-123 -17.5q-136 0 -215.5 80.5t-79.5 226.5v538h-178v121h58q101 0 139 68.5t49 240.5h117v-282h315v-148h-315v-512q0 -182 147 -182q102 0 176 86v-174z" />
    <glyph glyph-name="u" unicode="u" horiz-adv-x="1134" 
d="M483 -20q-154 0 -250 94.5t-96 249.5v362q0 121 -18 287h203v-608q0 -111 57.5 -170.5t159.5 -59.5q120 0 194 82.5t74 216.5v539h184v-686q0 -145 19 -287h-189v168h-20q-42 -86 -123.5 -137t-194.5 -51z" />
    <glyph glyph-name="v" unicode="v" horiz-adv-x="946" 
d="M10 973h193l266 -756h8l266 756h193l-371 -973h-186z" />
    <glyph glyph-name="w" unicode="w" horiz-adv-x="1468" 
d="M10 973h189l219 -742h8l209 742h194l213 -742h9l219 742h188l-321 -973h-170l-234 766l-233 -766h-172z" />
    <glyph glyph-name="x" unicode="x" horiz-adv-x="937" 
d="M922 0h-203l-254 348l-248 -348h-203l355 481l-359 492h201l262 -359l254 359h201l-359 -492z" />
    <glyph glyph-name="y" unicode="y" horiz-adv-x="987" 
d="M231 -358l168 385l-389 946h207l275 -742h14l268 742h203l-553 -1331h-193z" />
    <glyph glyph-name="z" unicode="z" horiz-adv-x="942" 
d="M82 135l545 690h-523v148h740v-139l-545 -687h557v-147h-774v135z" />
    <glyph glyph-name="braceleft" unicode="{" horiz-adv-x="663" 
d="M236 618v-6q85 -15 130.5 -94.5t45.5 -210.5v-282q0 -88 43.5 -139.5t117.5 -51.5h78v-145h-100q-138 0 -222.5 87.5t-84.5 229.5v285q0 123 -58 193t-153 63v137q95 -7 153 62.5t58 191.5v287q0 142 84.5 229.5t222.5 87.5h100v-145h-78q-75 0 -118 -51t-43 -140v-282
q0 -131 -46 -211t-130 -95z" />
    <glyph glyph-name="bar" unicode="|" horiz-adv-x="495" 
d="M166 -205v1598h162v-1598h-162z" />
    <glyph glyph-name="braceright" unicode="}" horiz-adv-x="663" 
d="M428 618q-84 15 -130 95t-46 211v282q0 89 -43.5 140t-118.5 51h-78v145h101q138 0 222.5 -87.5t84.5 -229.5v-287q0 -122 58 -191.5t153 -62.5v-137q-95 7 -153 -63t-58 -193v-285q0 -142 -84.5 -229.5t-222.5 -87.5h-101v145h78q74 0 118 52t44 139v282
q0 131 45.5 210.5t130.5 94.5v6z" />
    <glyph glyph-name="asciitilde" unicode="~" horiz-adv-x="1015" 
d="M291 690q86 0 227 -74q46 -27 72.5 -40.5t64.5 -25t74 -11.5q107 0 191 123h10l37 -148q-38 -64 -102 -102.5t-140 -38.5q-86 0 -221 71q-8 4 -41.5 22.5t-46 24.5t-38.5 16.5t-46.5 14.5t-42.5 4q-109 0 -193 -123h-10l-37 148q39 63 103 101t139 38z" />
    <glyph glyph-name="nbspace" unicode="&#xa0;" horiz-adv-x="378" 
 />
    <glyph glyph-name="exclamdown" unicode="&#xa1;" horiz-adv-x="552" 
d="M160 877q0 49 33 82.5t83 33.5t83.5 -33.5t33.5 -82.5q0 -47 -35 -82t-82 -35q-49 0 -82.5 34.5t-33.5 82.5zM350 559l25 -938h-195l23 938h147z" />
    <glyph glyph-name="cent" unicode="&#xa2;" horiz-adv-x="1042" 
d="M504 -281v267q-181 29 -301.5 162.5t-120.5 338.5q0 201 115 338t307 162v262h112v-256q152 -9 279 -92v-211q-57 69 -135.5 107.5t-169.5 38.5q-151 0 -236.5 -98.5t-85.5 -252.5q0 -153 90 -250.5t242 -97.5q182 0 305 146v-211q-130 -86 -289 -92v-261h-112z" />
    <glyph glyph-name="sterling" unicode="&#xa3;" horiz-adv-x="1142" 
d="M303 174v436h-182v103h182v276q0 169 109 276t282 107q153 0 260 -72v-194q-46 44 -105 71t-116 27q-102 0 -166.5 -66t-64.5 -175v-250h397v-103h-397v-198q0 -139 -56 -238h588v-174h-925v123z" />
    <glyph glyph-name="currency" unicode="&#xa4;" horiz-adv-x="1316" 
d="M70 168l186 186q-113 142 -113 324q0 178 111 321l-184 185l86 86l184 -185q140 111 319 111q176 0 318 -113l184 187l86 -86l-184 -187q111 -140 111 -319t-113 -324l186 -186l-86 -84l-184 186q-141 -112 -318 -112q-181 0 -319 110l-184 -184zM659 315
q146 0 250.5 107t104.5 256q0 148 -104.5 254t-250.5 106q-147 0 -251.5 -106t-104.5 -254q0 -150 104.5 -256.5t251.5 -106.5z" />
    <glyph glyph-name="yen" unicode="&#xa5;" horiz-adv-x="1185" 
d="M211 395h266v129h-266v103h213l-414 725h211l352 -637h5l356 637h207l-414 -725h234v-103h-287v-129h287v-102h-287v-293h-197v293h-266v102z" />
    <glyph glyph-name="brokenbar" unicode="&#xa6;" horiz-adv-x="495" 
d="M328 1393v-596h-162v596h162zM328 440v-645h-162v645h162z" />
    <glyph glyph-name="section" unicode="&#xa7;" horiz-adv-x="1056" 
d="M879 221q0 -133 -105.5 -218t-269.5 -85q-151 0 -271 68v180q57 -52 132 -82.5t147 -30.5q83 0 135.5 45.5t52.5 116.5q0 54 -30 93.5t-103 72.5l-272 123q-90 40 -142.5 107.5t-52.5 144.5q0 73 49.5 136t137.5 103q-66 75 -66 164q0 130 103 213.5t264 83.5
q148 0 266 -67v-177q-57 51 -130.5 81t-143.5 30q-82 0 -133.5 -44.5t-51.5 -113.5q0 -54 29.5 -92.5t101.5 -71.5l267 -120q89 -40 139.5 -105t50.5 -141q0 -72 -48 -135t-134 -101q78 -81 78 -178zM420 610l246 -116q6 -3 17 -9.5t17 -9.5q111 59 111 150q0 51 -27.5 80.5
t-113.5 70.5l-240 115q-24 12 -45 24q-109 -59 -109 -149q0 -53 28.5 -84t115.5 -72z" />
    <glyph glyph-name="dieresis" unicode="&#xa8;" horiz-adv-x="1026" 
d="M211 1270q0 44 32 77t76 33t77.5 -33t33.5 -77t-33.5 -76.5t-77.5 -32.5t-76 32.5t-32 76.5zM596 1270q0 44 32.5 77t76.5 33t77 -33t33 -77t-33 -76.5t-77 -32.5t-76.5 32.5t-32.5 76.5z" />
    <glyph glyph-name="copyright" unicode="&#xa9;" horiz-adv-x="1564" 
d="M780 -45q-198 0 -358 93t-251 258t-91 368q0 151 53.5 284t146.5 227.5t223 149t277 54.5q149 0 280 -54.5t224 -149t147 -227.5t54 -284q0 -152 -54 -285.5t-147 -228.5t-224 -150t-280 -55zM782 55q124 0 233.5 47t187 128t122.5 195t45 243q0 174 -76 315t-210.5 221
t-301.5 80q-125 0 -234 -47t-186.5 -128t-122 -195t-44.5 -244q0 -173 76 -313.5t210.5 -221t300.5 -80.5zM813 279q-178 0 -287.5 114.5t-109.5 294.5q0 178 109 291t288 113q145 0 227 -74v-129q-103 96 -231 96q-122 0 -196 -85.5t-74 -213.5q0 -126 74 -213t196 -88
q127 3 231 96v-129q-79 -69 -227 -73z" />
    <glyph glyph-name="ordfeminine" unicode="&#xaa;" horiz-adv-x="729" 
d="M498 727q-46 -65 -102.5 -94t-135.5 -29q-94 0 -156.5 55.5t-62.5 139.5q0 91 64.5 142.5t187.5 76.5q120 23 165.5 48t45.5 75q0 51 -40 80.5t-110 29.5q-72 0 -141 -32.5t-123 -92.5v150q49 39 122 62.5t144 23.5q132 0 208.5 -63.5t76.5 -172.5v-292q0 -116 29 -216
h-146l-12 109h-14zM336 920q-84 -20 -120 -48t-36 -73q0 -40 32 -64t87 -24q88 0 146.5 61t58.5 160v65q-47 -50 -168 -77z" />
    <glyph glyph-name="guillemotleft" unicode="&#xab;" horiz-adv-x="1114" 
d="M604 1018l-305 -467l305 -467h-147l-367 467l367 467h147zM1044 1018l-305 -467l305 -467h-147l-367 467l367 467h147z" />
    <glyph glyph-name="logicalnot" unicode="&#xac;" horiz-adv-x="1024" 
d="M795 623h-736v151h906v-538h-170v387z" />
    <glyph glyph-name="registered" unicode="&#xae;" horiz-adv-x="1564" 
d="M780 -45q-198 0 -358 93t-251 258t-91 368q0 151 53.5 284t146.5 227.5t223 149t277 54.5q149 0 280 -54.5t224 -149t147 -227.5t54 -284q0 -152 -54 -285.5t-147 -228.5t-224 -150t-280 -55zM782 55q124 0 233.5 47t187 128t122.5 195t45 243q0 174 -76 315t-210.5 221
t-301.5 80q-125 0 -234 -47t-186.5 -128t-122 -195t-44.5 -244q0 -173 76 -313.5t210.5 -221t300.5 -80.5zM537 1083h280q116 0 191 -66.5t75 -168.5q0 -107 -61.5 -176t-171.5 -70l278 -307h-145l-326 369v-369h-120v788zM961 831q0 65 -43.5 107.5t-110.5 42.5h-150v-303
h140q74 0 119 43.5t45 109.5z" />
    <glyph glyph-name="macron" unicode="&#xaf;" horiz-adv-x="1024" 
d="M248 1202v127h528v-127h-528z" />
    <glyph glyph-name="degree" unicode="&#xb0;" horiz-adv-x="722" 
d="M90 1110q0 114 76.5 188t193.5 74t195 -75t78 -187q0 -111 -78 -185.5t-195 -74.5q-116 0 -193 74.5t-77 185.5zM215 1114q0 -65 42 -108t105 -43t105.5 43.5t42.5 107.5t-42.5 107t-105.5 43t-105 -43t-42 -107z" />
    <glyph glyph-name="plusminus" unicode="&#xb1;" horiz-adv-x="1024" 
d="M428 1083h170v-346h367v-151h-367v-326h-170v326h-369v151h369v346zM70 0v152h884v-152h-884z" />
    <glyph glyph-name="twosuperior" unicode="&#xb2;" horiz-adv-x="665" 
d="M86 1124v152q104 88 238 88q119 0 192.5 -70t73.5 -180q0 -52 -14.5 -98t-34.5 -80t-67 -80t-83 -76.5t-112 -91.5l-11 -8v-6h328v-123h-520v113l45 34q171 133 250.5 229t79.5 177q0 68 -38.5 105.5t-109.5 37.5q-118 0 -217 -123z" />
    <glyph glyph-name="threesuperior" unicode="&#xb3;" horiz-adv-x="626" 
d="M426 772q0 59 -40 95t-101 36h-64v109h60q59 0 97 34.5t38 92.5q0 53 -36 84.5t-93 31.5q-116 0 -209 -122v151q95 80 217 80q105 0 176.5 -59.5t71.5 -159.5q0 -69 -40 -120.5t-106 -66.5v-2q72 -15 117 -69t45 -127q0 -108 -75 -164.5t-181 -56.5q-127 0 -227 77v152
q96 -121 219 -121q57 0 94 34.5t37 90.5z" />
    <glyph glyph-name="acute" unicode="&#xb4;" horiz-adv-x="1026" 
d="M438 1135h-157l256 268h208z" />
    <glyph glyph-name="paragraph" unicode="&#xb6;" horiz-adv-x="1302" 
d="M1141 1352v-1516h-180v1346h-216v-1346h-178v696h-45q-101 0 -185 34.5t-137.5 92.5t-82.5 131.5t-29 153.5q0 81 29.5 154.5t84 130t139.5 90t189 33.5h611z" />
    <glyph glyph-name="periodcentered" unicode="&#xb7;" horiz-adv-x="491" 
d="M129 627q0 48 34 82t83 34q47 0 81.5 -34.5t34.5 -81.5q0 -50 -33.5 -83.5t-82.5 -33.5q-50 0 -83.5 34t-33.5 83z" />
    <glyph glyph-name="cedilla" unicode="&#xb8;" horiz-adv-x="1024" 
d="M500 -90v-6h18q96 0 150.5 -51t54.5 -121q0 -84 -65.5 -146.5t-186.5 -62.5q-87 0 -170 35v110q77 -39 156 -39q53 0 85.5 24.5t32.5 72.5q0 38 -27.5 64t-80.5 26q-38 0 -76 -17l-53 49l137 193h125z" />
    <glyph glyph-name="onesuperior" unicode="&#xb9;" horiz-adv-x="540" 
d="M287 1352h121v-625q0 -103 12 -176h-152v653l-180 -117h-8v144z" />
    <glyph glyph-name="ordmasculine" unicode="&#xba;" horiz-adv-x="849" 
d="M424 1362q159 0 259.5 -106.5t100.5 -274.5q0 -166 -100.5 -271.5t-259.5 -105.5q-158 0 -259.5 105.5t-101.5 271.5q0 168 101 274.5t260 106.5zM424 1245q-101 0 -162 -72t-61 -192q0 -117 61 -188.5t162 -71.5t162 71.5t61 188.5q0 120 -61 192t-162 72z" />
    <glyph glyph-name="guillemotright" unicode="&#xbb;" horiz-adv-x="1114" 
d="M70 1018h145l367 -467l-367 -467h-145l305 467zM510 1018h145l367 -467l-367 -467h-145l305 467z" />
    <glyph glyph-name="onequarter" unicode="&#xbc;" horiz-adv-x="1439" 
d="M1174 1397l-754 -1428h-119l756 1428h117zM287 1352h121v-625q0 -103 12 -176h-152v653l-180 -117h-8v144zM1286 0h-125v195h-352v151l354 455h123v-492h113v-114h-113v-195zM1161 625l-252 -316h252v316z" />
    <glyph glyph-name="onehalf" unicode="&#xbd;" horiz-adv-x="1538" 
d="M1147 1397l-754 -1428h-119l756 1428h117zM287 1352h121v-625q0 -103 12 -176h-152v653l-180 -117h-8v144zM958 573v152q104 88 238 88q119 0 192.5 -70t73.5 -180q0 -52 -14.5 -98t-34.5 -80t-67 -80t-83 -76.5t-112 -91.5l-10 -8v-6h327v-123h-520v113l45 34
q171 133 250.5 229t79.5 177q0 68 -38 105.5t-109 37.5q-57 0 -114 -32t-104 -91z" />
    <glyph glyph-name="threequarters" unicode="&#xbe;" horiz-adv-x="1521" 
d="M1257 1397l-753 -1428h-119l756 1428h116zM426 772q0 59 -40 95t-101 36h-64v109h60q59 0 97 34.5t38 92.5q0 53 -36 84.5t-93 31.5q-116 0 -209 -122v151q95 80 217 80q105 0 176.5 -59.5t71.5 -159.5q0 -69 -40 -120.5t-106 -66.5v-2q72 -15 117 -69t45 -127
q0 -108 -75 -164.5t-181 -56.5q-127 0 -227 77v152q96 -121 219 -121q57 0 94 34.5t37 90.5zM1368 0h-125v195h-352v151l354 455h123v-492h113v-114h-113v-195zM1243 625l-252 -316h252v316z" />
    <glyph glyph-name="questiondown" unicode="&#xbf;" horiz-adv-x="876" 
d="M625 877q0 -49 -33.5 -83t-83.5 -34t-84.5 34t-34.5 83q0 50 34 83t85 33q50 0 83.5 -33.5t33.5 -82.5zM260 -41q0 -88 61 -143.5t158 -55.5q86 0 171 48t155 137v-217q-65 -56 -151.5 -86.5t-180.5 -30.5q-169 0 -279 97.5t-110 248.5q0 108 47.5 189t153.5 155
q45 35 68 58t37.5 56t18.5 68t5 99h172v-72q0 -94 -39.5 -163.5t-130.5 -135.5q-83 -70 -118.5 -128t-37.5 -124z" />
    <glyph glyph-name="Agrave" unicode="&#xc0;" horiz-adv-x="1290" 
d="M618 1483l-307 268h209l256 -268h-158zM494 1352h303l483 -1352h-205l-127 365h-612l-129 -365h-197zM643 1212h-4l-250 -688h504z" />
    <glyph glyph-name="Aacute" unicode="&#xc1;" horiz-adv-x="1290" 
d="M674 1483h-158l256 268h209zM494 1352h303l483 -1352h-205l-127 365h-612l-129 -365h-197zM643 1212h-4l-250 -688h504z" />
    <glyph glyph-name="Acircumflex" unicode="&#xc2;" horiz-adv-x="1290" 
d="M582 1751h129l233 -268h-178l-121 141l-121 -141h-178zM494 1352h303l483 -1352h-205l-127 365h-612l-129 -365h-197zM643 1212h-4l-250 -688h504z" />
    <glyph glyph-name="Atilde" unicode="&#xc3;" horiz-adv-x="1290" 
d="M1040 1733q-19 -246 -227 -246q-52 0 -100.5 19.5t-78.5 43t-67 43t-69 19.5q-56 0 -88.5 -31t-34.5 -84h-123q19 246 233 246q50 0 97 -19.5t77.5 -43t67.5 -43t68 -19.5q56 0 88.5 31t34.5 84h122zM494 1352h303l483 -1352h-205l-127 365h-612l-129 -365h-197z
M643 1212h-4l-250 -688h504z" />
    <glyph glyph-name="Adieresis" unicode="&#xc4;" horiz-adv-x="1290" 
d="M344 1618q0 44 32.5 77.5t76.5 33.5t77 -33.5t33 -77.5t-33 -76.5t-77 -32.5t-76.5 32.5t-32.5 76.5zM729 1618q0 44 32.5 77.5t76.5 33.5t77 -33.5t33 -77.5t-33 -76.5t-77 -32.5t-76.5 32.5t-32.5 76.5zM494 1352h303l483 -1352h-205l-127 365h-612l-129 -365h-197z
M643 1212h-4l-250 -688h504z" />
    <glyph glyph-name="Aring" unicode="&#xc5;" horiz-adv-x="1290" 
d="M408 1681q0 95 67 157.5t170 62.5t171.5 -62.5t68.5 -157.5t-68 -157t-172 -62q-103 0 -170 62t-67 157zM518 1681q0 -54 35 -87t92 -33t93 33t36 87t-36 88.5t-93 34.5q-56 0 -91.5 -34t-35.5 -89zM494 1352h303l483 -1352h-205l-127 365h-612l-129 -365h-197zM643 1212
h-4l-250 -688h504z" />
    <glyph glyph-name="AE" unicode="&#xc6;" horiz-adv-x="1695" 
d="M10 0l643 1352h949v-174h-609v-408h563v-170h-563v-426h619v-174h-817v365h-410l-170 -365h-205zM461 524h334v635h-37z" />
    <glyph glyph-name="Ccedilla" unicode="&#xc7;" horiz-adv-x="1263" 
d="M760 -90v-6h18q96 0 150.5 -51t54.5 -121q0 -84 -65.5 -146.5t-186.5 -62.5q-87 0 -170 35v110q77 -39 156 -39q53 0 86 24.5t33 72.5q0 38 -28 64t-81 26q-38 0 -76 -17l-53 49l98 138q-271 34 -433.5 222t-162.5 470q0 203 87.5 361t246 245.5t363.5 87.5
q248 0 403 -125v-211q-90 80 -195.5 123t-213.5 43q-215 0 -352.5 -147.5t-137.5 -376.5q0 -124 40 -225t108.5 -166t157.5 -100t188 -35q106 0 212 41.5t193 121.5v-211q-75 -60 -178 -92t-209 -32z" />
    <glyph glyph-name="Egrave" unicode="&#xc8;" horiz-adv-x="1064" 
d="M532 1483l-307 268h209l256 -268h-158zM164 1352h807v-174h-609v-408h564v-170h-564v-426h619v-174h-817v1352z" />
    <glyph glyph-name="Eacute" unicode="&#xc9;" horiz-adv-x="1064" 
d="M627 1483h-158l256 268h209zM164 1352h807v-174h-609v-408h564v-170h-564v-426h619v-174h-817v1352z" />
    <glyph glyph-name="Ecircumflex" unicode="&#xca;" horiz-adv-x="1064" 
d="M510 1751h129l233 -268h-178l-121 141l-120 -141h-179zM164 1352h807v-174h-609v-408h564v-170h-564v-426h619v-174h-817v1352z" />
    <glyph glyph-name="Edieresis" unicode="&#xcb;" horiz-adv-x="1064" 
d="M270 1618q0 44 32.5 77.5t76.5 33.5t77 -33.5t33 -77.5t-33 -76.5t-77 -32.5t-76.5 32.5t-32.5 76.5zM655 1618q0 44 32.5 77.5t76.5 33.5t77 -33.5t33 -77.5t-33 -76.5t-77 -32.5t-76.5 32.5t-32.5 76.5zM164 1352h807v-174h-609v-408h564v-170h-564v-426h619v-174h-817
v1352z" />
    <glyph glyph-name="Igrave" unicode="&#xcc;" horiz-adv-x="526" 
d="M236 1483l-308 268h209l256 -268h-157zM164 1352h198v-1352h-198v1352z" />
    <glyph glyph-name="Iacute" unicode="&#xcd;" horiz-adv-x="526" 
d="M291 1483h-158l256 268h209zM164 1352h198v-1352h-198v1352z" />
    <glyph glyph-name="Icircumflex" unicode="&#xce;" horiz-adv-x="526" 
d="M201 1751h129l233 -268h-178l-121 141l-121 -141h-178zM164 1352h198v-1352h-198v1352z" />
    <glyph glyph-name="Idieresis" unicode="&#xcf;" horiz-adv-x="526" 
d="M-39 1618q0 44 32.5 77.5t76.5 33.5t77 -33.5t33 -77.5t-33 -76.5t-77 -32.5t-76.5 32.5t-32.5 76.5zM346 1618q0 44 32.5 77.5t76.5 33.5t77 -33.5t33 -77.5t-33 -76.5t-77 -32.5t-76.5 32.5t-32.5 76.5zM164 1352h198v-1352h-198v1352z" />
    <glyph glyph-name="Eth" unicode="&#xd0;" horiz-adv-x="1402" 
d="M20 625v102h144v625h416q327 0 525 -185.5t198 -490.5t-198 -490.5t-525 -185.5h-416v625h-144zM362 1178v-451h412v-102h-412v-451h209q241 0 385 137.5t144 366.5q0 226 -145 363t-384 137h-209z" />
    <glyph glyph-name="Ntilde" unicode="&#xd1;" horiz-adv-x="1402" 
d="M1092 1733q-19 -246 -228 -246q-52 0 -100.5 19.5t-78.5 43t-67 43t-69 19.5q-56 0 -88.5 -31t-34.5 -84h-123q19 246 234 246q50 0 97 -19.5t77 -43t67 -43t68 -19.5q56 0 88.5 31t34.5 84h123zM1044 1352h195v-1352h-229l-654 1085h-8v-1085h-194v1352h229l651 -1078
h10v1078z" />
    <glyph glyph-name="Ograve" unicode="&#xd2;" horiz-adv-x="1507" 
d="M727 1503l-307 269h209l256 -269h-158zM754 1372q287 0 470 -194t183 -500q0 -203 -83 -362t-232.5 -247.5t-339.5 -88.5q-189 0 -338 88t-231.5 247.5t-82.5 362.5q0 201 83 359.5t232.5 246.5t338.5 88zM754 1202q-201 0 -327 -145.5t-126 -378.5q0 -235 125 -380.5
t326 -145.5t327.5 146.5t126.5 379.5t-125.5 378.5t-326.5 145.5z" />
    <glyph glyph-name="Oacute" unicode="&#xd3;" horiz-adv-x="1507" 
d="M782 1503h-157l256 269h209zM754 1372q287 0 470 -194t183 -500q0 -203 -83 -362t-232.5 -247.5t-339.5 -88.5q-189 0 -338 88t-231.5 247.5t-82.5 362.5q0 201 83 359.5t232.5 246.5t338.5 88zM754 1202q-201 0 -327 -145.5t-126 -378.5q0 -235 125 -380.5t326 -145.5
t327.5 146.5t126.5 379.5t-125.5 378.5t-326.5 145.5z" />
    <glyph glyph-name="Ocircumflex" unicode="&#xd4;" horiz-adv-x="1507" 
d="M690 1772h129l234 -269h-179l-120 142l-121 -142h-178zM754 1372q287 0 470 -194t183 -500q0 -203 -83 -362t-232.5 -247.5t-339.5 -88.5q-189 0 -338 88t-231.5 247.5t-82.5 362.5q0 201 83 359.5t232.5 246.5t338.5 88zM754 1202q-201 0 -327 -145.5t-126 -378.5
q0 -235 125 -380.5t326 -145.5t327.5 146.5t126.5 379.5t-125.5 378.5t-326.5 145.5z" />
    <glyph glyph-name="Otilde" unicode="&#xd5;" horiz-adv-x="1507" 
d="M1149 1753q-19 -246 -227 -246q-52 0 -100.5 19.5t-79 43t-67.5 43t-69 19.5q-57 0 -89 -30.5t-34 -83.5h-123q19 245 234 245q50 0 97 -19.5t77 -43t67 -43t68 -19.5q56 0 88.5 31t34.5 84h123zM754 1372q287 0 470 -194t183 -500q0 -203 -83 -362t-232.5 -247.5
t-339.5 -88.5q-189 0 -338 88t-231.5 247.5t-82.5 362.5q0 201 83 359.5t232.5 246.5t338.5 88zM754 1202q-201 0 -327 -145.5t-126 -378.5q0 -235 125 -380.5t326 -145.5t327.5 146.5t126.5 379.5t-125.5 378.5t-326.5 145.5z" />
    <glyph glyph-name="Odieresis" unicode="&#xd6;" horiz-adv-x="1507" 
d="M453 1638q0 45 32 78t76 33t77.5 -33.5t33.5 -77.5t-33 -76t-78 -32q-44 0 -76 32t-32 76zM838 1638q0 45 32 78t76 33t77.5 -33.5t33.5 -77.5t-33 -76t-78 -32q-44 0 -76 32t-32 76zM754 1372q287 0 470 -194t183 -500q0 -203 -83 -362t-232.5 -247.5t-339.5 -88.5
q-189 0 -338 88t-231.5 247.5t-82.5 362.5q0 201 83 359.5t232.5 246.5t338.5 88zM754 1202q-201 0 -327 -145.5t-126 -378.5q0 -235 125 -380.5t326 -145.5t327.5 146.5t126.5 379.5t-125.5 378.5t-326.5 145.5z" />
    <glyph glyph-name="multiply" unicode="&#xd7;" horiz-adv-x="1026" 
d="M195 938l319 -320l317 318l109 -113l-317 -313l317 -317l-109 -115l-317 317l-319 -315l-109 113l313 317l-313 315z" />
    <glyph glyph-name="Oslash" unicode="&#xd8;" horiz-adv-x="1507" 
d="M754 1372q207 0 366 -106l127 174h133l-176 -242q97 -94 150 -227.5t53 -292.5q0 -203 -83 -362t-232.5 -247.5t-339.5 -88.5q-209 0 -365 106l-127 -172h-133l176 240q-97 94 -150 228.5t-53 295.5q0 201 83 359.5t232.5 246.5t338.5 88zM754 1202q-201 0 -327 -145.5
t-126 -378.5q0 -226 117 -371l596 813q-111 82 -260 82zM1206 678q0 220 -114 366l-596 -811q107 -81 256 -81q201 0 327.5 146.5t126.5 379.5z" />
    <glyph glyph-name="Ugrave" unicode="&#xd9;" horiz-adv-x="1359" 
d="M657 1483l-307 268h209l256 -268h-158zM684 152q145 0 234.5 85t89.5 226v889h198v-903q0 -214 -143.5 -341.5t-378.5 -127.5q-237 0 -378.5 126.5t-141.5 339.5v906h201v-889q0 -141 86.5 -226t232.5 -85z" />
    <glyph glyph-name="Uacute" unicode="&#xda;" horiz-adv-x="1359" 
d="M713 1483h-158l256 268h209zM684 152q145 0 234.5 85t89.5 226v889h198v-903q0 -214 -143.5 -341.5t-378.5 -127.5q-237 0 -378.5 126.5t-141.5 339.5v906h201v-889q0 -141 86.5 -226t232.5 -85z" />
    <glyph glyph-name="Ucircumflex" unicode="&#xdb;" horiz-adv-x="1359" 
d="M623 1751h129l233 -268h-178l-121 141l-121 -141h-178zM684 152q145 0 234.5 85t89.5 226v889h198v-903q0 -214 -143.5 -341.5t-378.5 -127.5q-237 0 -378.5 126.5t-141.5 339.5v906h201v-889q0 -141 86.5 -226t232.5 -85z" />
    <glyph glyph-name="Udieresis" unicode="&#xdc;" horiz-adv-x="1359" 
d="M383 1618q0 44 32.5 77.5t76.5 33.5t77 -33.5t33 -77.5t-33 -76.5t-77 -32.5t-76.5 32.5t-32.5 76.5zM768 1618q0 44 32.5 77.5t76.5 33.5t77 -33.5t33 -77.5t-33 -76.5t-77 -32.5t-76.5 32.5t-32.5 76.5zM684 152q145 0 234.5 85t89.5 226v889h198v-903
q0 -214 -143.5 -341.5t-378.5 -127.5q-237 0 -378.5 126.5t-141.5 339.5v906h201v-889q0 -141 86.5 -226t232.5 -85z" />
    <glyph glyph-name="Yacute" unicode="&#xdd;" horiz-adv-x="1150" 
d="M604 1483h-158l256 268h209zM10 1352h211l352 -637h5l356 637h207l-467 -817v-535h-197v535z" />
    <glyph glyph-name="Thorn" unicode="&#xde;" horiz-adv-x="1159" 
d="M164 0v1352h198v-211h293q204 0 326.5 -117.5t122.5 -304.5q0 -197 -122 -311.5t-333 -114.5h-287v-293h-198zM651 973h-289v-510h289q120 0 189 68t69 186q0 116 -73 186t-185 70z" />
    <glyph glyph-name="germandbls" unicode="&#xdf;" horiz-adv-x="1159" 
d="M922 276q0 62 -40.5 93.5t-131.5 40.5q-132 12 -208.5 75t-76.5 156q0 68 38.5 115.5t123.5 109.5q82 59 111.5 96.5t29.5 84.5q0 76 -60.5 124t-154.5 48q-109 0 -175.5 -68t-66.5 -178v-686q0 -83 19 -287h-203v985q0 167 121.5 277t306.5 110q170 0 277.5 -84
t107.5 -217q0 -146 -145 -246q-101 -68 -130.5 -98t-29.5 -61q0 -49 39 -72t135 -31q133 -9 211 -84t78 -194q0 -137 -94 -221t-248 -84q-166 0 -310 104v203q54 -75 133.5 -116.5t168.5 -41.5q82 0 128 39t46 108z" />
    <glyph glyph-name="agrave" unicode="&#xe0;" horiz-adv-x="1021" 
d="M494 1124l-308 269h209l256 -269h-157zM688 145q-115 -165 -303 -165q-135 0 -220 73.5t-85 190.5q0 119 91 188.5t273 104.5q139 26 196.5 60t57.5 101q0 68 -52.5 108t-145.5 40q-189 0 -350 -164v197q66 53 163 83.5t199 30.5q170 0 270.5 -84.5t100.5 -230.5v-391
q0 -162 39 -287h-197l-16 145h-21zM698 506q-64 -67 -225 -105q-111 -26 -159 -62t-48 -93t42.5 -90t115.5 -33q118 0 196 81.5t78 215.5v86z" />
    <glyph glyph-name="aacute" unicode="&#xe1;" horiz-adv-x="1021" 
d="M573 1124h-157l256 269h209zM688 145q-115 -165 -303 -165q-135 0 -220 73.5t-85 190.5q0 119 91 188.5t273 104.5q139 26 196.5 60t57.5 101q0 68 -52.5 108t-145.5 40q-189 0 -350 -164v197q66 53 163 83.5t199 30.5q170 0 270.5 -84.5t100.5 -230.5v-391
q0 -162 39 -287h-197l-16 145h-21zM698 506q-64 -67 -225 -105q-111 -26 -159 -62t-48 -93t42.5 -90t115.5 -33q118 0 196 81.5t78 215.5v86z" />
    <glyph glyph-name="acircumflex" unicode="&#xe2;" horiz-adv-x="1021" 
d="M438 1393h129l234 -269h-178l-121 142l-121 -142h-178zM688 145q-115 -165 -303 -165q-135 0 -220 73.5t-85 190.5q0 119 91 188.5t273 104.5q139 26 196.5 60t57.5 101q0 68 -52.5 108t-145.5 40q-189 0 -350 -164v197q66 53 163 83.5t199 30.5q170 0 270.5 -84.5
t100.5 -230.5v-391q0 -162 39 -287h-197l-16 145h-21zM698 506q-64 -67 -225 -105q-111 -26 -159 -62t-48 -93t42.5 -90t115.5 -33q118 0 196 81.5t78 215.5v86z" />
    <glyph glyph-name="atilde" unicode="&#xe3;" horiz-adv-x="1021" 
d="M895 1374q-19 -246 -227 -246q-52 0 -100.5 19.5t-79 43t-67.5 43t-69 19.5q-57 0 -89 -30.5t-34 -83.5h-123q19 245 234 245q50 0 97 -19.5t77 -42.5t67 -42.5t68 -19.5q57 0 89 30.5t34 83.5h123zM688 145q-115 -165 -303 -165q-135 0 -220 73.5t-85 190.5
q0 119 91 188.5t273 104.5q139 26 196.5 60t57.5 101q0 68 -52.5 108t-145.5 40q-189 0 -350 -164v197q66 53 163 83.5t199 30.5q170 0 270.5 -84.5t100.5 -230.5v-391q0 -162 39 -287h-197l-16 145h-21zM698 506q-64 -67 -225 -105q-111 -26 -159 -62t-48 -93t42.5 -90
t115.5 -33q118 0 196 81.5t78 215.5v86z" />
    <glyph glyph-name="adieresis" unicode="&#xe4;" horiz-adv-x="1021" 
d="M199 1260q0 44 32 77t76 33t77.5 -33t33.5 -77t-33.5 -76.5t-77.5 -32.5t-76 32.5t-32 76.5zM584 1260q0 44 32 77t76 33t77.5 -33t33.5 -77t-33.5 -76.5t-77.5 -32.5t-76 32.5t-32 76.5zM688 145q-115 -165 -303 -165q-135 0 -220 73.5t-85 190.5q0 119 91 188.5
t273 104.5q139 26 196.5 60t57.5 101q0 68 -52.5 108t-145.5 40q-189 0 -350 -164v197q66 53 163 83.5t199 30.5q170 0 270.5 -84.5t100.5 -230.5v-391q0 -162 39 -287h-197l-16 145h-21zM698 506q-64 -67 -225 -105q-111 -26 -159 -62t-48 -93t42.5 -90t115.5 -33
q118 0 196 81.5t78 215.5v86z" />
    <glyph glyph-name="aring" unicode="&#xe5;" horiz-adv-x="1021" 
d="M262 1305q0 95 67.5 157t170.5 62t171 -62t68 -157t-67.5 -157.5t-171.5 -62.5q-103 0 -170.5 62.5t-67.5 157.5zM373 1305q0 -54 35 -87.5t92 -33.5t93 33.5t36 87.5t-36 88t-93 34q-56 0 -91.5 -33.5t-35.5 -88.5zM688 145q-115 -165 -303 -165q-135 0 -220 73.5
t-85 190.5q0 119 91 188.5t273 104.5q139 26 196.5 60t57.5 101q0 68 -52.5 108t-145.5 40q-189 0 -350 -164v197q66 53 163 83.5t199 30.5q170 0 270.5 -84.5t100.5 -230.5v-391q0 -162 39 -287h-197l-16 145h-21zM698 506q-64 -67 -225 -105q-111 -26 -159 -62t-48 -93
t42.5 -90t115.5 -33q118 0 196 81.5t78 215.5v86z" />
    <glyph glyph-name="ae" unicode="&#xe6;" horiz-adv-x="1687" 
d="M774 180q-69 -106 -161 -153t-220 -47q-134 0 -223.5 74t-89.5 186q0 122 86.5 191.5t249.5 100.5q160 31 221 64.5t61 101.5t-52.5 107t-145.5 39q-98 0 -190.5 -43t-164.5 -123v201q65 52 163 83t194 31q116 0 201.5 -37.5t130.5 -105.5q133 143 344 143
q202 0 321 -124t119 -324q0 -36 -8 -107h-723q9 -140 101.5 -223.5t238.5 -83.5q103 0 190.5 40t143.5 112v-211q-142 -92 -342 -92q-135 0 -247.5 51.5t-180.5 148.5h-17zM1448 565q3 119 -70 197t-192 78q-120 0 -202 -77t-91 -198h555zM698 506q-64 -67 -225 -105
q-111 -26 -159 -62.5t-48 -96.5q0 -54 42.5 -86.5t115.5 -32.5q118 0 196 81.5t78 215.5v86z" />
    <glyph glyph-name="ccedilla" unicode="&#xe7;" horiz-adv-x="983" 
d="M582 -90v-6h18q96 0 150.5 -51t54.5 -121q0 -84 -65.5 -146.5t-186.5 -62.5q-87 0 -170 35v110q77 -39 156 -39q53 0 85.5 24.5t32.5 72.5q0 38 -27.5 64t-80.5 26q-38 0 -76 -17l-53 49l96 136q-89 13 -167.5 52.5t-138 102t-94 152.5t-34.5 196q0 224 139.5 365
t364.5 141q170 0 309 -92v-211q-57 69 -135.5 107.5t-169.5 38.5q-151 0 -236.5 -98.5t-85.5 -252.5q0 -153 90 -250.5t242 -97.5q182 0 305 146v-211q-123 -81 -268 -90z" />
    <glyph glyph-name="egrave" unicode="&#xe8;" horiz-adv-x="1075" 
d="M535 1124l-308 269h209l256 -269h-157zM559 993q202 0 321 -124t119 -324q0 -36 -8 -107h-723q9 -140 101.5 -223.5t238.5 -83.5q103 0 190.5 40t143.5 112v-211q-142 -92 -342 -92q-108 0 -202 33.5t-164.5 96t-111 159.5t-40.5 218q0 77 19.5 150t59.5 137.5
t95.5 113.5t133.5 77t169 28zM829 565q3 119 -70 197t-192 78q-120 0 -202 -77t-91 -198h555z" />
    <glyph glyph-name="eacute" unicode="&#xe9;" horiz-adv-x="1075" 
d="M590 1124h-158l256 269h209zM559 993q202 0 321 -124t119 -324q0 -36 -8 -107h-723q9 -140 101.5 -223.5t238.5 -83.5q103 0 190.5 40t143.5 112v-211q-142 -92 -342 -92q-108 0 -202 33.5t-164.5 96t-111 159.5t-40.5 218q0 77 19.5 150t59.5 137.5t95.5 113.5t133.5 77
t169 28zM829 565q3 119 -70 197t-192 78q-120 0 -202 -77t-91 -198h555z" />
    <glyph glyph-name="ecircumflex" unicode="&#xea;" horiz-adv-x="1075" 
d="M477 1393h129l234 -269h-178l-121 142l-121 -142h-178zM559 993q202 0 321 -124t119 -324q0 -36 -8 -107h-723q9 -140 101.5 -223.5t238.5 -83.5q103 0 190.5 40t143.5 112v-211q-142 -92 -342 -92q-108 0 -202 33.5t-164.5 96t-111 159.5t-40.5 218q0 77 19.5 150
t59.5 137.5t95.5 113.5t133.5 77t169 28zM829 565q3 119 -70 197t-192 78q-120 0 -202 -77t-91 -198h555z" />
    <glyph glyph-name="edieresis" unicode="&#xeb;" horiz-adv-x="1075" 
d="M240 1260q0 44 32 77t76 33t77.5 -33t33.5 -77t-33.5 -76.5t-77.5 -32.5t-76 32.5t-32 76.5zM625 1260q0 44 32 77t76 33t77.5 -33t33.5 -77t-33.5 -76.5t-77.5 -32.5t-76 32.5t-32 76.5zM559 993q202 0 321 -124t119 -324q0 -36 -8 -107h-723q9 -140 101.5 -223.5
t238.5 -83.5q103 0 190.5 40t143.5 112v-211q-142 -92 -342 -92q-108 0 -202 33.5t-164.5 96t-111 159.5t-40.5 218q0 77 19.5 150t59.5 137.5t95.5 113.5t133.5 77t169 28zM829 565q3 119 -70 197t-192 78q-120 0 -202 -77t-91 -198h555z" />
    <glyph glyph-name="igrave" unicode="&#xec;" horiz-adv-x="475" 
d="M236 1104l-308 268h209l256 -268h-157zM131 973h203v-686q0 -165 18 -287h-202v686q0 135 -19 287z" />
    <glyph glyph-name="iacute" unicode="&#xed;" horiz-adv-x="475" 
d="M250 1104h-158l256 268h209zM131 973h203v-686q0 -165 18 -287h-202v686q0 135 -19 287z" />
    <glyph glyph-name="icircumflex" unicode="&#xee;" horiz-adv-x="475" 
d="M178 1372h129l234 -268h-179l-120 141l-121 -141h-178zM131 973h203v-686q0 -165 18 -287h-202v686q0 135 -19 287z" />
    <glyph glyph-name="idieresis" unicode="&#xef;" horiz-adv-x="475" 
d="M-59 1239q0 45 32 78t76 33t77.5 -33.5t33.5 -77.5t-33.5 -76.5t-77.5 -32.5t-76 32.5t-32 76.5zM326 1239q0 45 32 78t76 33t77.5 -33.5t33.5 -77.5t-33.5 -76.5t-77.5 -32.5t-76 32.5t-32 76.5zM131 973h203v-686q0 -165 18 -287h-202v686q0 135 -19 287z" />
    <glyph glyph-name="eth" unicode="&#xf0;" horiz-adv-x="1134" 
d="M567 993q108 0 185 -32q-79 122 -211 231l-187 -113l-47 80l154 92q-83 56 -170 97l100 102q101 -48 201 -119l178 107l51 -78l-149 -90q160 -136 259 -313.5t116 -376.5q6 -47 6 -95q0 -224 -134 -364.5t-352 -140.5q-217 0 -351 140.5t-134 364.5q0 226 133.5 367
t351.5 141zM567 836q-135 0 -218 -96.5t-83 -254.5q0 -157 83 -252.5t218 -95.5t218 95.5t83 252.5q0 158 -83 254.5t-218 96.5z" />
    <glyph glyph-name="ntilde" unicode="&#xf1;" horiz-adv-x="1144" 
d="M971 1374q-19 -246 -228 -246q-52 0 -100.5 19.5t-78.5 43t-67 43t-69 19.5q-57 0 -89 -30.5t-34 -83.5h-123q19 245 234 245q50 0 97 -19.5t77 -42.5t67 -42.5t68 -19.5q57 0 89 30.5t34 83.5h123zM125 973h192v-168h21q40 87 124.5 137.5t192.5 50.5q153 0 253 -98
t100 -254v-354q0 -129 18 -287h-203v592q0 113 -61.5 179.5t-165.5 66.5q-116 0 -192 -84t-76 -215v-539h-183v686q0 103 -20 287z" />
    <glyph glyph-name="ograve" unicode="&#xf2;" horiz-adv-x="1134" 
d="M528 1124l-307 269h209l256 -269h-158zM567 993q218 0 352 -142t134 -366t-134 -364.5t-352 -140.5q-217 0 -351 140.5t-134 364.5q0 226 133.5 367t351.5 141zM567 836q-135 0 -218 -96.5t-83 -254.5q0 -157 83 -252.5t218 -95.5t218 95.5t83 252.5q0 158 -83 254.5
t-218 96.5z" />
    <glyph glyph-name="oacute" unicode="&#xf3;" horiz-adv-x="1134" 
d="M606 1124h-157l256 269h208zM567 993q218 0 352 -142t134 -366t-134 -364.5t-352 -140.5q-217 0 -351 140.5t-134 364.5q0 226 133.5 367t351.5 141zM567 836q-135 0 -218 -96.5t-83 -254.5q0 -157 83 -252.5t218 -95.5t218 95.5t83 252.5q0 158 -83 254.5t-218 96.5z
" />
    <glyph glyph-name="ocircumflex" unicode="&#xf4;" horiz-adv-x="1134" 
d="M504 1393h129l233 -269h-178l-121 142l-121 -142h-178zM567 993q218 0 352 -142t134 -366t-134 -364.5t-352 -140.5q-217 0 -351 140.5t-134 364.5q0 226 133.5 367t351.5 141zM567 836q-135 0 -218 -96.5t-83 -254.5q0 -157 83 -252.5t218 -95.5t218 95.5t83 252.5
q0 158 -83 254.5t-218 96.5z" />
    <glyph glyph-name="otilde" unicode="&#xf5;" horiz-adv-x="1134" 
d="M963 1374q-19 -246 -228 -246q-52 0 -100.5 19.5t-78.5 43t-67 43t-69 19.5q-57 0 -89 -30.5t-34 -83.5h-123q19 245 234 245q50 0 97 -19.5t77 -42.5t67 -42.5t68 -19.5q57 0 89 30.5t34 83.5h123zM567 993q218 0 352 -142t134 -366t-134 -364.5t-352 -140.5
q-217 0 -351 140.5t-134 364.5q0 226 133.5 367t351.5 141zM567 836q-135 0 -218 -96.5t-83 -254.5q0 -157 83 -252.5t218 -95.5t218 95.5t83 252.5q0 158 -83 254.5t-218 96.5z" />
    <glyph glyph-name="odieresis" unicode="&#xf6;" horiz-adv-x="1134" 
d="M266 1260q0 44 32.5 77t76.5 33t77 -33t33 -77t-33 -76.5t-77 -32.5t-76.5 32.5t-32.5 76.5zM651 1260q0 44 32.5 77t76.5 33t77 -33t33 -77t-33 -76.5t-77 -32.5t-76.5 32.5t-32.5 76.5zM567 993q218 0 352 -142t134 -366t-134 -364.5t-352 -140.5q-217 0 -351 140.5
t-134 364.5q0 226 133.5 367t351.5 141zM567 836q-135 0 -218 -96.5t-83 -254.5q0 -157 83 -252.5t218 -95.5t218 95.5t83 252.5q0 158 -83 254.5t-218 96.5z" />
    <glyph glyph-name="divide" unicode="&#xf7;" horiz-adv-x="1024" 
d="M512 1018q52 0 90.5 -36.5t38.5 -86.5q0 -52 -38 -88.5t-91 -36.5t-90 36.5t-37 88.5q0 51 37 87t90 36zM70 610h884v-151h-884v151zM512 283q52 0 90.5 -36.5t38.5 -86.5q0 -52 -38 -89.5t-91 -37.5q-52 0 -89.5 37.5t-37.5 89.5q0 51 37 87t90 36z" />
    <glyph glyph-name="oslash" unicode="&#xf8;" horiz-adv-x="1134" 
d="M567 993q145 0 254 -65l133 184h133l-180 -250q146 -143 146 -377q0 -224 -134 -364.5t-352 -140.5q-145 0 -254 65l-133 -182h-133l180 246q-145 142 -145 376q0 226 133.5 367t351.5 141zM567 836q-135 0 -218 -96.5t-83 -254.5q0 -136 66 -231l391 539q-64 43 -156 43
zM868 485q0 140 -65 234l-391 -539q64 -43 155 -43q135 0 218 95.5t83 252.5z" />
    <glyph glyph-name="ugrave" unicode="&#xf9;" horiz-adv-x="1134" 
d="M557 1104l-307 268h209l256 -268h-158zM483 -20q-154 0 -250 94.5t-96 249.5v362q0 121 -18 287h203v-608q0 -111 57.5 -170.5t159.5 -59.5q120 0 194 82.5t74 216.5v539h184v-686q0 -145 19 -287h-189v168h-20q-42 -86 -123.5 -137t-194.5 -51z" />
    <glyph glyph-name="uacute" unicode="&#xfa;" horiz-adv-x="1134" 
d="M571 1104h-157l256 268h209zM483 -20q-154 0 -250 94.5t-96 249.5v362q0 121 -18 287h203v-608q0 -111 57.5 -170.5t159.5 -59.5q120 0 194 82.5t74 216.5v539h184v-686q0 -145 19 -287h-189v168h-20q-42 -86 -123.5 -137t-194.5 -51z" />
    <glyph glyph-name="ucircumflex" unicode="&#xfb;" horiz-adv-x="1134" 
d="M502 1372h129l233 -268h-178l-121 141l-121 -141h-178zM483 -20q-154 0 -250 94.5t-96 249.5v362q0 121 -18 287h203v-608q0 -111 57.5 -170.5t159.5 -59.5q120 0 194 82.5t74 216.5v539h184v-686q0 -145 19 -287h-189v168h-20q-42 -86 -123.5 -137t-194.5 -51z" />
    <glyph glyph-name="udieresis" unicode="&#xfc;" horiz-adv-x="1134" 
d="M262 1239q0 44 32.5 77.5t76.5 33.5t77 -33.5t33 -77.5t-33 -76.5t-77 -32.5t-76.5 32.5t-32.5 76.5zM647 1239q0 44 32.5 77.5t76.5 33.5t77 -33.5t33 -77.5t-33 -76.5t-77 -32.5t-76.5 32.5t-32.5 76.5zM483 -20q-154 0 -250 94.5t-96 249.5v362q0 121 -18 287h203
v-608q0 -111 57.5 -170.5t159.5 -59.5q120 0 194 82.5t74 216.5v539h184v-686q0 -145 19 -287h-189v168h-20q-42 -86 -123.5 -137t-194.5 -51z" />
    <glyph glyph-name="yacute" unicode="&#xfd;" horiz-adv-x="987" 
d="M502 1104h-158l256 268h209zM231 -358l168 385l-389 946h207l275 -742h14l268 742h203l-553 -1331h-193z" />
    <glyph glyph-name="thorn" unicode="&#xfe;" horiz-adv-x="1198" 
d="M328 186v-186q0 -170 20 -307h-203v1372q0 144 -20 287h203v-566h20q55 101 143.5 154t196.5 53q82 0 157 -32t136.5 -92.5t98 -160t36.5 -223.5t-36.5 -222.5t-98 -159t-136.5 -92t-157 -31.5q-110 0 -198.5 52.5t-141.5 153.5h-20zM641 840q-139 0 -229 -100.5
t-90 -254.5q0 -151 90 -250.5t229 -99.5q134 0 211.5 94t77.5 258t-77.5 258.5t-211.5 94.5z" />
    <glyph glyph-name="ydieresis" unicode="&#xff;" horiz-adv-x="987" 
d="M193 1239q0 45 32 78t76 33t77.5 -33.5t33.5 -77.5t-33.5 -76.5t-77.5 -32.5t-76 32.5t-32 76.5zM578 1239q0 45 32 78t76 33t77.5 -33.5t33.5 -77.5t-33.5 -76.5t-77.5 -32.5t-76 32.5t-32 76.5zM231 -358l168 385l-389 946h207l275 -742h14l268 742h203l-553 -1331
h-193z" />
    <glyph glyph-name="Amacron" unicode="&#x100;" horiz-adv-x="1290" 
d="M381 1550v127h528v-127h-528zM494 1352h303l483 -1352h-205l-127 365h-612l-129 -365h-197zM643 1212h-4l-250 -688h504z" />
    <glyph glyph-name="amacron" unicode="&#x101;" horiz-adv-x="1021" 
d="M238 1165v127h528v-127h-528zM688 145q-115 -165 -303 -165q-135 0 -220 73.5t-85 190.5q0 119 91 188.5t273 104.5q139 26 196.5 60t57.5 101q0 68 -52.5 108t-145.5 40q-189 0 -350 -164v197q66 53 163 83.5t199 30.5q170 0 270.5 -84.5t100.5 -230.5v-391
q0 -162 39 -287h-197l-16 145h-21zM698 506q-64 -67 -225 -105q-111 -26 -159 -62t-48 -93t42.5 -90t115.5 -33q118 0 196 81.5t78 215.5v86z" />
    <glyph glyph-name="Abreve" unicode="&#x102;" horiz-adv-x="1290" 
d="M647 1470q-139 0 -223 79.5t-86 213.5h131q30 -164 178 -164q146 0 176 164h131q-1 -133 -85 -213t-222 -80zM494 1352h303l483 -1352h-205l-127 365h-612l-129 -365h-197zM643 1212h-4l-250 -688h504z" />
    <glyph glyph-name="abreve" unicode="&#x103;" horiz-adv-x="1021" 
d="M502 1112q-139 0 -223 79.5t-86 213.5h131q30 -164 178 -164q146 0 176 164h131q-1 -133 -85 -213t-222 -80zM688 145q-115 -165 -303 -165q-135 0 -220 73.5t-85 190.5q0 119 91 188.5t273 104.5q139 26 196.5 60t57.5 101q0 68 -52.5 108t-145.5 40q-189 0 -350 -164
v197q66 53 163 83.5t199 30.5q170 0 270.5 -84.5t100.5 -230.5v-391q0 -162 39 -287h-197l-16 145h-21zM698 506q-64 -67 -225 -105q-111 -26 -159 -62t-48 -93t42.5 -90t115.5 -33q118 0 196 81.5t78 215.5v86z" />
    <glyph glyph-name="Aogonek" unicode="&#x104;" horiz-adv-x="1290" 
d="M494 1352h303l483 -1352h-61q-117 -66 -170.5 -123.5t-53.5 -122.5q0 -52 35 -83t98 -31q61 0 101 28v-110q-62 -35 -146 -35q-98 0 -170.5 54.5t-72.5 148.5q0 166 235 274l-127 365h-612l-129 -365h-197zM643 1212h-4l-250 -688h504z" />
    <glyph glyph-name="aogonek" unicode="&#x105;" horiz-adv-x="1021" 
d="M688 145q-115 -165 -303 -165q-135 0 -220 73.5t-85 190.5q0 119 91 188.5t273 104.5q139 26 196.5 60t57.5 101q0 68 -52.5 108t-145.5 40q-189 0 -350 -164v197q66 53 163 83.5t199 30.5q170 0 270.5 -84.5t100.5 -230.5v-391q0 -162 39 -287h-60q-203 -123 -203 -244
q0 -52 38.5 -84t99.5 -32q54 0 96 28v-110q-62 -35 -148 -35q-106 0 -173.5 57t-67.5 148q0 80 53.5 146t167.5 126l-16 145h-21zM698 506q-64 -67 -225 -105q-111 -26 -159 -62t-48 -93t42.5 -90t115.5 -33q118 0 196 81.5t78 215.5v86z" />
    <glyph glyph-name="Cacute" unicode="&#x106;" horiz-adv-x="1263" 
d="M803 1503h-158l256 269h209zM803 -20q-314 0 -508.5 193.5t-194.5 504.5q0 203 87.5 361t246 245.5t363.5 87.5q248 0 403 -125v-211q-90 80 -195.5 123t-213.5 43q-215 0 -352.5 -147.5t-137.5 -376.5q0 -124 40 -225t108.5 -166t157.5 -100t188 -35q106 0 212 41.5
t193 121.5v-211q-75 -60 -179.5 -92t-217.5 -32z" />
    <glyph glyph-name="cacute" unicode="&#x107;" horiz-adv-x="983" 
d="M616 1124h-157l256 269h209zM905 72q-143 -92 -313 -92q-100 0 -192 34.5t-163 97.5t-113 160.5t-42 214.5q0 224 139.5 365t364.5 141q170 0 309 -92v-211q-57 69 -135.5 107.5t-169.5 38.5q-151 0 -236.5 -98.5t-85.5 -252.5q0 -153 90 -250.5t242 -97.5q182 0 305 146
v-211z" />
    <glyph glyph-name="Ccircumflex" unicode="&#x108;" horiz-adv-x="1263" 
d="M672 1772h129l233 -269h-178l-121 142l-121 -142h-178zM803 -20q-314 0 -508.5 193.5t-194.5 504.5q0 203 87.5 361t246 245.5t363.5 87.5q248 0 403 -125v-211q-90 80 -195.5 123t-213.5 43q-215 0 -352.5 -147.5t-137.5 -376.5q0 -124 40 -225t108.5 -166t157.5 -100
t188 -35q106 0 212 41.5t193 121.5v-211q-75 -60 -179.5 -92t-217.5 -32z" />
    <glyph glyph-name="ccircumflex" unicode="&#x109;" horiz-adv-x="983" 
d="M502 1393h129l233 -269h-178l-121 142l-121 -142h-178zM905 72q-143 -92 -313 -92q-100 0 -192 34.5t-163 97.5t-113 160.5t-42 214.5q0 224 139.5 365t364.5 141q170 0 309 -92v-211q-57 69 -135.5 107.5t-169.5 38.5q-151 0 -236.5 -98.5t-85.5 -252.5
q0 -153 90 -250.5t242 -97.5q182 0 305 146v-211z" />
    <glyph glyph-name="Cdotaccent" unicode="&#x10a;" horiz-adv-x="1263" 
d="M803 -20q-314 0 -508.5 193.5t-194.5 504.5q0 203 87.5 361t246 245.5t363.5 87.5q248 0 403 -125v-211q-90 80 -195.5 123t-213.5 43q-215 0 -352.5 -147.5t-137.5 -376.5q0 -124 40 -225t108.5 -166t157.5 -100t188 -35q106 0 212 41.5t193 121.5v-211
q-75 -60 -179.5 -92t-217.5 -32zM672 -274q0 44 32 77t76 33t77.5 -33t33.5 -77t-33.5 -76.5t-77.5 -32.5t-76 32.5t-32 76.5z" />
    <glyph glyph-name="cdotaccent" unicode="&#x10b;" horiz-adv-x="983" 
d="M905 72q-143 -92 -313 -92q-100 0 -192 34.5t-163 97.5t-113 160.5t-42 214.5q0 224 139.5 365t364.5 141q170 0 309 -92v-211q-57 69 -135.5 107.5t-169.5 38.5q-151 0 -236.5 -98.5t-85.5 -252.5q0 -153 90 -250.5t242 -97.5q182 0 305 146v-211zM451 -274q0 44 32 77
t76 33t77.5 -33t33.5 -77t-33.5 -76.5t-77.5 -32.5t-76 32.5t-32 76.5z" />
    <glyph glyph-name="Ccaron" unicode="&#x10c;" horiz-adv-x="1263" 
d="M723 1503l-236 269h179l120 -142l121 142h178l-233 -269h-129zM803 -20q-314 0 -508.5 193.5t-194.5 504.5q0 203 87.5 361t246 245.5t363.5 87.5q248 0 403 -125v-211q-90 80 -195.5 123t-213.5 43q-215 0 -352.5 -147.5t-137.5 -376.5q0 -124 40 -225t108.5 -166
t157.5 -100t188 -35q106 0 212 41.5t193 121.5v-211q-75 -60 -179.5 -92t-217.5 -32z" />
    <glyph glyph-name="ccaron" unicode="&#x10d;" horiz-adv-x="983" 
d="M502 1124l-236 269h178l121 -142l121 142h178l-233 -269h-129zM905 72q-143 -92 -313 -92q-100 0 -192 34.5t-163 97.5t-113 160.5t-42 214.5q0 224 139.5 365t364.5 141q170 0 309 -92v-211q-57 69 -135.5 107.5t-169.5 38.5q-151 0 -236.5 -98.5t-85.5 -252.5
q0 -153 90 -250.5t242 -97.5q182 0 305 146v-211z" />
    <glyph glyph-name="Dcaron" unicode="&#x10e;" horiz-adv-x="1402" 
d="M584 1483l-236 268h178l121 -141l121 141h178l-233 -268h-129zM164 1352h416q327 0 525 -185.5t198 -490.5t-198 -490.5t-525 -185.5h-416v1352zM362 1178v-1004h209q241 0 385 137.5t144 366.5q0 226 -145 363t-384 137h-209z" />
    <glyph glyph-name="dcaron" unicode="&#x10f;" horiz-adv-x="1421" 
d="M868 186h-20q-55 -101 -143 -153.5t-197 -52.5q-81 0 -156 31.5t-136 92t-97.5 160t-36.5 223.5t36.5 223t97.5 159t136 92t156 32q112 0 201 -53t141 -154h20v187q0 185 -18 379h201v-1065q0 -147 18 -287h-203v186zM1169 983l70 369h174l-123 -369h-121zM557 135
q139 0 229.5 99.5t90.5 250.5q0 154 -90.5 254.5t-229.5 100.5q-134 0 -211.5 -94.5t-77.5 -258.5t77.5 -258t211.5 -94z" />
    <glyph glyph-name="Dcroat" unicode="&#x110;" horiz-adv-x="1402" 
d="M20 625v102h144v625h416q327 0 525 -185.5t198 -490.5t-198 -490.5t-525 -185.5h-416v625h-144zM362 1178v-451h412v-102h-412v-451h209q241 0 385 137.5t144 366.5q0 226 -145 363t-384 137h-209z" />
    <glyph glyph-name="dcroat" unicode="&#x111;" horiz-adv-x="1196" 
d="M868 186h-20q-55 -101 -143 -153.5t-197 -52.5q-81 0 -156 31.5t-136 92t-97.5 160t-36.5 223.5t36.5 223t97.5 159t136 92t156 32q112 0 201 -53t141 -154h20v187q0 71 -2 112h-239v105h235q-9 124 -12 162h201v-162h166v-105h-166v-798q0 -147 18 -287h-203v186z
M557 135q139 0 229.5 99.5t90.5 250.5q0 154 -90.5 254.5t-229.5 100.5q-134 0 -211.5 -94.5t-77.5 -258.5t77.5 -258t211.5 -94z" />
    <glyph glyph-name="Emacron" unicode="&#x112;" horiz-adv-x="1064" 
d="M309 1550v127h529v-127h-529zM164 1352h807v-174h-609v-408h564v-170h-564v-426h619v-174h-817v1352z" />
    <glyph glyph-name="emacron" unicode="&#x113;" horiz-adv-x="1075" 
d="M276 1165v127h529v-127h-529zM559 993q202 0 321 -124t119 -324q0 -36 -8 -107h-723q9 -140 101.5 -223.5t238.5 -83.5q103 0 190.5 40t143.5 112v-211q-142 -92 -342 -92q-108 0 -202 33.5t-164.5 96t-111 159.5t-40.5 218q0 77 19.5 150t59.5 137.5t95.5 113.5
t133.5 77t169 28zM829 565q3 119 -70 197t-192 78q-120 0 -202 -77t-91 -198h555z" />
    <glyph glyph-name="Ebreve" unicode="&#x114;" horiz-adv-x="1064" 
d="M573 1470q-139 0 -223 79.5t-86 213.5h131q30 -164 178 -164q147 0 177 164h131q-1 -133 -85.5 -213t-222.5 -80zM164 1352h807v-174h-609v-408h564v-170h-564v-426h619v-174h-817v1352z" />
    <glyph glyph-name="ebreve" unicode="&#x115;" horiz-adv-x="1075" 
d="M543 1112q-140 0 -224.5 80t-85.5 213h132q30 -164 178 -164q146 0 176 164h131q-1 -133 -85 -213t-222 -80zM559 993q202 0 321 -124t119 -324q0 -36 -8 -107h-723q9 -140 101.5 -223.5t238.5 -83.5q103 0 190.5 40t143.5 112v-211q-142 -92 -342 -92q-108 0 -202 33.5
t-164.5 96t-111 159.5t-40.5 218q0 77 19.5 150t59.5 137.5t95.5 113.5t133.5 77t169 28zM829 565q3 119 -70 197t-192 78q-120 0 -202 -77t-91 -198h555z" />
    <glyph glyph-name="Edotaccent" unicode="&#x116;" horiz-adv-x="1064" 
d="M164 1352h807v-174h-609v-408h564v-170h-564v-426h619v-174h-817v1352zM514 -274q0 44 32.5 77t76.5 33t77 -33t33 -77t-33 -76.5t-77 -32.5t-76.5 32.5t-32.5 76.5z" />
    <glyph glyph-name="edotaccent" unicode="&#x117;" horiz-adv-x="1075" 
d="M559 993q202 0 321 -124t119 -324q0 -36 -8 -107h-723q9 -140 101.5 -223.5t238.5 -83.5q103 0 190.5 40t143.5 112v-211q-142 -92 -342 -92q-108 0 -202 33.5t-164.5 96t-111 159.5t-40.5 218q0 77 19.5 150t59.5 137.5t95.5 113.5t133.5 77t169 28zM829 565
q3 119 -70 197t-192 78q-120 0 -202 -77t-91 -198h555zM451 -274q0 44 32 77t76 33t77.5 -33t33.5 -77t-33.5 -76.5t-77.5 -32.5t-76 32.5t-32 76.5z" />
    <glyph glyph-name="Eogonek" unicode="&#x118;" horiz-adv-x="1064" 
d="M819 0h-655v1352h807v-174h-609v-408h564v-170h-564v-426h619v-174q-140 -60 -207 -122t-67 -132q0 -51 34.5 -78.5t98.5 -27.5q52 0 100 28v-110q-62 -35 -145 -35q-106 0 -175 58t-69 147t69.5 160t198.5 112z" />
    <glyph glyph-name="eogonek" unicode="&#x119;" horiz-adv-x="1075" 
d="M692 -18v4q-44 -6 -92 -6q-108 0 -202 33.5t-164.5 96t-111 159.5t-40.5 218q0 77 19.5 150t59.5 137.5t95.5 113.5t133.5 77t169 28q202 0 321 -124t119 -324q0 -36 -8 -107h-723q9 -140 101.5 -223.5t238.5 -83.5q103 0 190.5 40t143.5 112v-211q-3 -2 -16 -11t-29 -18
q-114 -67 -176 -140t-62 -139q0 -56 40 -90t102 -34q54 0 92 28v-110q-59 -35 -143 -35q-104 0 -175 61t-71 150q0 75 51.5 141t136.5 107zM829 565q3 119 -70 197t-192 78q-120 0 -202 -77t-91 -198h555z" />
    <glyph glyph-name="Ecaron" unicode="&#x11a;" horiz-adv-x="1064" 
d="M510 1483l-236 268h179l120 -141l121 141h178l-233 -268h-129zM164 1352h807v-174h-609v-408h564v-170h-564v-426h619v-174h-817v1352z" />
    <glyph glyph-name="ecaron" unicode="&#x11b;" horiz-adv-x="1075" 
d="M477 1124l-235 269h178l121 -142l121 142h178l-234 -269h-129zM559 993q202 0 321 -124t119 -324q0 -36 -8 -107h-723q9 -140 101.5 -223.5t238.5 -83.5q103 0 190.5 40t143.5 112v-211q-142 -92 -342 -92q-108 0 -202 33.5t-164.5 96t-111 159.5t-40.5 218
q0 77 19.5 150t59.5 137.5t95.5 113.5t133.5 77t169 28zM829 565q3 119 -70 197t-192 78q-120 0 -202 -77t-91 -198h555z" />
    <glyph glyph-name="Gcircumflex" unicode="&#x11c;" horiz-adv-x="1374" 
d="M711 1772h129l233 -269h-178l-121 142l-121 -142h-178zM1067 662h205v-558q-158 -116 -457 -124q-159 0 -293.5 52t-226.5 144.5t-143.5 222t-51.5 281.5q0 202 86 359t244.5 245t364.5 88q272 0 417 -125v-211q-86 77 -197.5 121.5t-223.5 44.5q-146 0 -258.5 -71
t-172 -189.5t-59.5 -263.5q0 -150 62 -270.5t179 -191.5t269 -73q133 3 266 52v272q0 116 -10 195z" />
    <glyph glyph-name="gcircumflex" unicode="&#x11d;" horiz-adv-x="1196" 
d="M549 1393h129l233 -269h-178l-121 142l-120 -142h-179zM868 256h-20q-54 -100 -142 -153.5t-198 -53.5q-190 0 -308 131t-118 342q0 210 118.5 340.5t307.5 130.5q113 0 200.5 -53t139.5 -154h20l-20 187h203v-877q0 -189 -130 -306.5t-341 -117.5q-180 0 -365 76v191
q184 -115 350 -115q137 0 220 81t83 216v135zM557 203q139 0 229.5 89.5t90.5 225.5q0 138 -90.5 229t-229.5 91q-134 0 -211.5 -84.5t-77.5 -233.5t77.5 -233t211.5 -84z" />
    <glyph glyph-name="Gbreve" unicode="&#x11e;" horiz-adv-x="1374" 
d="M776 1491q-139 0 -223 79.5t-86 213.5h131q30 -164 178 -164q146 0 176 164h131q-1 -133 -85 -213t-222 -80zM1067 662h205v-558q-158 -116 -457 -124q-159 0 -293.5 52t-226.5 144.5t-143.5 222t-51.5 281.5q0 202 86 359t244.5 245t364.5 88q272 0 417 -125v-211
q-86 77 -197.5 121.5t-223.5 44.5q-146 0 -258.5 -71t-172 -189.5t-59.5 -263.5q0 -150 62 -270.5t179 -191.5t269 -73q133 3 266 52v272q0 116 -10 195z" />
    <glyph glyph-name="gbreve" unicode="&#x11f;" horiz-adv-x="1196" 
d="M567 1112q-139 0 -223 79.5t-86 213.5h131q30 -164 178 -164q146 0 176 164h131q-1 -133 -85 -213t-222 -80zM868 256h-20q-54 -100 -142 -153.5t-198 -53.5q-190 0 -308 131t-118 342q0 210 118.5 340.5t307.5 130.5q113 0 200.5 -53t139.5 -154h20l-20 187h203v-877
q0 -189 -130 -306.5t-341 -117.5q-180 0 -365 76v191q184 -115 350 -115q137 0 220 81t83 216v135zM557 203q139 0 229.5 89.5t90.5 225.5q0 138 -90.5 229t-229.5 91q-134 0 -211.5 -84.5t-77.5 -233.5t77.5 -233t211.5 -84z" />
    <glyph glyph-name="Gdotaccent" unicode="&#x120;" horiz-adv-x="1374" 
d="M645 1638q0 44 32.5 77.5t76.5 33.5t77 -33.5t33 -77.5t-33 -76t-77 -32t-76.5 32t-32.5 76zM1067 662h205v-558q-158 -116 -457 -124q-159 0 -293.5 52t-226.5 144.5t-143.5 222t-51.5 281.5q0 202 86 359t244.5 245t364.5 88q272 0 417 -125v-211q-86 77 -197.5 121.5
t-223.5 44.5q-146 0 -258.5 -71t-172 -189.5t-59.5 -263.5q0 -150 62 -270.5t179 -191.5t269 -73q133 3 266 52v272q0 116 -10 195z" />
    <glyph glyph-name="gdotaccent" unicode="&#x121;" horiz-adv-x="1196" 
d="M457 1260q0 44 32 77t76 33t77.5 -33t33.5 -77t-33.5 -76.5t-77.5 -32.5t-76 32.5t-32 76.5zM868 256h-20q-54 -100 -142 -153.5t-198 -53.5q-190 0 -308 131t-118 342q0 210 118.5 340.5t307.5 130.5q113 0 200.5 -53t139.5 -154h20l-20 187h203v-877
q0 -189 -130 -306.5t-341 -117.5q-180 0 -365 76v191q184 -115 350 -115q137 0 220 81t83 216v135zM557 203q139 0 229.5 89.5t90.5 225.5q0 138 -90.5 229t-229.5 91q-134 0 -211.5 -84.5t-77.5 -233.5t77.5 -233t211.5 -84z" />
    <glyph glyph-name="Gcommaaccent" unicode="&#x122;" horiz-adv-x="1374" 
d="M1067 662h205v-558q-158 -116 -457 -124q-159 0 -293.5 52t-226.5 144.5t-143.5 222t-51.5 281.5q0 202 86 359t244.5 245t364.5 88q272 0 417 -125v-211q-86 77 -197.5 121.5t-223.5 44.5q-146 0 -258.5 -71t-172 -189.5t-59.5 -263.5q0 -150 62 -270.5t179 -191.5
t269 -73q133 3 266 52v272q0 116 -10 195zM635 -471l70 369h174l-123 -369h-121z" />
    <glyph glyph-name="gcommaaccent" unicode="&#x123;" horiz-adv-x="1196" 
d="M721 1495l-70 -369h-174l123 369h121zM868 256h-20q-54 -100 -142 -153.5t-198 -53.5q-190 0 -308 131t-118 342q0 210 118.5 340.5t307.5 130.5q113 0 200.5 -53t139.5 -154h20l-20 187h203v-877q0 -189 -130 -306.5t-341 -117.5q-180 0 -365 76v191q184 -115 350 -115
q137 0 220 81t83 216v135zM557 203q139 0 229.5 89.5t90.5 225.5q0 138 -90.5 229t-229.5 91q-134 0 -211.5 -84.5t-77.5 -233.5t77.5 -233t211.5 -84z" />
    <glyph glyph-name="Hcircumflex" unicode="&#x124;" horiz-adv-x="1368" 
d="M621 1751h129l233 -268h-178l-121 141l-121 -141h-178zM1006 1352h198v-1352h-198v596h-644v-596h-198v1352h198v-582h644v582z" />
    <glyph glyph-name="hcircumflex" unicode="&#x125;" horiz-adv-x="1144" 
d="M170 1751h129l233 -268h-178l-121 141l-120 -141h-179zM125 1352h203v-545h20q44 90 124.5 138t184.5 48q154 0 252.5 -99.5t98.5 -256.5v-350q0 -149 18 -287h-203v596q0 110 -61.5 176t-163.5 66q-118 0 -194 -83t-76 -212v-543h-183v973q0 187 -20 379z" />
    <glyph glyph-name="Hbar" unicode="&#x126;" horiz-adv-x="1368" 
d="M1006 1352h198v-1352h-198v596h-644v-596h-198v1352h198v-246h644v246zM362 770h644v234h-644v-234z" />
    <glyph glyph-name="hbar" unicode="&#x127;" horiz-adv-x="1144" 
d="M-47 1090v104h184q-3 89 -12 158h203v-158h215v-104h-215v-283h20q44 90 124.5 138t184.5 48q154 0 252.5 -99.5t98.5 -256.5v-350q0 -149 18 -287h-203v596q0 110 -61.5 176t-163.5 66q-118 0 -194 -83t-76 -212v-543h-183v973q0 76 -2 117h-190z" />
    <glyph glyph-name="Itilde" unicode="&#x128;" horiz-adv-x="526" 
d="M657 1733q-19 -246 -227 -246q-52 0 -100.5 19.5t-78.5 43t-67 43t-69 19.5q-56 0 -88.5 -31t-34.5 -84h-123q19 246 233 246q50 0 97 -19.5t77.5 -43t67.5 -43t68 -19.5q56 0 88.5 31t34.5 84h122zM164 1352h198v-1352h-198v1352z" />
    <glyph glyph-name="itilde" unicode="&#x129;" horiz-adv-x="475" 
d="M637 1354q-19 -246 -227 -246q-52 0 -100.5 19.5t-79 43t-67.5 43t-69 19.5q-56 0 -88.5 -31t-34.5 -84h-123q19 246 234 246q50 0 97 -19.5t77 -43t67 -43t68 -19.5q56 0 88.5 31t34.5 84h123zM131 973h203v-686q0 -165 18 -287h-202v686q0 135 -19 287z" />
    <glyph glyph-name="Imacron" unicode="&#x12a;" horiz-adv-x="526" 
d="M0 1550v127h528v-127h-528zM164 1352h198v-1352h-198v1352z" />
    <glyph glyph-name="imacron" unicode="&#x12b;" horiz-adv-x="475" 
d="M-23 1139v127h529v-127h-529zM131 973h203v-686q0 -165 18 -287h-202v686q0 135 -19 287z" />
    <glyph glyph-name="Ibreve" unicode="&#x12c;" horiz-adv-x="526" 
d="M264 1470q-139 0 -223 79.5t-86 213.5h131q30 -164 178 -164q146 0 176 164h131q-1 -133 -85 -213t-222 -80zM164 1352h198v-1352h-198v1352z" />
    <glyph glyph-name="ibreve" unicode="&#x12d;" horiz-adv-x="475" 
d="M244 1092q-140 0 -224.5 79.5t-85.5 212.5h132q29 -163 178 -163q147 0 176 163h131q-1 -133 -85 -212.5t-222 -79.5zM131 973h203v-686q0 -165 18 -287h-202v686q0 135 -19 287z" />
    <glyph glyph-name="Iogonek" unicode="&#x12e;" horiz-adv-x="526" 
d="M164 1352h198v-1352q-139 -113 -139 -227q0 -65 37.5 -99t101.5 -34q57 0 95 28v-110q-62 -35 -146 -35q-99 0 -171 57.5t-72 163.5q0 157 165 256h-69v1352z" />
    <glyph glyph-name="iogonek" unicode="&#x12f;" horiz-adv-x="475" 
d="M238 1376q51 0 84.5 -33t33.5 -83q0 -47 -34.5 -81t-83.5 -34q-51 0 -85 33.5t-34 81.5q0 50 34 83t85 33zM219 0h-74v686q0 173 -18 287h203v-686q0 -152 18 -287q-149 -105 -149 -227q0 -65 37.5 -99t101.5 -34q56 0 94 28v-110q-62 -35 -145 -35q-99 0 -171.5 57.5
t-72.5 163.5q0 70 40.5 132t135.5 124z" />
    <glyph glyph-name="Idotaccent" unicode="&#x130;" horiz-adv-x="526" 
d="M164 1352h198v-1352h-198v1352zM154 -274q0 44 32 77t76 33t77.5 -33t33.5 -77t-33.5 -76.5t-77.5 -32.5t-76 32.5t-32 76.5z" />
    <glyph glyph-name="dotlessi" unicode="&#x131;" horiz-adv-x="475" 
d="M131 973h203v-686q0 -165 18 -287h-202v686q0 135 -19 287z" />
    <glyph glyph-name="IJ" unicode="&#x132;" horiz-adv-x="1308" 
d="M164 1352h198v-1352h-198v1352zM1145 358q0 -176 -100.5 -277t-280.5 -101q-126 0 -258 57v190q108 -77 227 -77q103 0 158 57t55 149v996h199v-994z" />
    <glyph glyph-name="ij" unicode="&#x133;" horiz-adv-x="950" 
d="M238 1376q51 0 84.5 -33t33.5 -83q0 -47 -34.5 -81t-83.5 -34q-51 0 -85 33.5t-34 81.5q0 50 34 83t85 33zM713 1376q51 0 84.5 -33t33.5 -83q0 -47 -34.5 -81t-83.5 -34q-51 0 -85 33.5t-34 81.5q0 50 34 83t85 33zM127 973h203v-686q0 -152 18 -287h-203v686
q0 173 -18 287zM823 -287l-202 -26v999q0 112 -19 287h203v-973q0 -167 18 -287z" />
    <glyph glyph-name="Jcircumflex" unicode="&#x134;" horiz-adv-x="782" 
d="M422 1751h129l233 -268h-178l-121 141l-120 -141h-179zM618 358q0 -176 -100 -277t-280 -101q-126 0 -258 57v190q108 -77 227 -77q103 0 158 57t55 149v996h198v-994z" />
    <glyph glyph-name="jcircumflex" unicode="&#x135;" horiz-adv-x="475" 
d="M178 1372h129l234 -268h-179l-120 141l-121 -141h-178zM352 -287l-202 -26v999q0 105 -19 287h203v-973q0 -138 18 -287z" />
    <glyph glyph-name="Kcommaaccent" unicode="&#x136;" horiz-adv-x="1198" 
d="M948 0l-583 674v2l593 676h236l-604 -674l604 -678h-246zM164 1352h198v-1352h-198v1352zM494 -471l69 369h174l-123 -369h-120z" />
    <glyph glyph-name="kcommaaccent" unicode="&#x137;" horiz-adv-x="1048" 
d="M819 0l-467 498h-20v-211q0 -175 20 -287h-205v973q0 203 -18 379h203v-815h20l389 436h215l-409 -459l502 -514h-230zM410 -471l69 369h174l-123 -369h-120z" />
    <glyph glyph-name="Lacute" unicode="&#x139;" horiz-adv-x="999" 
d="M348 1483h-158l256 268h209zM164 0v1352h198v-1178h570v-174h-768z" />
    <glyph glyph-name="lacute" unicode="&#x13a;" horiz-adv-x="475" 
d="M305 1483h-158l256 268h209zM348 0h-203v973q0 168 -18 379h203v-1065q0 -121 18 -287z" />
    <glyph glyph-name="Lcommaaccent" unicode="&#x13b;" horiz-adv-x="999" 
d="M164 0v1352h198v-1178h570v-174h-768zM426 -471l70 369h174l-123 -369h-121z" />
    <glyph glyph-name="lcommaaccent" unicode="&#x13c;" horiz-adv-x="475" 
d="M348 0h-203v973q0 168 -18 379h203v-1065q0 -121 18 -287zM92 -471l70 369h174l-123 -369h-121z" />
    <glyph glyph-name="Lcaron" unicode="&#x13d;" horiz-adv-x="999" 
d="M578 1024l69 369h174l-123 -369h-120zM164 0v1352h198v-1178h570v-174h-768z" />
    <glyph glyph-name="lcaron" unicode="&#x13e;" horiz-adv-x="698" 
d="M348 0h-203v973q0 168 -18 379h203v-1065q0 -121 18 -287zM446 983l70 369h174l-123 -369h-121z" />
    <glyph glyph-name="Ldot" unicode="&#x13f;" horiz-adv-x="999" 
d="M164 0v1352h198v-1178h570v-174h-768zM582 756q0 48 33.5 82t82.5 34q47 0 82 -34.5t35 -81.5q0 -50 -33.5 -83.5t-83.5 -33.5q-49 0 -82.5 33.5t-33.5 83.5z" />
    <glyph glyph-name="ldot" unicode="&#x140;" horiz-adv-x="649" 
d="M348 0h-203v973q0 168 -18 379h203v-1065q0 -121 18 -287zM449 676q0 48 33.5 82.5t82.5 34.5q47 0 82 -35t35 -82q0 -50 -34 -83.5t-83 -33.5t-82.5 33.5t-33.5 83.5z" />
    <glyph glyph-name="Lstroke" unicode="&#x141;" horiz-adv-x="999" 
d="M164 0v469l-123 -90v123l123 90v760h198v-615l326 236v-119l-326 -238v-442h570v-174h-768z" />
    <glyph glyph-name="lstroke" unicode="&#x142;" horiz-adv-x="514" 
d="M369 0h-203v549l-125 -92v123l125 90v303q0 157 -19 379h203v-549l123 90v-119l-123 -90v-397q0 -112 19 -287z" />
    <glyph glyph-name="Nacute" unicode="&#x143;" horiz-adv-x="1402" 
d="M725 1483h-158l256 268h209zM1044 1352h195v-1352h-229l-654 1085h-8v-1085h-194v1352h229l651 -1078h10v1078z" />
    <glyph glyph-name="nacute" unicode="&#x144;" horiz-adv-x="1144" 
d="M584 1124h-158l256 269h209zM125 973h192v-168h21q40 87 124.5 137.5t192.5 50.5q153 0 253 -98t100 -254v-354q0 -129 18 -287h-203v592q0 113 -61.5 179.5t-165.5 66.5q-116 0 -192 -84t-76 -215v-539h-183v686q0 103 -20 287z" />
    <glyph glyph-name="Ncommaaccent" unicode="&#x145;" horiz-adv-x="1402" 
d="M1044 1352h195v-1352h-229l-654 1085h-8v-1085h-194v1352h229l651 -1078h10v1078zM575 -471l70 369h174l-123 -369h-121z" />
    <glyph glyph-name="ncommaaccent" unicode="&#x146;" horiz-adv-x="1144" 
d="M125 973h192v-168h21q40 87 124.5 137.5t192.5 50.5q153 0 253 -98t100 -254v-354q0 -129 18 -287h-203v592q0 113 -61.5 179.5t-165.5 66.5q-116 0 -192 -84t-76 -215v-539h-183v686q0 103 -20 287zM455 -471l69 369h174l-123 -369h-120z" />
    <glyph glyph-name="Ncaron" unicode="&#x147;" horiz-adv-x="1402" 
d="M633 1483l-236 268h178l121 -141l121 141h178l-233 -268h-129zM1044 1352h195v-1352h-229l-654 1085h-8v-1085h-194v1352h229l651 -1078h10v1078z" />
    <glyph glyph-name="ncaron" unicode="&#x148;" horiz-adv-x="1144" 
d="M512 1124l-236 269h179l120 -142l121 142h178l-233 -269h-129zM125 973h192v-168h21q40 87 124.5 137.5t192.5 50.5q153 0 253 -98t100 -254v-354q0 -129 18 -287h-203v592q0 113 -61.5 179.5t-165.5 66.5q-116 0 -192 -84t-76 -215v-539h-183v686q0 103 -20 287z" />
    <glyph glyph-name="Eng" unicode="&#x14a;" horiz-adv-x="1402" 
d="M1239 -31q0 -176 -100.5 -277.5t-280.5 -101.5q-123 0 -258 58v190q109 -78 227 -78q103 0 158 57.5t55 149.5v33l-684 1085h-8v-1085h-194v1352h229l661 -1055v1055h195v-1383z" />
    <glyph glyph-name="eng" unicode="&#x14b;" horiz-adv-x="1144" 
d="M125 973h192v-168h21q40 86 123 137t186 51q159 0 260 -98t101 -254v-641q0 -138 18 -287l-203 -26v905q0 113 -61.5 179.5t-167.5 66.5q-117 0 -191.5 -83.5t-74.5 -215.5v-539h-183v686q0 103 -20 287z" />
    <glyph glyph-name="Omacron" unicode="&#x14c;" horiz-adv-x="1507" 
d="M489 1571v127h529v-127h-529zM754 1372q287 0 470 -194t183 -500q0 -203 -83 -362t-232.5 -247.5t-339.5 -88.5q-189 0 -338 88t-231.5 247.5t-82.5 362.5q0 201 83 359.5t232.5 246.5t338.5 88zM754 1202q-201 0 -327 -145.5t-126 -378.5q0 -235 125 -380.5t326 -145.5
t327.5 146.5t126.5 379.5t-125.5 378.5t-326.5 145.5z" />
    <glyph glyph-name="omacron" unicode="&#x14d;" horiz-adv-x="1134" 
d="M303 1165v127h528v-127h-528zM567 993q218 0 352 -142t134 -366t-134 -364.5t-352 -140.5q-217 0 -351 140.5t-134 364.5q0 226 133.5 367t351.5 141zM567 836q-135 0 -218 -96.5t-83 -254.5q0 -157 83 -252.5t218 -95.5t218 95.5t83 252.5q0 158 -83 254.5t-218 96.5z
" />
    <glyph glyph-name="Obreve" unicode="&#x14e;" horiz-adv-x="1507" 
d="M756 1491q-140 0 -224.5 80t-85.5 213h132q30 -164 178 -164q146 0 176 164h131q-1 -133 -85 -213t-222 -80zM754 1372q287 0 470 -194t183 -500q0 -203 -83 -362t-232.5 -247.5t-339.5 -88.5q-189 0 -338 88t-231.5 247.5t-82.5 362.5q0 201 83 359.5t232.5 246.5
t338.5 88zM754 1202q-201 0 -327 -145.5t-126 -378.5q0 -235 125 -380.5t326 -145.5t327.5 146.5t126.5 379.5t-125.5 378.5t-326.5 145.5z" />
    <glyph glyph-name="obreve" unicode="&#x14f;" horiz-adv-x="1134" 
d="M569 1112q-139 0 -223 79.5t-86 213.5h131q30 -164 178 -164q146 0 176 164h132q-1 -133 -85.5 -213t-222.5 -80zM567 993q218 0 352 -142t134 -366t-134 -364.5t-352 -140.5q-217 0 -351 140.5t-134 364.5q0 226 133.5 367t351.5 141zM567 836q-135 0 -218 -96.5
t-83 -254.5q0 -157 83 -252.5t218 -95.5t218 95.5t83 252.5q0 158 -83 254.5t-218 96.5z" />
    <glyph glyph-name="Ohungarumlaut" unicode="&#x150;" horiz-adv-x="1507" 
d="M516 1505l119 330h162l-170 -330h-111zM825 1505l119 330h162l-168 -330h-113zM754 1372q287 0 470 -194t183 -500q0 -203 -83 -362t-232.5 -247.5t-339.5 -88.5q-189 0 -338 88t-231.5 247.5t-82.5 362.5q0 201 83 359.5t232.5 246.5t338.5 88zM754 1202
q-201 0 -327 -145.5t-126 -378.5q0 -235 125 -380.5t326 -145.5t327.5 146.5t126.5 379.5t-125.5 378.5t-326.5 145.5z" />
    <glyph glyph-name="ohungarumlaut" unicode="&#x151;" horiz-adv-x="1134" 
d="M319 1126l119 330h162l-170 -330h-111zM629 1126l119 330h161l-168 -330h-112zM567 993q218 0 352 -142t134 -366t-134 -364.5t-352 -140.5q-217 0 -351 140.5t-134 364.5q0 226 133.5 367t351.5 141zM567 836q-135 0 -218 -96.5t-83 -254.5q0 -157 83 -252.5t218 -95.5
t218 95.5t83 252.5q0 158 -83 254.5t-218 96.5z" />
    <glyph glyph-name="OE" unicode="&#x152;" horiz-adv-x="2045" 
d="M713 1372q131 0 244 -51t188 -145v176h807v-174h-609v-408h564v-170h-564v-426h619v-174h-817v176q-74 -95 -187.5 -145.5t-246.5 -50.5q-128 0 -241 51.5t-194.5 142.5t-128.5 221.5t-47 282.5q0 200 81.5 359.5t221 247t310.5 87.5zM723 1202q-184 0 -303 -146
t-119 -378q0 -233 118.5 -379.5t301.5 -146.5q184 0 304 147t120 379t-119 378t-303 146z" />
    <glyph glyph-name="oe" unicode="&#x153;" horiz-adv-x="1859" 
d="M567 993q127 0 228.5 -50.5t165.5 -141.5q63 89 160 140.5t222 51.5q202 0 321.5 -124t119.5 -324q0 -36 -8 -107h-723q9 -140 101.5 -223.5t238.5 -83.5q103 0 190 40t143 112v-211q-142 -92 -342 -92q-133 0 -243.5 49t-179.5 143q-64 -92 -165 -142t-229 -50
q-217 0 -351 140.5t-134 364.5q0 226 133.5 367t351.5 141zM1614 565q3 119 -70 197t-192 78q-120 0 -202 -77t-91 -198h555zM567 836q-135 0 -218 -96.5t-83 -254.5q0 -157 83 -252.5t218 -95.5q127 0 208.5 86.5t90.5 229.5v34v33q-9 143 -90.5 229.5t-208.5 86.5z" />
    <glyph glyph-name="Racute" unicode="&#x154;" horiz-adv-x="1212" 
d="M713 1483h-158l256 268h209zM164 1352h487q207 0 341 -116.5t134 -297.5q0 -178 -118 -293t-324 -115l522 -530h-241l-603 631v-631h-198v1352zM924 920q0 114 -80.5 189t-204.5 75h-277v-527h248q146 0 230 73.5t84 189.5z" />
    <glyph glyph-name="racute" unicode="&#x155;" horiz-adv-x="757" 
d="M440 1118h-157l256 268h209zM143 0v686q0 150 -20 287h190v-215h21q28 114 104 171.5t170 57.5q77 0 133 -33v-180q-67 55 -147 55q-127 0 -196.5 -95.5t-69.5 -266.5v-180q0 -182 18 -287h-203z" />
    <glyph glyph-name="Rcommaaccent" unicode="&#x156;" horiz-adv-x="1212" 
d="M164 1352h487q207 0 341 -116.5t134 -297.5q0 -178 -118 -293t-324 -115l522 -530h-241l-603 631v-631h-198v1352zM924 920q0 114 -80.5 189t-204.5 75h-277v-527h248q146 0 230 73.5t84 189.5zM500 -471l69 369h174l-122 -369h-121z" />
    <glyph glyph-name="rcommaaccent" unicode="&#x157;" horiz-adv-x="757" 
d="M143 0v686q0 150 -20 287h190v-215h21q28 114 104 171.5t170 57.5q77 0 133 -33v-180q-67 55 -147 55q-127 0 -196.5 -95.5t-69.5 -266.5v-180q0 -182 18 -287h-203zM94 -471l70 369h174l-123 -369h-121z" />
    <glyph glyph-name="Rcaron" unicode="&#x158;" horiz-adv-x="1212" 
d="M623 1483l-236 268h178l121 -141l121 141h178l-233 -268h-129zM164 1352h487q207 0 341 -116.5t134 -297.5q0 -178 -118 -293t-324 -115l522 -530h-241l-603 631v-631h-198v1352zM924 920q0 114 -80.5 189t-204.5 75h-277v-527h248q146 0 230 73.5t84 189.5z" />
    <glyph glyph-name="rcaron" unicode="&#x159;" horiz-adv-x="757" 
d="M369 1118l-236 268h178l121 -141l121 141h178l-233 -268h-129zM143 0v686q0 150 -20 287h190v-215h21q28 114 104 171.5t170 57.5q77 0 133 -33v-180q-67 55 -147 55q-127 0 -196.5 -95.5t-69.5 -266.5v-180q0 -182 18 -287h-203z" />
    <glyph glyph-name="Sacute" unicode="&#x15a;" horiz-adv-x="1093" 
d="M594 1503h-158l256 269h209zM109 109v213q78 -76 194 -122t232 -46q135 0 212.5 59t77.5 160q0 96 -74.5 152.5t-218.5 68.5q-192 17 -302.5 118.5t-110.5 262.5q0 176 130 286.5t331 110.5q106 0 205.5 -31t172.5 -88v-204q-67 69 -164 108t-200 41q-131 -2 -208 -58.5
t-77 -158.5q0 -95 72 -147.5t231 -67.5q410 -46 410 -377q0 -189 -133 -299t-357 -110q-120 0 -230.5 33.5t-192.5 95.5z" />
    <glyph glyph-name="sacute" unicode="&#x15b;" horiz-adv-x="874" 
d="M463 1124h-158l256 269h209zM625 276q0 62 -44.5 95.5t-144.5 42.5q-154 15 -238.5 91t-84.5 197q0 132 95 211.5t253 79.5q147 0 272 -82v-194q-110 129 -270 129q-80 0 -130 -36.5t-50 -102.5q0 -127 194 -142q156 -12 240 -85t84 -195q0 -137 -100 -221t-263 -84
q-185 0 -329 104v203q52 -71 140 -114.5t185 -43.5q90 0 140.5 37.5t50.5 109.5z" />
    <glyph glyph-name="Scircumflex" unicode="&#x15c;" horiz-adv-x="1093" 
d="M502 1772h129l233 -269h-178l-121 142l-121 -142h-178zM109 109v213q78 -76 194 -122t232 -46q135 0 212.5 59t77.5 160q0 96 -74.5 152.5t-218.5 68.5q-192 17 -302.5 118.5t-110.5 262.5q0 176 130 286.5t331 110.5q106 0 205.5 -31t172.5 -88v-204q-67 69 -164 108
t-200 41q-131 -2 -208 -58.5t-77 -158.5q0 -95 72 -147.5t231 -67.5q410 -46 410 -377q0 -189 -133 -299t-357 -110q-120 0 -230.5 33.5t-192.5 95.5z" />
    <glyph glyph-name="scircumflex" unicode="&#x15d;" horiz-adv-x="874" 
d="M391 1393h129l234 -269h-179l-120 142l-121 -142h-178zM625 276q0 62 -44.5 95.5t-144.5 42.5q-154 15 -238.5 91t-84.5 197q0 132 95 211.5t253 79.5q147 0 272 -82v-194q-110 129 -270 129q-80 0 -130 -36.5t-50 -102.5q0 -127 194 -142q156 -12 240 -85t84 -195
q0 -137 -100 -221t-263 -84q-185 0 -329 104v203q52 -71 140 -114.5t185 -43.5q90 0 140.5 37.5t50.5 109.5z" />
    <glyph glyph-name="Scedilla" unicode="&#x15e;" horiz-adv-x="1093" 
d="M109 109v213q78 -76 194 -122t232 -46q135 0 212.5 59t77.5 160q0 96 -74.5 152.5t-218.5 68.5q-192 17 -302.5 118.5t-110.5 262.5q0 176 130 286.5t331 110.5q106 0 205.5 -31t172.5 -88v-204q-67 69 -164 108t-200 41q-131 -2 -208 -58.5t-77 -158.5q0 -95 72 -147.5
t231 -67.5q410 -46 410 -377q0 -176 -114.5 -284t-311.5 -123l-55 -72v-6h18q96 0 150.5 -51t54.5 -121q0 -84 -65.5 -146.5t-186.5 -62.5q-87 0 -170 35v110q77 -39 156 -39q53 0 85.5 24.5t32.5 72.5q0 38 -27.5 64t-80.5 26q-38 0 -76 -17l-53 49l94 134
q-219 16 -364 127z" />
    <glyph glyph-name="scedilla" unicode="&#x15f;" horiz-adv-x="874" 
d="M438 -90v-6h19q96 0 150.5 -51t54.5 -121q0 -84 -65.5 -146.5t-186.5 -62.5q-87 0 -170 35v110q77 -39 155 -39q53 0 86 24.5t33 72.5q0 38 -27.5 64t-80.5 26q-38 0 -76 -17l-54 49l97 136q-147 15 -264 100v203q52 -71 140 -114.5t185 -43.5q90 0 140.5 37.5
t50.5 109.5q0 62 -44.5 95.5t-144.5 42.5q-154 15 -238.5 91t-84.5 197q0 132 95 211.5t253 79.5q147 0 272 -82v-194q-110 129 -270 129q-80 0 -130 -36.5t-50 -102.5q0 -127 194 -142q156 -12 240 -85t84 -195q0 -124 -83.5 -206t-223.5 -97z" />
    <glyph glyph-name="Scaron" unicode="&#x160;" horiz-adv-x="1093" 
d="M502 1503l-236 269h178l121 -142l121 142h178l-233 -269h-129zM109 109v213q78 -76 194 -122t232 -46q135 0 212.5 59t77.5 160q0 96 -74.5 152.5t-218.5 68.5q-192 17 -302.5 118.5t-110.5 262.5q0 176 130 286.5t331 110.5q106 0 205.5 -31t172.5 -88v-204
q-67 69 -164 108t-200 41q-131 -2 -208 -58.5t-77 -158.5q0 -95 72 -147.5t231 -67.5q410 -46 410 -377q0 -189 -133 -299t-357 -110q-120 0 -230.5 33.5t-192.5 95.5z" />
    <glyph glyph-name="scaron" unicode="&#x161;" horiz-adv-x="874" 
d="M391 1124l-235 269h178l121 -142l120 142h179l-234 -269h-129zM625 276q0 62 -44.5 95.5t-144.5 42.5q-154 15 -238.5 91t-84.5 197q0 132 95 211.5t253 79.5q147 0 272 -82v-194q-110 129 -270 129q-80 0 -130 -36.5t-50 -102.5q0 -127 194 -142q156 -12 240 -85
t84 -195q0 -137 -100 -221t-263 -84q-185 0 -329 104v203q52 -71 140 -114.5t185 -43.5q90 0 140.5 37.5t50.5 109.5z" />
    <glyph glyph-name="Tcedilla" unicode="&#x162;" horiz-adv-x="1058" 
d="M520 -90v-6h19q96 0 150 -51t54 -121q0 -84 -65 -146.5t-186 -62.5q-87 0 -170 35v110q77 -39 155 -39q53 0 86 24.5t33 72.5q0 38 -28 64t-81 26q-37 0 -75 -17l-54 49l109 152h-37v1178h-416v174h1030v-174h-415v-1178h-39z" />
    <glyph glyph-name="tcedilla" unicode="&#x163;" horiz-adv-x="782" 
d="M479 -90v-6h19q96 0 150 -51t54 -121q0 -84 -65 -146.5t-186 -62.5q-87 0 -170 35v110q77 -39 155 -39q53 0 86 24.5t33 72.5q0 38 -28 64t-81 26q-37 0 -75 -17l-54 49l105 146q-91 27 -142 102.5t-51 190.5v538h-178v121h58q101 0 139 68.5t49 240.5h117v-282h315v-148
h-315v-512q0 -182 147 -182q102 0 176 86v-174q-31 -28 -88.5 -45.5t-116.5 -17.5z" />
    <glyph glyph-name="Tcaron" unicode="&#x164;" horiz-adv-x="1058" 
d="M467 1483l-236 268h179l120 -141l121 141h178l-233 -268h-129zM14 1178v174h1030v-174h-415v-1178h-199v1178h-416z" />
    <glyph glyph-name="tcaron" unicode="&#x165;" horiz-adv-x="782" 
d="M598 1108l70 369h174l-123 -369h-121zM737 43q-31 -28 -90 -45.5t-123 -17.5q-136 0 -215.5 80.5t-79.5 226.5v538h-178v121h58q101 0 139 68.5t49 240.5h117v-282h315v-148h-315v-512q0 -182 147 -182q102 0 176 86v-174z" />
    <glyph glyph-name="Tbar" unicode="&#x166;" horiz-adv-x="1058" 
d="M154 625v102h276v451h-416v174h1030v-174h-415v-451h278v-102h-278v-625h-199v625h-276z" />
    <glyph glyph-name="tbar" unicode="&#x167;" horiz-adv-x="782" 
d="M100 539v104h129v182h-178v121h58q101 0 139 68.5t49 240.5h117v-282h315v-148h-315v-182h276v-104h-276v-226q0 -182 147 -182q102 0 176 86v-174q-31 -28 -90 -45.5t-123 -17.5q-136 0 -215.5 80.5t-79.5 226.5v252h-129z" />
    <glyph glyph-name="Utilde" unicode="&#x168;" horiz-adv-x="1359" 
d="M1079 1733q-19 -246 -227 -246q-52 0 -100.5 19.5t-78.5 43t-67 43t-69 19.5q-56 0 -88.5 -31t-34.5 -84h-123q19 246 233 246q50 0 97 -19.5t77.5 -43t67.5 -43t68 -19.5q56 0 88 31t34 84h123zM684 152q145 0 234.5 85t89.5 226v889h198v-903q0 -214 -143.5 -341.5
t-378.5 -127.5q-237 0 -378.5 126.5t-141.5 339.5v906h201v-889q0 -141 86.5 -226t232.5 -85z" />
    <glyph glyph-name="utilde" unicode="&#x169;" horiz-adv-x="1134" 
d="M958 1354q-19 -246 -227 -246q-52 0 -100.5 19.5t-78.5 43t-67 43t-69 19.5q-56 0 -88.5 -31t-34.5 -84h-123q19 246 233 246q50 0 97 -19.5t77.5 -43t67.5 -43t68 -19.5q56 0 88.5 31t34.5 84h122zM483 -20q-154 0 -250 94.5t-96 249.5v362q0 121 -18 287h203v-608
q0 -111 57.5 -170.5t159.5 -59.5q120 0 194 82.5t74 216.5v539h184v-686q0 -145 19 -287h-189v168h-20q-42 -86 -123.5 -137t-194.5 -51z" />
    <glyph glyph-name="Umacron" unicode="&#x16a;" horiz-adv-x="1359" 
d="M422 1550v127h528v-127h-528zM684 152q145 0 234.5 85t89.5 226v889h198v-903q0 -214 -143.5 -341.5t-378.5 -127.5q-237 0 -378.5 126.5t-141.5 339.5v906h201v-889q0 -141 86.5 -226t232.5 -85z" />
    <glyph glyph-name="umacron" unicode="&#x16b;" horiz-adv-x="1134" 
d="M301 1141v127h528v-127h-528zM483 -20q-154 0 -250 94.5t-96 249.5v362q0 121 -18 287h203v-608q0 -111 57.5 -170.5t159.5 -59.5q120 0 194 82.5t74 216.5v539h184v-686q0 -145 19 -287h-189v168h-20q-42 -86 -123.5 -137t-194.5 -51z" />
    <glyph glyph-name="Ubreve" unicode="&#x16c;" horiz-adv-x="1359" 
d="M686 1470q-139 0 -223 79.5t-86 213.5h131q30 -164 178 -164q146 0 176 164h131q-1 -133 -85 -213t-222 -80zM684 152q145 0 234.5 85t89.5 226v889h198v-903q0 -214 -143.5 -341.5t-378.5 -127.5q-237 0 -378.5 126.5t-141.5 339.5v906h201v-889q0 -141 86.5 -226
t232.5 -85z" />
    <glyph glyph-name="ubreve" unicode="&#x16d;" horiz-adv-x="1134" 
d="M565 1092q-140 0 -224 79.5t-85 212.5h131q29 -163 178 -163q147 0 176 163h131q-1 -133 -85 -212.5t-222 -79.5zM483 -20q-154 0 -250 94.5t-96 249.5v362q0 121 -18 287h203v-608q0 -111 57.5 -170.5t159.5 -59.5q120 0 194 82.5t74 216.5v539h184v-686q0 -145 19 -287
h-189v168h-20q-42 -86 -123.5 -137t-194.5 -51z" />
    <glyph glyph-name="Uring" unicode="&#x16e;" horiz-adv-x="1359" 
d="M446 1618q0 95 67.5 157t170.5 62t171.5 -62t68.5 -157t-68 -157t-172 -62q-103 0 -170.5 62t-67.5 157zM557 1618q0 -54 35 -87.5t92 -33.5t93 33.5t36 87.5t-36 88.5t-93 34.5q-56 0 -91.5 -34t-35.5 -89zM684 152q145 0 234.5 85t89.5 226v889h198v-903
q0 -214 -143.5 -341.5t-378.5 -127.5q-237 0 -378.5 126.5t-141.5 339.5v906h201v-889q0 -141 86.5 -226t232.5 -85z" />
    <glyph glyph-name="uring" unicode="&#x16f;" horiz-adv-x="1134" 
d="M326 1239q0 95 67 157t170 62t171.5 -62t68.5 -157t-68 -157t-172 -62q-103 0 -170 62t-67 157zM436 1239q0 -54 35 -87.5t92 -33.5t93 33.5t36 87.5t-36 88.5t-93 34.5q-56 0 -91.5 -34t-35.5 -89zM483 -20q-154 0 -250 94.5t-96 249.5v362q0 121 -18 287h203v-608
q0 -111 57.5 -170.5t159.5 -59.5q120 0 194 82.5t74 216.5v539h184v-686q0 -145 19 -287h-189v168h-20q-42 -86 -123.5 -137t-194.5 -51z" />
    <glyph glyph-name="Uhungarumlaut" unicode="&#x170;" horiz-adv-x="1359" 
d="M453 1452l118 330h162l-170 -330h-110zM762 1452l119 330h161l-168 -330h-112zM684 152q145 0 234.5 85t89.5 226v889h198v-903q0 -214 -143.5 -341.5t-378.5 -127.5q-237 0 -378.5 126.5t-141.5 339.5v906h201v-889q0 -141 86.5 -226t232.5 -85z" />
    <glyph glyph-name="uhungarumlaut" unicode="&#x171;" horiz-adv-x="1134" 
d="M270 1073l119 330h162l-170 -330h-111zM580 1073l118 330h162l-168 -330h-112zM483 -20q-154 0 -250 94.5t-96 249.5v362q0 121 -18 287h203v-608q0 -111 57.5 -170.5t159.5 -59.5q120 0 194 82.5t74 216.5v539h184v-686q0 -145 19 -287h-189v168h-20
q-42 -86 -123.5 -137t-194.5 -51z" />
    <glyph glyph-name="Uogonek" unicode="&#x172;" horiz-adv-x="1359" 
d="M801 -14v4q-41 -10 -117 -10q-237 0 -378.5 126.5t-141.5 339.5v906h201v-889q0 -141 86.5 -226t232.5 -85q145 0 234.5 85t89.5 226v889h198v-903q0 -256 -217 -396q-95 -62 -146.5 -136.5t-51.5 -143.5q0 -64 37.5 -98.5t99.5 -34.5q54 0 96 28v-110q-62 -35 -143 -35
q-98 0 -172 58.5t-74 156.5q0 139 166 248z" />
    <glyph glyph-name="uogonek" unicode="&#x173;" horiz-adv-x="1134" 
d="M821 0v168h-20q-42 -86 -123.5 -137t-194.5 -51q-154 0 -250 94.5t-96 249.5v362q0 121 -18 287h203v-608q0 -111 57.5 -170.5t159.5 -59.5q120 0 194 82.5t74 216.5v539h184v-686q0 -145 19 -287h-52q-202 -122 -202 -244q0 -52 38.5 -84t98.5 -32q54 0 96 28v-110
q-62 -35 -147 -35q-106 0 -174 57.5t-68 147.5q0 80 53.5 146t167.5 126z" />
    <glyph glyph-name="Wcircumflex" unicode="&#x174;" horiz-adv-x="1771" 
d="M823 1751h129l234 -268h-178l-121 141l-121 -141h-178zM1184 0l-295 1090h-4l-301 -1090h-211l-363 1352h197l272 -1127h6l306 1127h192l297 -1127h6l279 1127h196l-362 -1352h-215z" />
    <glyph glyph-name="wcircumflex" unicode="&#x175;" horiz-adv-x="1468" 
d="M672 1372h129l233 -268h-178l-121 141l-121 -141h-178zM10 973h189l219 -742h8l209 742h194l213 -742h9l219 742h188l-321 -973h-170l-234 766l-233 -766h-172z" />
    <glyph glyph-name="Ycircumflex" unicode="&#x176;" horiz-adv-x="1150" 
d="M512 1751h129l233 -268h-178l-121 141l-120 -141h-179zM10 1352h211l352 -637h5l356 637h207l-467 -817v-535h-197v535z" />
    <glyph glyph-name="ycircumflex" unicode="&#x177;" horiz-adv-x="987" 
d="M430 1372h129l234 -268h-179l-120 141l-121 -141h-178zM231 -358l168 385l-389 946h207l275 -742h14l268 742h203l-553 -1331h-193z" />
    <glyph glyph-name="Ydieresis" unicode="&#x178;" horiz-adv-x="1150" 
d="M274 1618q0 44 32.5 77.5t76.5 33.5t77.5 -33.5t33.5 -77.5t-33.5 -76.5t-77.5 -32.5t-76.5 32.5t-32.5 76.5zM659 1618q0 44 32.5 77.5t76.5 33.5t77.5 -33.5t33.5 -77.5t-33.5 -76.5t-77.5 -32.5t-76.5 32.5t-32.5 76.5zM10 1352h211l352 -637h5l356 637h207l-467 -817
v-535h-197v535z" />
    <glyph glyph-name="Zacute" unicode="&#x179;" horiz-adv-x="1150" 
d="M651 1483h-157l256 268h208zM125 1352h952v-174l-776 -1004h778v-174h-997v174l760 1004h-717v174z" />
    <glyph glyph-name="zacute" unicode="&#x17a;" horiz-adv-x="942" 
d="M477 1104h-158l256 268h209zM82 135l545 690h-523v148h740v-139l-545 -687h557v-147h-774v135z" />
    <glyph glyph-name="Zdotaccent" unicode="&#x17b;" horiz-adv-x="1150" 
d="M471 1618q0 44 32.5 77.5t76.5 33.5t77 -33.5t33 -77.5t-33 -76.5t-77 -32.5t-76.5 32.5t-32.5 76.5zM125 1352h952v-174l-776 -1004h778v-174h-997v174l760 1004h-717v174z" />
    <glyph glyph-name="zdotaccent" unicode="&#x17c;" horiz-adv-x="942" 
d="M360 1239q0 44 32.5 77.5t76.5 33.5t77.5 -33.5t33.5 -77.5t-33.5 -76.5t-77.5 -32.5t-76.5 32.5t-32.5 76.5zM82 135l545 690h-523v148h740v-139l-545 -687h557v-147h-774v135z" />
    <glyph glyph-name="Zcaron" unicode="&#x17d;" horiz-adv-x="1150" 
d="M549 1483l-236 268h179l120 -141l121 141h178l-233 -268h-129zM125 1352h952v-174l-776 -1004h778v-174h-997v174l760 1004h-717v174z" />
    <glyph glyph-name="zcaron" unicode="&#x17e;" horiz-adv-x="942" 
d="M406 1104l-236 268h178l121 -141l121 141h178l-233 -268h-129zM82 135l545 690h-523v148h740v-139l-545 -687h557v-147h-774v135z" />
    <glyph glyph-name="florin" unicode="&#x192;" horiz-adv-x="897" 
d="M-106 -381v150q43 -19 120 -19q179 0 222 234l114 630h-223v150h252l45 248q67 360 387 360q88 0 150 -20v-150q-36 19 -121 19q-187 0 -230 -234l-41 -223h260v-150h-286l-121 -655q-68 -360 -379 -360q-87 0 -149 20z" />
    <glyph glyph-name="Aringacute" unicode="&#x1fa;" horiz-adv-x="1290" 
d="M674 2032h-158l256 268h209zM408 1681q0 95 67 157.5t170 62.5t171.5 -62.5t68.5 -157.5t-68 -157t-172 -62q-103 0 -170 62t-67 157zM518 1681q0 -54 35 -87t92 -33t93 33t36 87t-36 88.5t-93 34.5q-56 0 -91.5 -34t-35.5 -89zM494 1352h303l483 -1352h-205l-127 365
h-612l-129 -365h-197zM643 1212h-4l-250 -688h504z" />
    <glyph glyph-name="aringacute" unicode="&#x1fb;" horiz-adv-x="1021" 
d="M559 1655h-158l256 268h209zM262 1305q0 95 67.5 157t170.5 62t171 -62t68 -157t-67.5 -157.5t-171.5 -62.5q-103 0 -170.5 62.5t-67.5 157.5zM373 1305q0 -54 35 -87.5t92 -33.5t93 33.5t36 87.5t-36 88t-93 34q-56 0 -91.5 -33.5t-35.5 -88.5zM688 145
q-115 -165 -303 -165q-135 0 -220 73.5t-85 190.5q0 119 91 188.5t273 104.5q139 26 196.5 60t57.5 101q0 68 -52.5 108t-145.5 40q-189 0 -350 -164v197q66 53 163 83.5t199 30.5q170 0 270.5 -84.5t100.5 -230.5v-391q0 -162 39 -287h-197l-16 145h-21zM698 506
q-64 -67 -225 -105q-111 -26 -159 -62t-48 -93t42.5 -90t115.5 -33q118 0 196 81.5t78 215.5v86z" />
    <glyph glyph-name="AEacute" unicode="&#x1fc;" horiz-adv-x="1695" 
d="M942 1483h-158l256 268h209zM10 0l643 1352h949v-174h-609v-408h563v-170h-563v-426h619v-174h-817v365h-410l-170 -365h-205zM461 524h334v635h-37z" />
    <glyph glyph-name="aeacute" unicode="&#x1fd;" horiz-adv-x="1687" 
d="M856 1124h-158l256 269h209zM774 180q-69 -106 -161 -153t-220 -47q-134 0 -223.5 74t-89.5 186q0 122 86.5 191.5t249.5 100.5q160 31 221 64.5t61 101.5t-52.5 107t-145.5 39q-98 0 -190.5 -43t-164.5 -123v201q65 52 163 83t194 31q116 0 201.5 -37.5t130.5 -105.5
q133 143 344 143q202 0 321 -124t119 -324q0 -36 -8 -107h-723q9 -140 101.5 -223.5t238.5 -83.5q103 0 190.5 40t143.5 112v-211q-142 -92 -342 -92q-135 0 -247.5 51.5t-180.5 148.5h-17zM1448 565q3 119 -70 197t-192 78q-120 0 -202 -77t-91 -198h555zM698 506
q-64 -67 -225 -105q-111 -26 -159 -62.5t-48 -96.5q0 -54 42.5 -86.5t115.5 -32.5q118 0 196 81.5t78 215.5v86z" />
    <glyph glyph-name="Oslashacute" unicode="&#x1fe;" horiz-adv-x="1507" 
d="M782 1503h-157l256 269h209zM754 1372q207 0 366 -106l127 174h133l-176 -242q97 -94 150 -227.5t53 -292.5q0 -203 -83 -362t-232.5 -247.5t-339.5 -88.5q-209 0 -365 106l-127 -172h-133l176 240q-97 94 -150 228.5t-53 295.5q0 201 83 359.5t232.5 246.5t338.5 88z
M754 1202q-201 0 -327 -145.5t-126 -378.5q0 -226 117 -371l596 813q-111 82 -260 82zM1206 678q0 220 -114 366l-596 -811q107 -81 256 -81q201 0 327.5 146.5t126.5 379.5z" />
    <glyph glyph-name="oslashacute" unicode="&#x1ff;" horiz-adv-x="1134" 
d="M606 1124h-157l256 269h208zM567 993q145 0 254 -65l133 184h133l-180 -250q146 -143 146 -377q0 -224 -134 -364.5t-352 -140.5q-145 0 -254 65l-133 -182h-133l180 246q-145 142 -145 376q0 226 133.5 367t351.5 141zM567 836q-135 0 -218 -96.5t-83 -254.5
q0 -136 66 -231l391 539q-64 43 -156 43zM868 485q0 140 -65 234l-391 -539q64 -43 155 -43q135 0 218 95.5t83 252.5z" />
    <glyph glyph-name="Scommaaccent" unicode="&#x218;" horiz-adv-x="1093" 
d="M109 109v213q78 -76 194 -122t232 -46q135 0 212.5 59t77.5 160q0 96 -74.5 152.5t-218.5 68.5q-192 17 -302.5 118.5t-110.5 262.5q0 176 130 286.5t331 110.5q106 0 205.5 -31t172.5 -88v-204q-67 69 -164 108t-200 41q-131 -2 -208 -58.5t-77 -158.5q0 -95 72 -147.5
t231 -67.5q410 -46 410 -377q0 -189 -133 -299t-357 -110q-120 0 -230.5 33.5t-192.5 95.5zM444 -471l70 369h174l-123 -369h-121z" />
    <glyph glyph-name="scommaaccent" unicode="&#x219;" horiz-adv-x="874" 
d="M625 276q0 62 -44.5 95.5t-144.5 42.5q-154 15 -238.5 91t-84.5 197q0 132 95 211.5t253 79.5q147 0 272 -82v-194q-110 129 -270 129q-80 0 -130 -36.5t-50 -102.5q0 -127 194 -142q156 -12 240 -85t84 -195q0 -137 -100 -221t-263 -84q-185 0 -329 104v203
q52 -71 140 -114.5t185 -43.5q90 0 140.5 37.5t50.5 109.5zM313 -471l70 369h174l-123 -369h-121z" />
    <glyph glyph-name="Tcommaaccent" unicode="&#x21a;" horiz-adv-x="1058" 
d="M14 1178v174h1030v-174h-415v-1178h-199v1178h-416zM369 -471l69 369h174l-123 -369h-120z" />
    <glyph glyph-name="tcommaaccent" unicode="&#x21b;" horiz-adv-x="782" 
d="M737 43q-31 -28 -90 -45.5t-123 -17.5q-136 0 -215.5 80.5t-79.5 226.5v538h-178v121h58q101 0 139 68.5t49 240.5h117v-282h315v-148h-315v-512q0 -182 147 -182q102 0 176 86v-174zM272 -471l70 369h174l-123 -369h-121z" />
    <glyph glyph-name="dotlessj" unicode="&#x237;" horiz-adv-x="475" 
d="M352 -287l-202 -26v999q0 105 -19 287h203v-973q0 -138 18 -287z" />
    <glyph glyph-name="circumflex" unicode="&#x2c6;" horiz-adv-x="1024" 
d="M449 1403h129l233 -268h-178l-121 141l-121 -141h-178z" />
    <glyph glyph-name="caron" unicode="&#x2c7;" horiz-adv-x="1024" 
d="M449 1135l-236 268h178l121 -141l121 141h178l-233 -268h-129z" />
    <glyph glyph-name="breve" unicode="&#x2d8;" horiz-adv-x="1026" 
d="M514 1122q-139 0 -223 79.5t-86 213.5h131q30 -164 178 -164q146 0 176 164h131q-1 -133 -85 -213t-222 -80z" />
    <glyph glyph-name="dotaccent" unicode="&#x2d9;" horiz-adv-x="1026" 
d="M403 1270q0 44 32.5 77t76.5 33t77.5 -33t33.5 -77t-33.5 -76.5t-77.5 -32.5t-76.5 32.5t-32.5 76.5z" />
    <glyph glyph-name="ring" unicode="&#x2da;" horiz-adv-x="1026" 
d="M274 1270q0 95 67.5 157t170.5 62t171.5 -62t68.5 -157t-68 -157t-172 -62q-103 0 -170.5 62t-67.5 157zM385 1270q0 -54 35 -87.5t92 -33.5t93 33.5t36 87.5t-36 88.5t-93 34.5q-56 0 -91.5 -34t-35.5 -89z" />
    <glyph glyph-name="ogonek" unicode="&#x2db;" horiz-adv-x="1026" 
d="M571 20h127q-99 -58 -165 -130.5t-66 -133.5q0 -52 38.5 -84t98.5 -32q54 0 96 28v-110q-62 -35 -147 -35q-106 0 -174 57.5t-68 147.5q0 86 63 156.5t197 135.5z" />
    <glyph glyph-name="tilde" unicode="&#x2dc;" horiz-adv-x="1026" 
d="M907 1384q-19 -245 -227 -245q-52 0 -100.5 19.5t-78.5 43t-67 43t-69 19.5q-56 0 -88.5 -31t-34.5 -84h-123q19 246 233 246q50 0 97 -19.5t77.5 -43t67.5 -43t68 -19.5q56 0 88 30.5t34 83.5h123z" />
    <glyph glyph-name="hungarumlaut" unicode="&#x2dd;" horiz-adv-x="1024" 
d="M217 1104l119 330h162l-170 -330h-111zM526 1104l119 330h162l-168 -330h-113z" />
    <glyph glyph-name="commaaccent" unicode="&#x326;" horiz-adv-x="1026" 
d="M391 -377l70 369h174l-123 -369h-121z" />
    <glyph glyph-name="Delta" unicode="&#x394;" horiz-adv-x="1413" 
d="M629 1352h162l559 -1352h-1282zM1108 152l-397 981l-398 -981h795z" />
    <glyph glyph-name="Omega" unicode="&#x3a9;" horiz-adv-x="1386" 
d="M590 0h-490v152h342v139q-165 54 -263.5 194t-98.5 316q0 162 80 292.5t220 204.5t312 74q173 0 313.5 -73.5t221 -204t80.5 -291.5q0 -175 -98.5 -315t-262.5 -197v-139h340v-152h-489v377q151 37 243.5 152t92.5 270q0 185 -124.5 305.5t-316.5 120.5
q-191 0 -314.5 -120t-123.5 -306q0 -155 92.5 -270t243.5 -152v-377z" />
    <glyph glyph-name="Omega" unicode="&#xa7b6;" horiz-adv-x="1386" 
d="M590 0h-490v152h342v139q-165 54 -263.5 194t-98.5 316q0 162 80 292.5t220 204.5t312 74q173 0 313.5 -73.5t221 -204t80.5 -291.5q0 -175 -98.5 -315t-262.5 -197v-139h340v-152h-489v377q151 37 243.5 152t92.5 270q0 185 -124.5 305.5t-316.5 120.5
q-191 0 -314.5 -120t-123.5 -306q0 -155 92.5 -270t243.5 -152v-377z" />
    <glyph glyph-name="mu" unicode="&#x3bc;" horiz-adv-x="1134" 
d="M137 -379v1065q0 121 -18 287h203v-608q0 -111 57.5 -170.5t159.5 -59.5q120 0 194 82.5t74 216.5v539h184v-686q0 -145 19 -287h-189v168h-20q-42 -86 -123.5 -137t-194.5 -51q-86 0 -161 32v-391h-185z" />
    <glyph glyph-name="pi" unicode="&#x3c0;" horiz-adv-x="1261" 
d="M299 0v821h-215v152h1083v-152h-217v-518q0 -85 32 -124.5t101 -39.5q29 0 43 2v-147q-41 -14 -106 -14q-109 0 -174.5 67.5t-65.5 188.5v585h-311v-821h-170z" />
    <glyph glyph-name="Wgrave" unicode="&#x1e80;" horiz-adv-x="1771" 
d="M858 1483l-307 268h209l256 -268h-158zM1184 0l-295 1090h-4l-301 -1090h-211l-363 1352h197l272 -1127h6l306 1127h192l297 -1127h6l279 1127h196l-362 -1352h-215z" />
    <glyph glyph-name="wgrave" unicode="&#x1e81;" horiz-adv-x="1468" 
d="M727 1104l-307 268h209l256 -268h-158zM10 973h189l219 -742h8l209 742h194l213 -742h9l219 742h188l-321 -973h-170l-234 766l-233 -766h-172z" />
    <glyph glyph-name="Wacute" unicode="&#x1e82;" horiz-adv-x="1771" 
d="M913 1483h-157l256 268h209zM1184 0l-295 1090h-4l-301 -1090h-211l-363 1352h197l272 -1127h6l306 1127h192l297 -1127h6l279 1127h196l-362 -1352h-215z" />
    <glyph glyph-name="wacute" unicode="&#x1e83;" horiz-adv-x="1468" 
d="M741 1104h-157l256 268h209zM10 973h189l219 -742h8l209 742h194l213 -742h9l219 742h188l-321 -973h-170l-234 766l-233 -766h-172z" />
    <glyph glyph-name="Wdieresis" unicode="&#x1e84;" horiz-adv-x="1771" 
d="M584 1618q0 45 32 78t76 33t77.5 -33.5t33.5 -77.5t-33.5 -76.5t-77.5 -32.5t-76 32.5t-32 76.5zM969 1618q0 45 32 78t76 33t77.5 -33.5t33.5 -77.5t-33.5 -76.5t-77.5 -32.5t-76 32.5t-32 76.5zM1184 0l-295 1090h-4l-301 -1090h-211l-363 1352h197l272 -1127h6
l306 1127h192l297 -1127h6l279 1127h196l-362 -1352h-215z" />
    <glyph glyph-name="wdieresis" unicode="&#x1e85;" horiz-adv-x="1468" 
d="M432 1239q0 44 32.5 77.5t76.5 33.5t77 -33.5t33 -77.5t-33 -76.5t-77 -32.5t-76.5 32.5t-32.5 76.5zM817 1239q0 44 32.5 77.5t76.5 33.5t77 -33.5t33 -77.5t-33 -76.5t-77 -32.5t-76.5 32.5t-32.5 76.5zM10 973h189l219 -742h8l209 742h194l213 -742h9l219 742h188
l-321 -973h-170l-234 766l-233 -766h-172z" />
    <glyph glyph-name="Ygrave" unicode="&#x1ef2;" horiz-adv-x="1150" 
d="M549 1483l-307 268h209l256 -268h-158zM10 1352h211l352 -637h5l356 637h207l-467 -817v-535h-197v535z" />
    <glyph glyph-name="ygrave" unicode="&#x1ef3;" horiz-adv-x="987" 
d="M487 1104l-307 268h209l256 -268h-158zM231 -358l168 385l-389 946h207l275 -742h14l268 742h203l-553 -1331h-193z" />
    <glyph glyph-name="threeperemspace" unicode="&#x2004;" horiz-adv-x="681" 
 />
    <glyph glyph-name="fourperemspace" unicode="&#x2005;" horiz-adv-x="512" 
 />
    <glyph glyph-name="sixperemspace" unicode="&#x2006;" horiz-adv-x="342" 
 />
    <glyph glyph-name="figurespace" unicode="&#x2007;" horiz-adv-x="1310" 
 />
    <glyph glyph-name="punctuationspace" unicode="&#x2008;" horiz-adv-x="471" 
 />
    <glyph glyph-name="thinspace" unicode="&#x2009;" horiz-adv-x="102" 
 />
    <glyph glyph-name="hairspace" unicode="&#x200a;" horiz-adv-x="40" 
 />
    <glyph glyph-name="zerowidthspace" unicode="&#x200b;" horiz-adv-x="0" 
 />
    <glyph glyph-name="endash" unicode="&#x2013;" horiz-adv-x="1024" 
d="M979 438h-934v150h934v-150z" />
    <glyph glyph-name="emdash" unicode="&#x2014;" horiz-adv-x="2048" 
d="M2003 438h-1958v150h1958v-150z" />
    <glyph glyph-name="quoteleft" unicode="&#x2018;" horiz-adv-x="491" 
d="M104 846l172 506h109l-74 -506h-207z" />
    <glyph glyph-name="quoteright" unicode="&#x2019;" horiz-adv-x="491" 
d="M385 1352l-170 -506h-111l76 506h205z" />
    <glyph glyph-name="quotesinglbase" unicode="&#x201a;" horiz-adv-x="491" 
d="M385 203l-170 -506h-111l76 506h205z" />
    <glyph glyph-name="quotedblleft" unicode="&#x201c;" horiz-adv-x="864" 
d="M104 846l172 506h109l-74 -506h-207zM479 846l172 506h109l-74 -506h-207z" />
    <glyph glyph-name="quotedblright" unicode="&#x201d;" horiz-adv-x="864" 
d="M385 1352l-170 -506h-111l76 506h205zM760 1352l-170 -506h-111l76 506h205z" />
    <glyph glyph-name="quotedblbase" unicode="&#x201e;" horiz-adv-x="886" 
d="M385 203l-170 -506h-111l76 506h205zM780 203l-170 -506h-110l75 506h205z" />
    <glyph glyph-name="dagger" unicode="&#x2020;" horiz-adv-x="927" 
d="M373 1454h184v-442h307v-170h-307v-1180h-184v1180h-310v170h310v442z" />
    <glyph glyph-name="daggerdbl" unicode="&#x2021;" horiz-adv-x="927" 
d="M373 -338v461h-310v168h310v551h-310v170h310v442h184v-442h307v-170h-307v-551h307v-168h-307v-461h-184z" />
    <glyph glyph-name="bullet" unicode="&#x2022;" horiz-adv-x="616" 
d="M104 639q0 83 59 142t144 59q86 0 145.5 -58.5t59.5 -142.5q0 -85 -59.5 -143t-145.5 -58q-85 0 -144 58t-59 143z" />
    <glyph glyph-name="ellipsis" unicode="&#x2026;" horiz-adv-x="1495" 
d="M129 106q0 48 34 82.5t83 34.5q47 0 81.5 -35t34.5 -82q0 -50 -33 -83t-83 -33t-83.5 33.5t-33.5 82.5zM631 106q0 48 34 82.5t83 34.5q47 0 81.5 -35t34.5 -82q0 -50 -33 -83t-83 -33t-83.5 33.5t-33.5 82.5zM1133 106q0 48 33.5 82.5t82.5 34.5q47 0 82 -35t35 -82
q0 -49 -33.5 -82.5t-83.5 -33.5q-49 0 -82.5 33t-33.5 83z" />
    <glyph glyph-name="perthousand" unicode="&#x2030;" horiz-adv-x="2383" 
d="M1282 1397l-756 -1428h-118l755 1428h119zM362 1364q148 0 227 -106.5t79 -305.5t-79 -306t-227 -107t-226.5 106.5t-78.5 306.5q0 198 79 305t226 107zM362 1241q-86 0 -126.5 -71t-40.5 -218q0 -307 167 -307q170 0 170 307q0 147 -42 218t-128 71zM1313 813
q148 0 226.5 -106t78.5 -306q0 -201 -78.5 -307t-226.5 -106t-226.5 106.5t-78.5 306.5q0 198 79 305t226 107zM2021 813q148 0 227 -106.5t79 -305.5q0 -201 -79 -307t-227 -106t-226.5 106.5t-78.5 306.5q0 198 79 305t226 107zM1313 690q-86 0 -127 -71t-41 -218
q0 -307 168 -307q170 0 170 307q0 147 -42 218t-128 71zM2021 690q-86 0 -127 -71t-41 -218q0 -307 168 -307q170 0 170 307q0 147 -42 218t-128 71z" />
    <glyph glyph-name="guilsinglleft" unicode="&#x2039;" horiz-adv-x="673" 
d="M604 1018l-305 -467l305 -467h-147l-367 467l367 467h147z" />
    <glyph glyph-name="guilsinglright" unicode="&#x203a;" horiz-adv-x="673" 
d="M70 1018h145l367 -467l-367 -467h-145l305 467z" />
    <glyph glyph-name="fraction" unicode="&#x2044;" horiz-adv-x="266" 
d="M569 1397l-753 -1428h-119l756 1428h116z" />
    <glyph glyph-name="Euro" unicode="&#x20ac;" horiz-adv-x="1370" 
d="M57 510l33 102h201q-2 20 -2 64q0 41 2 61h-234l33 103h215q47 243 229 387.5t443 144.5q173 0 295 -65v-203q-124 98 -287 98q-182 0 -310 -97t-171 -265h670l-33 -103h-654q-2 -18 -2 -57q0 -22 4 -68h613l-33 -102h-561q43 -165 170 -259.5t311 -94.5q80 0 160 25.5
t143 70.5v-207q-127 -65 -315 -65q-260 0 -441 144.5t-231 385.5h-248z" />
    <glyph glyph-name="glyph1" unicode="&#x2113;" horiz-adv-x="856" 
d="M739 96q-58 -60 -121 -87t-143 -27q-103 0 -177.5 68t-74.5 163v219l-123 -115l-59 72l182 166v508q0 142 74.5 225.5t200.5 83.5q114 0 190 -75t76 -189q0 -184 -205 -371l-242 -219v-274q0 -71 50 -120.5t122 -49.5q91 0 199 94zM317 1032v-391l201 184
q150 138 150 287q0 72 -49.5 121t-122.5 49q-86 0 -132.5 -65t-46.5 -185z" />
    <glyph glyph-name="trademark" unicode="&#x2122;" horiz-adv-x="1884" 
d="M84 1231v121h633v-121h-246v-725h-139v725h-248zM1102 1352l221 -654h4l219 654h203v-846h-129v708h-4l-238 -708h-110l-238 708h-4v-708h-129v846h205z" />
    <glyph glyph-name="estimated" unicode="&#x212e;" horiz-adv-x="1394" 
d="M688 31q-166 0 -302.5 84t-215 231.5t-78.5 325.5q0 184 77.5 331.5t214.5 230.5t308 83q275 0 443 -187t168 -493h-959v-340q164 -191 363 -191q117 0 199.5 44t160.5 147h141q-103 -141 -225 -203.5t-295 -62.5zM344 717h715v321q-51 94 -148 148.5t-215 54.5
q-225 0 -352 -203v-321z" />
    <glyph glyph-name="leftwards.arrow" unicode="&#x2190;" horiz-adv-x="1640" 
d="M102 676l678 676l117 -119l-471 -469h1112v-174h-1112l471 -471l-117 -119z" />
    <glyph glyph-name="upwards.arrow" unicode="&#x2191;" horiz-adv-x="1640" 
d="M819 1386l676 -679l-119 -117l-469 471v-1061h-174v1061l-471 -473l-117 119z" />
    <glyph glyph-name="rightwards.arrow" unicode="&#x2192;" horiz-adv-x="1640" 
d="M1538 676l-678 -676l-117 119l471 471h-1112v174h1112l-471 469l117 119z" />
    <glyph glyph-name="downwards.arrow" unicode="&#x2193;" horiz-adv-x="1640" 
d="M819 -35l-674 680l117 119l471 -473v1061h174v-1061l469 471l119 -117z" />
    <glyph glyph-name="northwest.arrow" unicode="&#x2196;" horiz-adv-x="1642" 
d="M301 1153h959v-168h-668l749 -749l-122 -123l-750 749v-665h-168v956z" />
    <glyph glyph-name="northeast.arrow" unicode="&#x2197;" horiz-adv-x="1642" 
d="M383 1153h958v-956h-167v665l-750 -749l-123 123l750 749h-668v168z" />
    <glyph glyph-name="southeast.arrow" unicode="&#x2198;" horiz-adv-x="1642" 
d="M1341 199h-958v168h668l-750 749l123 123l750 -750v666h167v-956z" />
    <glyph glyph-name="southwest.arrow" unicode="&#x2199;" horiz-adv-x="1640" 
d="M299 199v956h170v-666l750 750l122 -123l-749 -749h665v-168h-958z" />
    <glyph glyph-name="partialdiff" unicode="&#x2202;" horiz-adv-x="1024" 
d="M455 1370q145 0 258 -97.5t176 -272.5t63 -398q0 -286 -124.5 -455.5t-335.5 -169.5q-178 0 -299 132.5t-121 326.5q0 190 105 316.5t272 126.5q213 0 319 -201h20q-12 256 -100 399.5t-233 143.5q-69 0 -126.5 -33.5t-95.5 -95.5l-114 92q52 87 141.5 136.5t194.5 49.5z
M248 430q0 -131 69.5 -216t176.5 -85q112 0 183 82t71 213q0 132 -72 217.5t-184 85.5q-108 0 -176 -82.5t-68 -214.5z" />
    <glyph glyph-name="product" unicode="&#x220f;" horiz-adv-x="1024" 
d="M184 -272v1472h-102v152h860v-152h-102v-1472h-170v1472h-316v-1472h-170z" />
    <glyph glyph-name="summation" unicode="&#x2211;" horiz-adv-x="1024" 
d="M80 -137l567 676l-543 680v133h820v-152h-592l528 -665l-555 -656h639v-151h-864v135z" />
    <glyph glyph-name="minus" unicode="&#x2212;" horiz-adv-x="1024" 
d="M70 608h884v-151h-884v151z" />
    <glyph glyph-name="radical" unicode="&#x221a;" horiz-adv-x="1026" 
d="M248 627h-176v149h284l181 -475h4l252 1051h161l-340 -1352h-112z" />
    <glyph glyph-name="infinity" unicode="&#x221e;" horiz-adv-x="1521" 
d="M1128 205q-58 0 -117.5 25t-101.5 67l-147 137l-150 -137q-42 -42 -101.5 -67t-117.5 -25q-128 0 -218.5 91.5t-90.5 221.5q0 129 90.5 220t218.5 91q58 0 117.5 -25t101.5 -67l150 -137l147 137q42 42 101.5 67t117.5 25q128 0 219 -91t91 -220q0 -130 -91 -221.5
t-219 -91.5zM1122 338q75 0 128 52.5t53 127.5q0 74 -53 126t-128 52q-67 0 -135 -59l-133 -119l133 -121q68 -59 135 -59zM399 338q68 0 136 59l131 121l-131 119q-68 59 -136 59q-75 0 -127.5 -52t-52.5 -126q0 -75 52.5 -127.5t127.5 -52.5z" />
    <glyph glyph-name="integral" unicode="&#x222b;" horiz-adv-x="747" 
d="M598 1376q-139 0 -139 -182v-1415q0 -131 -66.5 -211t-195.5 -80q-57 0 -109 8v154q18 -2 62 -2q139 0 139 182v1415q0 131 66.5 211t195.5 80q56 0 108 -8v-154q-18 2 -61 2z" />
    <glyph glyph-name="approxequal" unicode="&#x2248;" horiz-adv-x="1024" 
d="M295 868q91 0 227 -75q50 -28 73.5 -39.5t62.5 -24t75 -12.5q133 0 232 123h10v-148q-38 -63 -104 -102t-142 -39q-88 0 -221 70q-6 4 -35 20t-38 20.5t-32.5 16t-37.5 15.5t-34 8t-38 4q-127 0 -234 -123h-10v147q39 63 105 101t141 38zM295 510q89 0 227 -76
q99 -55 139 -67q37 -11 72 -11q133 0 232 123h10v-147q-37 -63 -103 -101t-143 -38q-89 0 -221 69q-8 4 -41.5 22.5t-46 24.5t-38.5 16.5t-46.5 14.5t-42.5 4q-130 0 -234 -123h-10v148q39 63 105 102t141 39z" />
    <glyph glyph-name="notequal" unicode="&#x2260;" horiz-adv-x="1028" 
d="M289 8l82 250h-283v152h334l78 235h-412v152h461l76 229h114l-75 -229h274v-152h-324l-77 -235h401v-152h-451l-81 -250h-117z" />
    <glyph glyph-name="lessequal" unicode="&#x2264;" horiz-adv-x="1024" 
d="M66 788l892 353v-176l-657 -234l657 -231v-183l-892 353v118zM70 0v152h886v-152h-886z" />
    <glyph glyph-name="greaterequal" unicode="&#x2265;" horiz-adv-x="1024" 
d="M66 1141l892 -353v-118l-892 -353v183l657 231l-657 234v176zM70 152h884v-152h-884v152z" />
    <glyph glyph-name="lozenge" unicode="&#x25ca;" horiz-adv-x="997" 
d="M115 676l313 676h141l314 -676l-314 -676h-141zM721 676l-223 481l-224 -481l224 -481z" />
    <glyph glyph-name="bdotaccent" horiz-adv-x="1024" 
d="M403 -274q0 44 32.5 77t76.5 33t77.5 -33t33.5 -77t-33.5 -76.5t-77.5 -32.5t-76.5 32.5t-32.5 76.5z" />
    <glyph glyph-name="invertedbreve" horiz-adv-x="1026" 
d="M514 1415q138 0 222 -80t85 -213h-131q-30 164 -176 164q-148 0 -178 -164h-131q2 134 86 213.5t223 79.5z" />
    <glyph glyph-name="zeroslash" horiz-adv-x="1056" 
d="M528 1372q214 0 328.5 -184.5t114.5 -511.5t-114.5 -511.5t-328.5 -184.5q-213 0 -327.5 184.5t-114.5 511.5t114.5 511.5t327.5 184.5zM528 1212q-124 0 -184.5 -137.5t-60.5 -388.5q0 -166 28 -297l396 703q-63 120 -179 120zM776 686q0 151 -20 254l-391 -694
q60 -105 163 -105q84 0 140.5 69.5t82 189.5t25.5 286z" />
    <glyph glyph-name="zero.dnom" horiz-adv-x="724" 
d="M362 813q148 0 227 -106.5t79 -305.5q0 -201 -79 -307t-227 -106t-226.5 106.5t-78.5 306.5q0 198 79 305t226 107zM362 690q-86 0 -126.5 -71t-40.5 -218q0 -307 167 -307q170 0 170 307q0 147 -42 218t-128 71z" />
    <glyph glyph-name="one.dnom" horiz-adv-x="540" 
d="M287 801h121v-625q0 -102 12 -176h-152v653l-180 -116h-8v143z" />
    <glyph glyph-name="two.dnom" horiz-adv-x="661" 
d="M82 573v152q104 88 237 88q119 0 193 -70t74 -180q0 -37 -7.5 -71t-18 -61t-34.5 -59t-43 -54t-59.5 -57.5t-67.5 -57.5t-82 -66l-10 -8v-6h328v-123h-520v113l45 34q170 132 249.5 228.5t79.5 177.5q0 68 -38 105.5t-109 37.5q-118 0 -217 -123z" />
    <glyph glyph-name="three.dnom" horiz-adv-x="620" 
d="M426 221q0 59 -40 95t-101 36h-64v109h60q59 0 97 34.5t38 92.5q0 53 -36.5 85t-92.5 32q-115 0 -209 -123v151q95 80 217 80q105 0 176.5 -59.5t71.5 -159.5q0 -69 -40 -120t-106 -66v-2q72 -15 117 -69.5t45 -127.5q0 -108 -75 -164.5t-181 -56.5q-126 0 -227 78v151
q96 -121 219 -121q57 0 94 34.5t37 90.5z" />
    <glyph glyph-name="four.dnom" horiz-adv-x="663" 
d="M510 0h-125v195h-352v151l354 455h123v-492h113v-114h-113v-195zM385 625l-252 -316h252v316z" />
    <glyph glyph-name="five.dnom" horiz-adv-x="665" 
d="M315 96q83 0 124.5 50t41.5 114q0 60 -38.5 105t-120.5 45q-77 0 -134 -60l-88 43v408h461v-121h-344v-201q55 39 137 39q115 0 184.5 -71t69.5 -193q0 -126 -81 -196t-197 -70q-135 0 -248 78v147q42 -53 107 -85t126 -32z" />
    <glyph glyph-name="six.dnom" horiz-adv-x="686" 
d="M412 709q-101 0 -165.5 -90t-62.5 -222h11q30 52 83 83.5t117 31.5q102 0 171 -74.5t69 -183.5q0 -117 -74 -191.5t-190 -74.5q-145 0 -228.5 111.5t-83.5 306.5q0 186 97 296.5t262 110.5q63 0 143 -25v-120q-51 25 -81 33t-68 8zM219 242q0 -64 43 -106t109 -42
q61 0 104 44.5t43 115.5q0 64 -43 102.5t-104 38.5q-67 0 -109.5 -42.5t-42.5 -110.5z" />
    <glyph glyph-name="seven.dnom" horiz-adv-x="579" 
d="M41 801h494v-103l-310 -698h-131l303 688h-356v113z" />
    <glyph glyph-name="eight.dnom" horiz-adv-x="653" 
d="M328 813q107 0 176 -58t69 -149q0 -58 -37 -108t-96 -70v-2q77 -29 118.5 -83t41.5 -126q0 -99 -77.5 -164t-194.5 -65q-118 0 -196.5 65.5t-78.5 163.5q0 72 41 126t119 83v2q-59 20 -97 70t-38 108q0 91 70.5 149t179.5 58zM328 485q54 0 89.5 34.5t35.5 86.5
q0 50 -35.5 82.5t-89.5 32.5q-56 0 -91.5 -32.5t-35.5 -82.5q0 -53 36 -87t91 -34zM328 90q63 0 104 38t41 97q0 60 -41.5 98.5t-103.5 38.5q-63 0 -105.5 -38.5t-42.5 -98.5q0 -58 42.5 -96.5t105.5 -38.5z" />
    <glyph glyph-name="nine.dnom" horiz-adv-x="686" 
d="M307 92q89 0 143 87.5t52 223.5h-13q-30 -52 -81.5 -82t-116.5 -30q-103 0 -171.5 73.5t-68.5 182.5q0 117 73.5 191.5t190.5 74.5q145 0 228.5 -111.5t83.5 -306.5q0 -177 -85.5 -292t-238.5 -115q-91 0 -190 37v120q64 -32 104.5 -42.5t89.5 -10.5zM465 559
q0 65 -42 106.5t-108 41.5q-63 0 -105 -45.5t-42 -114.5q0 -60 41.5 -100.5t105.5 -40.5q66 0 108 42t42 111z" />
    <glyph glyph-name="zero.numr" horiz-adv-x="724" 
d="M362 1364q148 0 227 -106.5t79 -305.5t-79 -306t-227 -107t-226.5 106.5t-78.5 306.5q0 198 79 305t226 107zM362 1241q-86 0 -126.5 -71t-40.5 -218q0 -307 167 -307q170 0 170 307q0 147 -42 218t-128 71z" />
    <glyph glyph-name="one.numr" horiz-adv-x="540" 
d="M287 1352h121v-625q0 -103 12 -176h-152v653l-180 -117h-8v144z" />
    <glyph glyph-name="two.numr" horiz-adv-x="661" 
d="M82 1124v152q104 88 237 88q119 0 193 -70t74 -180q0 -37 -7.5 -71t-18 -61t-34.5 -59t-43 -54t-59.5 -57.5t-67.5 -57.5t-82 -66l-10 -8v-6h328v-123h-520v113l45 34q170 132 249.5 228.5t79.5 177.5q0 68 -38 105.5t-109 37.5q-118 0 -217 -123z" />
    <glyph glyph-name="three.numr" horiz-adv-x="620" 
d="M426 772q0 59 -40 95t-101 36h-64v109h60q59 0 97 34.5t38 92.5q0 53 -36 84.5t-93 31.5q-116 0 -209 -122v151q95 80 217 80q105 0 176.5 -59.5t71.5 -159.5q0 -69 -40 -120.5t-106 -66.5v-2q72 -15 117 -69t45 -127q0 -108 -75 -164.5t-181 -56.5q-127 0 -227 77v152
q96 -121 219 -121q57 0 94 34.5t37 90.5z" />
    <glyph glyph-name="four.numr" horiz-adv-x="663" 
d="M510 551h-125v194h-352v152l354 455h123v-492h113v-115h-113v-194zM385 1176l-252 -316h252v316z" />
    <glyph glyph-name="five.numr" horiz-adv-x="665" 
d="M315 649q83 0 124.5 50t41.5 114q0 60 -38.5 105t-120.5 45q-77 0 -134 -60l-88 43v408h461v-121h-344v-201q55 39 137 39q115 0 184.5 -71t69.5 -193q0 -126 -81 -196t-197 -70q-136 0 -248 77v148q42 -53 107 -85t126 -32z" />
    <glyph glyph-name="six.numr" horiz-adv-x="686" 
d="M412 1260q-101 0 -165.5 -90t-62.5 -222h11q30 52 83 83.5t117 31.5q102 0 171 -74.5t69 -183.5q0 -117 -74 -191.5t-190 -74.5q-145 0 -228.5 111t-83.5 306q0 187 97 297.5t262 110.5q63 0 143 -25v-120q-51 25 -81 33t-68 8zM219 793q0 -64 43 -106t109 -42
q61 0 104 44.5t43 115.5q0 64 -43 102.5t-104 38.5q-67 0 -109.5 -42.5t-42.5 -110.5z" />
    <glyph glyph-name="seven.numr" horiz-adv-x="579" 
d="M41 1352h494v-103l-310 -698h-131l303 688h-356v113z" />
    <glyph glyph-name="eight.numr" horiz-adv-x="653" 
d="M328 1364q107 0 176 -58t69 -149q0 -58 -37 -108t-96 -70v-2q77 -29 118.5 -83t41.5 -126q0 -99 -77.5 -164t-194.5 -65q-118 0 -196.5 65.5t-78.5 163.5q0 72 41 126t119 83v2q-59 20 -97 70t-38 108q0 91 70.5 149t179.5 58zM328 1036q54 0 89.5 34.5t35.5 86.5
q0 50 -35.5 82.5t-89.5 32.5q-56 0 -91.5 -32.5t-35.5 -82.5q0 -53 36 -87t91 -34zM328 641q63 0 104 38t41 97q0 60 -41.5 98.5t-103.5 38.5q-63 0 -105.5 -38.5t-42.5 -98.5q0 -58 42.5 -96.5t105.5 -38.5z" />
    <glyph glyph-name="nine.numr" horiz-adv-x="686" 
d="M307 643q89 0 143 87.5t52 223.5h-13q-30 -52 -81.5 -82t-116.5 -30q-103 0 -171.5 73.5t-68.5 182.5q0 117 73.5 191.5t190.5 74.5q145 0 228.5 -111.5t83.5 -306.5q0 -177 -85.5 -292t-238.5 -115q-94 0 -190 36v121q64 -32 104.5 -42.5t89.5 -10.5zM465 1110
q0 65 -42 106t-108 41q-63 0 -105 -45t-42 -114q0 -61 41.5 -101.5t105.5 -40.5q66 0 108 42.5t42 111.5z" />
    <glyph glyph-name="zero.onum" horiz-adv-x="1056" 
d="M528 1036q192 0 310 -146t118 -382t-118 -382t-310 -146t-310 146t-118 382t118 382t310 146zM528 872q-115 0 -182 -98t-67 -266q0 -167 66.5 -265t182.5 -98q118 0 185 97.5t67 265.5t-67 266t-185 98z" />
    <glyph glyph-name="one.onum" horiz-adv-x="778" 
d="M432 1016h164v-729q0 -158 18 -287h-202v815l-320 -203h-14v187z" />
    <glyph glyph-name="two.onum" horiz-adv-x="1052" 
d="M123 676v219q167 141 389 141q197 0 316.5 -98t119.5 -254q0 -151 -110 -270.5t-355 -208.5l-61 -23v-10h532v-172h-852v162l82 41q105 53 178 92t142 80.5t112 76.5t76 72.5t47.5 75.5t14.5 80q0 89 -67.5 143t-174.5 54q-211 0 -389 -201z" />
    <glyph glyph-name="three.onum" horiz-adv-x="997" 
d="M709 33q0 107 -74.5 174t-188.5 67h-92v154h88q107 0 177.5 65.5t70.5 170.5q0 100 -66.5 160.5t-172.5 60.5q-95 0 -181 -52t-155 -143v217q152 131 352 131q174 0 289.5 -99t115.5 -263q0 -122 -68 -209t-183 -113v-4q126 -27 202 -118t76 -220q0 -116 -60 -201
t-153.5 -125t-206.5 -40q-99 0 -195.5 33t-174.5 96v217q151 -191 348 -191q111 0 181.5 64t70.5 168z" />
    <glyph glyph-name="four.onum" horiz-adv-x="1060" 
d="M807 -346h-180v346h-586v223l590 793h176v-854h207v-162h-207v-346zM627 754l-443 -592h443v592z" />
    <glyph glyph-name="five.onum" horiz-adv-x="1073" 
d="M508 -203q140 0 218.5 89.5t78.5 209.5q0 114 -74.5 196.5t-204.5 82.5q-141 0 -241 -103l-131 62v682h753v-170h-583v-387q101 69 239 69q193 0 307.5 -121.5t114.5 -316.5q0 -107 -37.5 -193.5t-101.5 -140.5t-146.5 -83t-175.5 -29q-103 0 -209.5 33.5t-193.5 97.5
v211q72 -89 179 -139t208 -50z" />
    <glyph glyph-name="six.onum" horiz-adv-x="1101" 
d="M680 1223q-187 0 -296.5 -156t-109.5 -412h21q48 92 135.5 145.5t198.5 53.5q174 0 288.5 -122.5t114.5 -307.5q0 -194 -123 -319t-315 -125q-237 0 -371.5 184t-134.5 504q0 324 158 514t428 190q109 0 233 -39v-174q-114 64 -227 64zM326 412q0 -122 75.5 -201.5
t190.5 -79.5q116 0 193 82.5t77 204.5q0 120 -74.5 196t-191.5 76q-118 0 -194 -78t-76 -200z" />
    <glyph glyph-name="seven.onum" horiz-adv-x="952" 
d="M74 1016h807v-146l-527 -1206h-190l520 1192h-610v160z" />
    <glyph glyph-name="eight.onum" horiz-adv-x="1056" 
d="M528 1372q178 0 293 -97.5t115 -244.5q0 -106 -60.5 -188.5t-158.5 -118.5v-4q126 -50 194 -140.5t68 -211.5q0 -167 -128.5 -277t-322.5 -110q-193 0 -321.5 110.5t-128.5 276.5q0 122 67.5 212.5t194.5 139.5v4q-99 36 -160 118.5t-61 188.5q0 147 115.5 244.5
t293.5 97.5zM528 801q100 0 166 63t66 158q0 94 -66 155.5t-166 61.5q-101 0 -166 -61.5t-65 -155.5q0 -95 65.5 -158t165.5 -63zM528 125q116 0 192.5 71.5t76.5 180.5q0 108 -77.5 181t-191.5 73q-115 0 -191.5 -72.5t-76.5 -181.5t76 -180.5t192 -71.5z" />
    <glyph glyph-name="nine.onum" horiz-adv-x="1101" 
d="M455 -205q185 0 283.5 154t90.5 413h-20q-48 -92 -134.5 -144t-197.5 -52q-175 0 -290 121.5t-115 306.5q0 193 122.5 318.5t311.5 125.5q236 0 373 -184.5t137 -503.5q0 -333 -141 -518.5t-394 -185.5q-137 0 -305 59v174q147 -84 279 -84zM778 606q0 122 -75.5 201.5
t-190.5 79.5q-117 0 -193.5 -82.5t-76.5 -206.5q0 -119 74.5 -194.5t191.5 -75.5q118 0 194 78t76 200z" />
    <glyph glyph-name="zero.tonum" 
d="M563 1036q192 0 310 -146t118 -382t-118 -382t-310 -146t-310 146t-118 382t118 382t310 146zM563 872q-115 0 -182.5 -98.5t-67.5 -265.5t67 -265t183 -98q118 0 185 97.5t67 265.5t-67 266t-185 98z" />
    <glyph glyph-name="one.tonum" 
d="M240 0v162h262v653l-320 -203h-14v187l354 217h164v-729q0 -43 4 -125h250v-162h-700z" />
    <glyph glyph-name="two.tonum" 
d="M158 676v219q167 141 389 141q197 0 316.5 -98t119.5 -254q0 -151 -110 -270.5t-355 -208.5l-61 -23v-10h532v-172h-852v162l82 41q316 158 442.5 258t126.5 219q0 89 -67 143t-174 54q-211 0 -389 -201z" />
    <glyph glyph-name="three.tonum" 
d="M768 31q0 108 -74 174.5t-188 66.5h-92v154h88q107 0 177.5 65.5t70.5 170.5q0 100 -67 160.5t-173 60.5q-95 0 -181 -52t-155 -143v217q152 131 352 131q174 0 290 -99t116 -263q0 -121 -68 -208.5t-184 -113.5v-4q126 -27 202 -118t76 -220q0 -88 -34.5 -159
t-93 -115.5t-133.5 -68t-158 -23.5q-99 0 -196 33t-175 96v217q151 -191 348 -191q111 0 181.5 64t70.5 168z" />
    <glyph glyph-name="four.tonum" horiz-adv-x="1128" 
d="M844 -346h-180v346h-586v223l590 793h176v-854h207v-162h-207v-346zM664 754l-443 -592h443v592z" />
    <glyph glyph-name="five.tonum" 
d="M518 -203q140 0 218.5 89.5t78.5 209.5q0 115 -74 197t-204 82q-142 0 -242 -103l-131 62v682h754v-170h-584v-387q101 69 239 69q193 0 307.5 -121.5t114.5 -316.5q0 -107 -37.5 -193.5t-101.5 -140.5t-146 -83t-175 -29q-103 0 -210 33.5t-194 97.5v211
q72 -89 179 -139t208 -50z" />
    <glyph glyph-name="six.tonum" 
d="M688 1223q-187 0 -296 -156t-109 -412h20q48 92 135.5 145.5t198.5 53.5q174 0 288.5 -122.5t114.5 -307.5q0 -194 -123 -319t-315 -125q-237 0 -371.5 184t-134.5 504q0 324 158 514t428 190q109 0 233 -39v-174q-114 64 -227 64zM334 412q0 -122 75.5 -201.5
t190.5 -79.5q116 0 193 82.5t77 204.5q0 120 -74.5 196t-191.5 76q-118 0 -194 -78t-76 -200z" />
    <glyph glyph-name="seven.tonum" 
d="M160 1016h807v-146l-527 -1206h-190l520 1192h-610v160z" />
    <glyph glyph-name="eight.tonum" 
d="M563 1372q178 0 293 -97.5t115 -244.5q0 -106 -60.5 -188.5t-158.5 -118.5v-4q126 -50 194 -140.5t68 -211.5q0 -167 -128.5 -277t-322.5 -110q-193 0 -321.5 110.5t-128.5 276.5q0 122 67.5 212.5t194.5 139.5v4q-99 36 -160 118.5t-61 188.5q0 147 115.5 244.5
t293.5 97.5zM563 801q100 0 166 63t66 158q0 94 -66 155.5t-166 61.5q-101 0 -166 -61.5t-65 -155.5q0 -95 65.5 -158t165.5 -63zM563 125q116 0 192 71.5t76 180.5t-77 181.5t-191 72.5q-115 0 -191.5 -72.5t-76.5 -181.5t76 -180.5t192 -71.5z" />
    <glyph glyph-name="nine.tonum" 
d="M481 -205q185 0 284 154t91 413h-20q-48 -92 -134.5 -144t-197.5 -52q-175 0 -290.5 122t-115.5 306q0 193 122.5 318.5t311.5 125.5q236 0 373 -184.5t137 -503.5q0 -333 -140.5 -518.5t-393.5 -185.5q-137 0 -305 59v174q147 -84 278 -84zM805 606q0 122 -75.5 201.5
t-190.5 79.5q-117 0 -194 -83t-77 -206q0 -118 75 -194t192 -76q118 0 194 78t76 200z" />
    <glyph glyph-name="G.alt" horiz-adv-x="1374" 
d="M784 528v174h488v-598q-158 -116 -457 -124q-159 0 -293.5 52t-226.5 144.5t-143.5 222t-51.5 281.5q0 202 86 359t244.5 245t364.5 88q272 0 417 -125v-211q-86 77 -197.5 121.5t-223.5 44.5q-146 0 -258.5 -71t-172 -189.5t-59.5 -263.5q0 -150 62 -270.5t179 -191.5
t269 -73q133 3 266 52v313v20h-293z" />
    <glyph glyph-name="Gcircumflex.alt" horiz-adv-x="1374" 
d="M711 1772h129l233 -269h-178l-121 142l-121 -142h-178zM784 528v174h488v-598q-158 -116 -457 -124q-159 0 -293.5 52t-226.5 144.5t-143.5 222t-51.5 281.5q0 202 86 359t244.5 245t364.5 88q272 0 417 -125v-211q-86 77 -197.5 121.5t-223.5 44.5q-146 0 -258.5 -71
t-172 -189.5t-59.5 -263.5q0 -150 62 -270.5t179 -191.5t269 -73q133 3 266 52v313v20h-293z" />
    <glyph glyph-name="Gbreve.alt" horiz-adv-x="1374" 
d="M776 1491q-139 0 -223 79.5t-86 213.5h131q30 -164 178 -164q146 0 176 164h131q-1 -133 -85 -213t-222 -80zM784 528v174h488v-598q-158 -116 -457 -124q-159 0 -293.5 52t-226.5 144.5t-143.5 222t-51.5 281.5q0 202 86 359t244.5 245t364.5 88q272 0 417 -125v-211
q-86 77 -197.5 121.5t-223.5 44.5q-146 0 -258.5 -71t-172 -189.5t-59.5 -263.5q0 -150 62 -270.5t179 -191.5t269 -73q133 3 266 52v313v20h-293z" />
    <glyph glyph-name="Gdotaccent.alt" horiz-adv-x="1374" 
d="M645 1638q0 44 32.5 77.5t76.5 33.5t77 -33.5t33 -77.5t-33 -76t-77 -32t-76.5 32t-32.5 76zM784 528v174h488v-598q-158 -116 -457 -124q-159 0 -293.5 52t-226.5 144.5t-143.5 222t-51.5 281.5q0 202 86 359t244.5 245t364.5 88q272 0 417 -125v-211
q-86 77 -197.5 121.5t-223.5 44.5q-146 0 -258.5 -71t-172 -189.5t-59.5 -263.5q0 -150 62 -270.5t179 -191.5t269 -73q133 3 266 52v313v20h-293z" />
    <glyph glyph-name="Gcommaaccent.alt" horiz-adv-x="1374" 
d="M784 528v174h488v-598q-158 -116 -457 -124q-159 0 -293.5 52t-226.5 144.5t-143.5 222t-51.5 281.5q0 202 86 359t244.5 245t364.5 88q272 0 417 -125v-211q-86 77 -197.5 121.5t-223.5 44.5q-146 0 -258.5 -71t-172 -189.5t-59.5 -263.5q0 -150 62 -270.5t179 -191.5
t269 -73q133 3 266 52v313v20h-293zM635 -471l70 369h174l-123 -369h-121z" />
    <glyph glyph-name="M.alt" horiz-adv-x="1710" 
d="M553 1352l283 -1069h4l307 1069h276l164 -1352h-196l-125 1096h-6l-338 -1096h-189l-301 1096h-6l-125 -1096h-188l163 1352h277z" />
    <glyph glyph-name="a.alt" horiz-adv-x="1196" 
d="M868 186h-20q-55 -101 -143 -153.5t-197 -52.5q-81 0 -156 31.5t-136 92t-97.5 160t-36.5 223.5t36.5 223t97.5 159t136 92t156 32q112 0 200 -53t140 -154h20q0 98 -18 187h203v-686q0 -147 18 -287h-203v186zM557 135q139 0 229.5 99.5t90.5 250.5q0 154 -90.5 254.5
t-229.5 100.5q-134 0 -211.5 -94.5t-77.5 -258.5t77.5 -258t211.5 -94z" />
    <glyph glyph-name="agrave.alt" horiz-adv-x="1196" 
d="M569 1124l-307 269h209l256 -269h-158zM868 186h-20q-55 -101 -143 -153.5t-197 -52.5q-81 0 -156 31.5t-136 92t-97.5 160t-36.5 223.5t36.5 223t97.5 159t136 92t156 32q112 0 200 -53t140 -154h20q0 98 -18 187h203v-686q0 -147 18 -287h-203v186zM557 135
q139 0 229.5 99.5t90.5 250.5q0 154 -90.5 254.5t-229.5 100.5q-134 0 -211.5 -94.5t-77.5 -258.5t77.5 -258t211.5 -94z" />
    <glyph glyph-name="aacute.alt" horiz-adv-x="1196" 
d="M657 1124h-157l256 269h209zM868 186h-20q-55 -101 -143 -153.5t-197 -52.5q-81 0 -156 31.5t-136 92t-97.5 160t-36.5 223.5t36.5 223t97.5 159t136 92t156 32q112 0 200 -53t140 -154h20q0 98 -18 187h203v-686q0 -147 18 -287h-203v186zM557 135q139 0 229.5 99.5
t90.5 250.5q0 154 -90.5 254.5t-229.5 100.5q-134 0 -211.5 -94.5t-77.5 -258.5t77.5 -258t211.5 -94z" />
    <glyph glyph-name="acircumflex.alt" horiz-adv-x="1196" 
d="M561 1393h129l234 -269h-179l-120 142l-121 -142h-178zM868 186h-20q-55 -101 -143 -153.5t-197 -52.5q-81 0 -156 31.5t-136 92t-97.5 160t-36.5 223.5t36.5 223t97.5 159t136 92t156 32q112 0 200 -53t140 -154h20q0 98 -18 187h203v-686q0 -147 18 -287h-203v186z
M557 135q139 0 229.5 99.5t90.5 250.5q0 154 -90.5 254.5t-229.5 100.5q-134 0 -211.5 -94.5t-77.5 -258.5t77.5 -258t211.5 -94z" />
    <glyph glyph-name="atilde.alt" horiz-adv-x="1196" 
d="M971 1374q-19 -246 -228 -246q-52 0 -100.5 19.5t-78.5 43t-67 43t-69 19.5q-57 0 -89 -30.5t-34 -83.5h-123q19 245 234 245q50 0 97 -19.5t77 -42.5t67 -42.5t68 -19.5q57 0 89 30.5t34 83.5h123zM868 186h-20q-55 -101 -143 -153.5t-197 -52.5q-81 0 -156 31.5
t-136 92t-97.5 160t-36.5 223.5t36.5 223t97.5 159t136 92t156 32q112 0 200 -53t140 -154h20q0 98 -18 187h203v-686q0 -147 18 -287h-203v186zM557 135q139 0 229.5 99.5t90.5 250.5q0 154 -90.5 254.5t-229.5 100.5q-134 0 -211.5 -94.5t-77.5 -258.5t77.5 -258
t211.5 -94z" />
    <glyph glyph-name="adieresis.alt" horiz-adv-x="1196" 
d="M307 1260q0 44 32.5 77t76.5 33t77 -33t33 -77t-33 -76.5t-77 -32.5t-76.5 32.5t-32.5 76.5zM692 1260q0 44 32.5 77t76.5 33t77 -33t33 -77t-33 -76.5t-77 -32.5t-76.5 32.5t-32.5 76.5zM868 186h-20q-55 -101 -143 -153.5t-197 -52.5q-81 0 -156 31.5t-136 92
t-97.5 160t-36.5 223.5t36.5 223t97.5 159t136 92t156 32q112 0 200 -53t140 -154h20q0 98 -18 187h203v-686q0 -147 18 -287h-203v186zM557 135q139 0 229.5 99.5t90.5 250.5q0 154 -90.5 254.5t-229.5 100.5q-134 0 -211.5 -94.5t-77.5 -258.5t77.5 -258t211.5 -94z" />
    <glyph glyph-name="aring.alt" horiz-adv-x="1196" 
d="M338 1305q0 95 67 157t170 62t171.5 -62t68.5 -157t-68 -157.5t-172 -62.5q-103 0 -170 62.5t-67 157.5zM449 1305q0 -54 34.5 -87.5t91.5 -33.5t93.5 33.5t36.5 87.5t-36.5 88t-93.5 34q-56 0 -91 -33.5t-35 -88.5zM868 186h-20q-55 -101 -143 -153.5t-197 -52.5
q-81 0 -156 31.5t-136 92t-97.5 160t-36.5 223.5t36.5 223t97.5 159t136 92t156 32q112 0 200 -53t140 -154h20q0 98 -18 187h203v-686q0 -147 18 -287h-203v186zM557 135q139 0 229.5 99.5t90.5 250.5q0 154 -90.5 254.5t-229.5 100.5q-134 0 -211.5 -94.5t-77.5 -258.5
t77.5 -258t211.5 -94z" />
    <glyph glyph-name="amacron.alt" horiz-adv-x="1196" 
d="M313 1165v127h529v-127h-529zM868 186h-20q-55 -101 -143 -153.5t-197 -52.5q-81 0 -156 31.5t-136 92t-97.5 160t-36.5 223.5t36.5 223t97.5 159t136 92t156 32q112 0 200 -53t140 -154h20q0 98 -18 187h203v-686q0 -147 18 -287h-203v186zM557 135q139 0 229.5 99.5
t90.5 250.5q0 154 -90.5 254.5t-229.5 100.5q-134 0 -211.5 -94.5t-77.5 -258.5t77.5 -258t211.5 -94z" />
    <glyph glyph-name="abreve.alt" horiz-adv-x="1196" 
d="M578 1112q-140 0 -224.5 80t-85.5 213h131q30 -164 179 -164q146 0 176 164h131q-1 -133 -85 -213t-222 -80zM868 186h-20q-55 -101 -143 -153.5t-197 -52.5q-81 0 -156 31.5t-136 92t-97.5 160t-36.5 223.5t36.5 223t97.5 159t136 92t156 32q112 0 200 -53t140 -154h20
q0 98 -18 187h203v-686q0 -147 18 -287h-203v186zM557 135q139 0 229.5 99.5t90.5 250.5q0 154 -90.5 254.5t-229.5 100.5q-134 0 -211.5 -94.5t-77.5 -258.5t77.5 -258t211.5 -94z" />
    <glyph glyph-name="aogonek.alt" horiz-adv-x="1196" 
d="M868 0v186h-20q-55 -101 -143 -153.5t-197 -52.5q-81 0 -156 31.5t-136 92t-97.5 160t-36.5 223.5t36.5 223t97.5 159t136 92t156 32q112 0 200 -53t140 -154h20q0 98 -18 187h203v-686q0 -147 18 -287h-63q-203 -123 -203 -244q0 -52 38.5 -84t98.5 -32q54 0 96 28v-110
q-62 -35 -147 -35q-106 0 -174 57.5t-68 147.5q0 80 53.5 146t165.5 126zM557 135q139 0 229.5 99.5t90.5 250.5q0 154 -90.5 254.5t-229.5 100.5q-134 0 -211.5 -94.5t-77.5 -258.5t77.5 -258t211.5 -94z" />
    <glyph glyph-name="aringacute.alt" horiz-adv-x="1196" 
d="M649 1655h-157l256 268h208zM338 1305q0 95 67 157t170 62t171.5 -62t68.5 -157t-68 -157.5t-172 -62.5q-103 0 -170 62.5t-67 157.5zM449 1305q0 -54 34.5 -87.5t91.5 -33.5t93.5 33.5t36.5 87.5t-36.5 88t-93.5 34q-56 0 -91 -33.5t-35 -88.5zM868 186h-20
q-55 -101 -143 -153.5t-197 -52.5q-81 0 -156 31.5t-136 92t-97.5 160t-36.5 223.5t36.5 223t97.5 159t136 92t156 32q112 0 200 -53t140 -154h20q0 98 -18 187h203v-686q0 -147 18 -287h-203v186zM557 135q139 0 229.5 99.5t90.5 250.5q0 154 -90.5 254.5t-229.5 100.5
q-134 0 -211.5 -94.5t-77.5 -258.5t77.5 -258t211.5 -94z" />
    <glyph glyph-name="g.alt" horiz-adv-x="1124" 
d="M926 651q0 -149 -114 -244.5t-292 -95.5q-44 0 -104 11q-117 -20 -117 -70q0 -19 11 -30t50 -18.5t98.5 -11t170.5 -6.5q193 -6 292 -64.5t99 -166.5q0 -127 -130.5 -205t-338.5 -78q-201 0 -330 72.5t-129 187.5q0 51 27.5 95t77.5 73q-80 41 -80 115q0 56 43 95.5
t121 58.5q-81 45 -126.5 118t-45.5 164q0 151 113 246.5t292 95.5q102 0 182 -30q246 -13 367 24v-162q-141 3 -246 90v-22q109 -95 109 -242zM516 434q101 0 162 57t61 154q0 101 -63.5 165t-163.5 64q-98 0 -159.5 -60t-61.5 -157q0 -98 63.5 -160.5t161.5 -62.5zM256 -41
q0 -71 86 -116.5t219 -45.5q121 0 195.5 39t74.5 105q0 55 -55 77t-203 23q-159 3 -270 25q-47 -53 -47 -107z" />
    <glyph glyph-name="gcircumflex.alt" horiz-adv-x="1124" 
d="M514 1393h129l234 -269h-179l-120 142l-121 -142h-178zM926 651q0 -149 -114 -244.5t-292 -95.5q-44 0 -104 11q-117 -20 -117 -70q0 -19 11 -30t50 -18.5t98.5 -11t170.5 -6.5q193 -6 292 -64.5t99 -166.5q0 -127 -130.5 -205t-338.5 -78q-201 0 -330 72.5t-129 187.5
q0 51 27.5 95t77.5 73q-80 41 -80 115q0 56 43 95.5t121 58.5q-81 45 -126.5 118t-45.5 164q0 151 113 246.5t292 95.5q102 0 182 -30q246 -13 367 24v-162q-141 3 -246 90v-22q109 -95 109 -242zM516 434q101 0 162 57t61 154q0 101 -63.5 165t-163.5 64q-98 0 -159.5 -60
t-61.5 -157q0 -98 63.5 -160.5t161.5 -62.5zM256 -41q0 -71 86 -116.5t219 -45.5q121 0 195.5 39t74.5 105q0 55 -55 77t-203 23q-159 3 -270 25q-47 -53 -47 -107z" />
    <glyph glyph-name="gbreve.alt" horiz-adv-x="1124" 
d="M580 1112q-140 0 -224.5 80t-85.5 213h131q30 -164 179 -164q146 0 176 164h131q-1 -133 -85 -213t-222 -80zM926 651q0 -149 -114 -244.5t-292 -95.5q-44 0 -104 11q-117 -20 -117 -70q0 -19 11 -30t50 -18.5t98.5 -11t170.5 -6.5q193 -6 292 -64.5t99 -166.5
q0 -127 -130.5 -205t-338.5 -78q-201 0 -330 72.5t-129 187.5q0 51 27.5 95t77.5 73q-80 41 -80 115q0 56 43 95.5t121 58.5q-81 45 -126.5 118t-45.5 164q0 151 113 246.5t292 95.5q102 0 182 -30q246 -13 367 24v-162q-141 3 -246 90v-22q109 -95 109 -242zM516 434
q101 0 162 57t61 154q0 101 -63.5 165t-163.5 64q-98 0 -159.5 -60t-61.5 -157q0 -98 63.5 -160.5t161.5 -62.5zM256 -41q0 -71 86 -116.5t219 -45.5q121 0 195.5 39t74.5 105q0 55 -55 77t-203 23q-159 3 -270 25q-47 -53 -47 -107z" />
    <glyph glyph-name="gdotaccent.alt" horiz-adv-x="1124" 
d="M408 1260q0 44 32 77t76 33t77.5 -33t33.5 -77t-33.5 -76.5t-77.5 -32.5t-76 32.5t-32 76.5zM926 651q0 -149 -114 -244.5t-292 -95.5q-44 0 -104 11q-117 -20 -117 -70q0 -19 11 -30t50 -18.5t98.5 -11t170.5 -6.5q193 -6 292 -64.5t99 -166.5q0 -127 -130.5 -205
t-338.5 -78q-201 0 -330 72.5t-129 187.5q0 51 27.5 95t77.5 73q-80 41 -80 115q0 56 43 95.5t121 58.5q-81 45 -126.5 118t-45.5 164q0 151 113 246.5t292 95.5q102 0 182 -30q246 -13 367 24v-162q-141 3 -246 90v-22q109 -95 109 -242zM516 434q101 0 162 57t61 154
q0 101 -63.5 165t-163.5 64q-98 0 -159.5 -60t-61.5 -157q0 -98 63.5 -160.5t161.5 -62.5zM256 -41q0 -71 86 -116.5t219 -45.5q121 0 195.5 39t74.5 105q0 55 -55 77t-203 23q-159 3 -270 25q-47 -53 -47 -107z" />
    <glyph glyph-name="gcommaaccent.alt" horiz-adv-x="1124" 
d="M700 1495l-69 -369h-174l123 369h120zM926 651q0 -149 -114 -244.5t-292 -95.5q-44 0 -104 11q-117 -20 -117 -70q0 -19 11 -30t50 -18.5t98.5 -11t170.5 -6.5q193 -6 292 -64.5t99 -166.5q0 -127 -130.5 -205t-338.5 -78q-201 0 -330 72.5t-129 187.5q0 51 27.5 95
t77.5 73q-80 41 -80 115q0 56 43 95.5t121 58.5q-81 45 -126.5 118t-45.5 164q0 151 113 246.5t292 95.5q102 0 182 -30q246 -13 367 24v-162q-141 3 -246 90v-22q109 -95 109 -242zM516 434q101 0 162 57t61 154q0 101 -63.5 165t-163.5 64q-98 0 -159.5 -60t-61.5 -157
q0 -98 63.5 -160.5t161.5 -62.5zM256 -41q0 -71 86 -116.5t219 -45.5q121 0 195.5 39t74.5 105q0 55 -55 77t-203 23q-159 3 -270 25q-47 -53 -47 -107z" />
    <glyph glyph-name="j.alt" horiz-adv-x="475" 
d="M238 1376q51 0 84.5 -33t33.5 -83q0 -47 -34.5 -81t-83.5 -34q-51 0 -85 33.5t-34 81.5q0 50 34 83t85 33zM330 -6q0 -147 -86 -234.5t-228 -87.5q-94 0 -204 43v160q90 -53 170 -53q75 0 119 49.5t44 144.5v670q0 139 -18 287h203v-979z" />
    <glyph glyph-name="jcircumflex.alt" horiz-adv-x="475" 
d="M141 1372h129l234 -268h-178l-121 141l-121 -141h-178zM330 -6q0 -147 -86 -234.5t-228 -87.5q-94 0 -204 43v164q90 -53 170 -53q75 0 119 49.5t44 144.5v666q0 139 -18 287h203v-979z" />
    <glyph glyph-name="t.alt" horiz-adv-x="782" 
d="M737 43q-31 -28 -90 -45.5t-123 -17.5q-136 0 -215.5 80.5t-79.5 226.5v538h-178v148h191v282h172v-282h315v-148h-315v-512q0 -182 147 -182q102 0 176 86v-174z" />
    <glyph glyph-name="tcedilla.alt" horiz-adv-x="782" 
d="M479 -90v-6h19q96 0 150 -51t54 -121q0 -84 -65 -146.5t-186 -62.5q-87 0 -170 35v110q77 -39 155 -39q53 0 86 24.5t33 72.5q0 38 -28 64t-81 26q-37 0 -75 -17l-54 49l105 146q-91 27 -142 102.5t-51 190.5v538h-178v148h191v282h172v-282h315v-148h-315v-512
q0 -182 147 -182q102 0 176 86v-174q-31 -28 -88.5 -45.5t-116.5 -17.5z" />
    <glyph glyph-name="tcaron.alt" horiz-adv-x="782" 
d="M598 1108l70 369h174l-123 -369h-121zM737 43q-31 -28 -90 -45.5t-123 -17.5q-136 0 -215.5 80.5t-79.5 226.5v538h-178v148h191v282h172v-282h315v-148h-315v-512q0 -182 147 -182q102 0 176 86v-174z" />
    <glyph glyph-name="tcommaaccent.alt" horiz-adv-x="782" 
d="M737 43q-31 -28 -90 -45.5t-123 -17.5q-136 0 -215.5 80.5t-79.5 226.5v538h-178v148h191v282h172v-282h315v-148h-315v-512q0 -182 147 -182q102 0 176 86v-174zM272 -471l70 369h174l-123 -369h-121z" />
    <glyph glyph-name="ae.alt" horiz-adv-x="1861" 
d="M868 186h-20q-55 -101 -143 -153.5t-197 -52.5q-81 0 -156 31.5t-136 92t-97.5 160t-36.5 223.5t36.5 223t97.5 159t136 92t156 32q112 0 200 -53t140 -154h20q0 98 -18 187h203v-82q123 102 299 102q202 0 321 -124t119 -324q0 -36 -8 -107h-723q9 -140 101.5 -223.5
t238.5 -83.5q103 0 190.5 40t143.5 112v-211q-142 -92 -342 -92q-197 0 -330 100q4 -53 8 -80h-203v186zM557 135q131 0 219.5 89.5t97.5 228.5v34v31q-9 142 -97.5 232t-219.5 90q-134 0 -211.5 -94.5t-77.5 -258.5t77.5 -258t211.5 -94zM1622 565q3 119 -70 197t-192 78
q-120 0 -202 -77t-91 -198h555z" />
    <glyph glyph-name="aeacute.alt" horiz-adv-x="1861" 
d="M944 1124h-158l256 269h209zM868 186h-20q-55 -101 -143 -153.5t-197 -52.5q-81 0 -156 31.5t-136 92t-97.5 160t-36.5 223.5t36.5 223t97.5 159t136 92t156 32q112 0 200 -53t140 -154h20q0 98 -18 187h203v-82q123 102 299 102q202 0 321 -124t119 -324q0 -36 -8 -107
h-723q9 -140 101.5 -223.5t238.5 -83.5q103 0 190.5 40t143.5 112v-211q-142 -92 -342 -92q-197 0 -330 100q4 -53 8 -80h-203v186zM557 135q131 0 219.5 89.5t97.5 228.5v34v31q-9 142 -97.5 232t-219.5 90q-134 0 -211.5 -94.5t-77.5 -258.5t77.5 -258t211.5 -94z
M1622 565q3 119 -70 197t-192 78q-120 0 -202 -77t-91 -198h555z" />
    <glyph glyph-name="ij.alt" horiz-adv-x="950" 
d="M238 1376q51 0 84.5 -33t33.5 -83q0 -47 -34.5 -81t-83.5 -34q-51 0 -85 33.5t-34 81.5q0 50 34 83t85 33zM713 1376q51 0 84.5 -33t33.5 -83q0 -47 -34.5 -81t-83.5 -34q-51 0 -85 33.5t-34 81.5q0 50 34 83t85 33zM127 973h203v-686q0 -152 18 -287h-203v686
q0 173 -18 287zM805 -6q0 -147 -85.5 -234.5t-227.5 -87.5q-95 0 -205 43v160q90 -53 170 -53q76 0 120 50t44 144v670q0 131 -19 287h203v-979z" />
    <glyph glyph-name="tbar.alt" horiz-adv-x="782" 
d="M100 539v104h129v182h-178v148h191v282h172v-282h315v-148h-315v-182h276v-104h-276v-226q0 -182 147 -182q102 0 176 86v-174q-31 -28 -90 -45.5t-123 -17.5q-136 0 -215.5 80.5t-79.5 226.5v252h-129z" />
    <glyph glyph-name="dotlessj.alt" horiz-adv-x="475" 
d="M330 -6q0 -147 -86 -234.5t-228 -87.5q-94 0 -204 43v164q90 -53 170 -53q75 0 119 49.5t44 144.5v666q0 139 -18 287h203v-979z" />
    <glyph glyph-name="ordfeminine.alt" horiz-adv-x="864" 
d="M653 762h-16q-83 -156 -252 -156q-62 0 -118.5 24t-102.5 69.5t-73.5 120t-27.5 167.5q0 92 27.5 166.5t73.5 119.5t103 69t118 24q175 0 252 -156h16q0 79 -14 142h152v-516q0 -112 14 -215h-152v141zM424 721q102 0 166.5 75.5t64.5 190.5q0 113 -64.5 187.5
t-166.5 74.5q-97 0 -159 -73.5t-62 -190.5t62 -190.5t159 -73.5z" />
    <glyph glyph-name="ft.alt" horiz-adv-x="1464" 
d="M61 973h160v117q0 121 83.5 196.5t217.5 75.5q91 0 166 -35v-166q-70 51 -141 51q-63 0 -102 -40t-39 -107v-92h518v282h172v-282h315v-148h-315v-512q0 -182 147 -182q102 0 176 86v-174q-31 -28 -90 -45.5t-123 -17.5q-136 0 -215.5 80.5t-79.5 226.5v538h-505v-538
q0 -161 20 -287h-205v825h-160v148z" />
    <glyph glyph-name="space.tnum" horiz-adv-x="563" 
 />
    <glyph glyph-name="ordfeminine.tnum" 
d="M707 727q-46 -65 -102.5 -94t-135.5 -29q-94 0 -156.5 55.5t-62.5 139.5q0 91 64.5 142.5t187.5 76.5q120 23 165.5 48t45.5 75q0 51 -40 80.5t-110 29.5q-151 0 -264 -125v150q49 39 122 62.5t144 23.5q132 0 208.5 -63.5t76.5 -172.5v-292q0 -116 29 -216h-146l-12 109
h-14zM545 920q-84 -20 -120 -48t-36 -73q0 -40 32 -64t87 -24q88 0 146.5 61t58.5 160v65q-47 -50 -168 -77z" />
    <glyph glyph-name="ordmasculine.tnum" 
d="M563 1362q159 0 260 -106.5t101 -274.5q0 -166 -100.5 -271.5t-260.5 -105.5q-158 0 -259 105.5t-101 271.5q0 168 100.5 274.5t259.5 106.5zM563 1245q-101 0 -162 -72t-61 -192q0 -117 61 -188.5t162 -71.5t162 71.5t61 188.5q0 120 -61 192t-162 72z" />
    <glyph glyph-name="zero.tnum" 
d="M563 1372q214 0 328.5 -184.5t114.5 -511.5t-114.5 -511.5t-328.5 -184.5q-213 0 -327.5 184.5t-114.5 511.5t114.5 511.5t327.5 184.5zM563 1212q-124 0 -185 -137.5t-61 -388.5q0 -253 61.5 -399t184.5 -146q84 0 140.5 69.5t82 189.5t25.5 286q0 251 -61 388.5
t-187 137.5z" />
    <glyph glyph-name="one.tnum" 
d="M240 0v162h262v989l-320 -203h-14v187l354 217h164v-1065q0 -43 4 -125h250v-162h-700z" />
    <glyph glyph-name="two.tnum" 
d="M158 1012v219q167 141 389 141q197 0 316.5 -115t119.5 -299q0 -102 -30.5 -191.5t-98.5 -178.5t-157.5 -172t-225.5 -187l-61 -47v-10h579v-172h-852v162l121 92q279 212 403.5 375t124.5 319q0 116 -71.5 188t-190.5 72q-202 0 -366 -196z" />
    <glyph glyph-name="three.tnum" 
d="M768 367q0 108 -74 174.5t-188 66.5h-92v154h88q107 0 177.5 65.5t70.5 169.5q0 100 -67.5 161t-172.5 61q-95 0 -181 -52t-155 -143v217q152 131 352 131q174 0 290 -99t116 -263q0 -121 -68 -208.5t-184 -113.5v-4q126 -27 202 -118t76 -220q0 -88 -34.5 -159
t-93 -115.5t-133.5 -68t-158 -23.5q-99 0 -196 33t-175 96v217q151 -191 348 -191q111 0 181.5 64t70.5 168z" />
    <glyph glyph-name="four.tnum" 
d="M844 0h-180v346h-586v223l590 783h176v-844h207v-162h-207v-346zM664 1090l-443 -582h443v582z" />
    <glyph glyph-name="five.tnum" 
d="M518 133q140 0 218.5 89.5t78.5 209.5q0 115 -74 197t-204 82q-142 0 -242 -103l-131 62v682h754v-170h-584v-387q101 69 239 69q193 0 307.5 -121.5t114.5 -316.5q0 -107 -37.5 -193.5t-101.5 -140.5t-146 -83t-175 -29q-103 0 -210 33.5t-194 97.5v211q72 -89 179 -139
t208 -50z" />
    <glyph glyph-name="six.tnum" 
d="M696 1223q-187 0 -296 -156t-109 -412h20q48 92 135.5 145.5t198.5 53.5q174 0 289 -122.5t115 -307.5q0 -194 -123.5 -319t-315.5 -125q-237 0 -371.5 184t-134.5 504q0 324 158 514t428 190q110 0 234 -39v-174q-114 64 -228 64zM342 412q0 -122 75.5 -201.5
t190.5 -79.5q116 0 193.5 82.5t77.5 204.5q0 120 -75 196t-192 76q-118 0 -194 -78t-76 -200z" />
    <glyph glyph-name="seven.tnum" 
d="M160 1352h807v-146l-527 -1206h-190l520 1192h-610v160z" />
    <glyph glyph-name="eight.tnum" 
d="M563 1372q178 0 293 -97.5t115 -244.5q0 -106 -60.5 -188.5t-158.5 -118.5v-4q126 -50 194 -140.5t68 -211.5q0 -167 -128.5 -277t-322.5 -110q-193 0 -321.5 110.5t-128.5 276.5q0 122 67.5 212.5t194.5 139.5v4q-99 36 -160 118.5t-61 188.5q0 147 115.5 244.5
t293.5 97.5zM563 801q100 0 166 63t66 158q0 94 -66 155.5t-166 61.5q-101 0 -166 -61.5t-65 -155.5q0 -95 65.5 -158t165.5 -63zM563 125q116 0 192 71.5t76 180.5t-77 181.5t-191 72.5q-115 0 -191.5 -72.5t-76.5 -181.5t76 -180.5t192 -71.5z" />
    <glyph glyph-name="nine.tnum" horiz-adv-x="1136" 
d="M479 129q185 0 284 154t91 413h-20q-48 -92 -134.5 -144t-197.5 -52q-175 0 -290.5 122t-115.5 306q0 193 122.5 318.5t311.5 125.5q236 0 373 -184.5t137 -503.5q0 -333 -140.5 -518.5t-393.5 -185.5q-137 0 -305 59v174q147 -84 278 -84zM803 940q0 122 -75.5 201.5
t-190.5 79.5q-117 0 -194 -83t-77 -206q0 -119 74.5 -194.5t191.5 -75.5q118 0 194.5 78t76.5 200z" />
    <glyph glyph-name="hyphen.tnum" 
d="M836 438h-543v150h543v-150z" />
    <glyph glyph-name="parenleft.tnum" horiz-adv-x="565" 
d="M240 616q0 -266 71 -504.5t203 -422.5h-170q-140 177 -216.5 419.5t-76.5 507.5t76.5 507t216.5 419h170q-132 -185 -203 -424t-71 -502z" />
    <glyph glyph-name="parenright.tnum" horiz-adv-x="565" 
d="M326 616q0 263 -71 502t-204 424h170q140 -177 216.5 -419t76.5 -507t-76.5 -507.5t-216.5 -419.5h-170q133 184 204 422.5t71 504.5z" />
    <glyph glyph-name="bracketleft.tnum" horiz-adv-x="563" 
d="M100 -311v1853h363v-156h-191v-1542h191v-155h-363z" />
    <glyph glyph-name="bracketright.tnum" horiz-adv-x="563" 
d="M463 -311h-363v155h191v1542h-191v156h363v-1853z" />
    <glyph glyph-name="braceleft.tnum" horiz-adv-x="563" 
d="M170 618v-6q94 -28 135 -89t41 -175v-364q0 -69 32.5 -109.5t88.5 -40.5h57v-145h-80q-120 0 -193 75.5t-73 200.5v367q0 108 -33.5 164.5t-105.5 50.5v137q139 -11 139 213v389q0 115 73 185.5t193 70.5h80v-145h-57q-56 0 -88.5 -40t-32.5 -110v-364q0 -114 -41 -175.5
t-135 -89.5z" />
    <glyph glyph-name="braceright.tnum" horiz-adv-x="563" 
d="M393 618q-94 28 -135 89.5t-41 175.5v364q0 70 -32.5 110t-88.5 40h-57v145h80q120 0 193 -70.5t73 -185.5v-389q0 -224 139 -213v-137q-72 6 -105.5 -50.5t-33.5 -164.5v-367q0 -125 -73 -200.5t-193 -75.5h-80v145h57q56 0 88.5 40.5t32.5 109.5v364q0 114 41 175
t135 89v6z" />
    <glyph glyph-name="numbersign.tnum" 
d="M74 492h198l66 354h-178v117h198l72 389h139l-71 -389h235l72 389h139l-72 -389h181v-117h-201l-66 -354h183v-117h-203l-70 -375h-139l70 375h-236l-69 -375h-140l70 375h-178v117zM412 492h235l66 354h-236z" />
    <glyph glyph-name="percent.tnum" horiz-adv-x="1792" 
d="M1341 1397l-755 -1428h-119l756 1428h118zM422 1364q148 0 226.5 -106t78.5 -306t-78.5 -306.5t-226.5 -106.5t-226.5 106.5t-78.5 306.5q0 198 79 305t226 107zM422 1241q-86 0 -127 -71t-41 -218q0 -307 168 -307q170 0 170 307q0 147 -42 218t-128 71zM1372 813
q148 0 226.5 -106t78.5 -306q0 -201 -78.5 -307t-226.5 -106t-226.5 106.5t-78.5 306.5q0 198 79 305t226 107zM1372 690q-86 0 -127 -71t-41 -218q0 -307 168 -307q170 0 170 307q0 147 -42 218t-128 71z" />
    <glyph glyph-name="perthousand.tnum" horiz-adv-x="2912" 
d="M1546 1397l-755 -1428h-119l755 1428h119zM627 1364q148 0 226.5 -106t78.5 -306t-78.5 -306.5t-226.5 -106.5t-226.5 106.5t-78.5 306.5q0 198 79 305t226 107zM627 1241q-86 0 -127 -71t-41 -218q0 -307 168 -307q170 0 170 307q0 147 -42 218t-128 71zM1577 813
q148 0 226.5 -106t78.5 -306q0 -201 -78.5 -307t-226.5 -106t-226.5 106.5t-78.5 306.5q0 198 79 305t226 107zM2286 813q148 0 226.5 -106t78.5 -306q0 -201 -78.5 -307t-226.5 -106t-227 107t-79 306q0 198 79 305t227 107zM1577 690q-86 0 -127 -71t-41 -218
q0 -307 168 -307q170 0 170 307q0 147 -42 218t-128 71zM2286 690q-86 0 -127 -71t-41 -218q0 -307 168 -307q170 0 170 307q0 147 -42 218t-128 71z" />
    <glyph glyph-name="quotesingle.tnum" horiz-adv-x="563" 
d="M225 834l-32 518h178l-35 -518h-111z" />
    <glyph glyph-name="quotedbl.tnum" horiz-adv-x="563" 
d="M90 834l-33 518h179l-35 -518h-111zM360 834l-32 518h178l-35 -518h-111z" />
    <glyph glyph-name="period.tnum" horiz-adv-x="563" 
d="M166 106q0 48 34 82.5t83 34.5q47 0 81.5 -35t34.5 -82q0 -50 -33.5 -83t-82.5 -33q-50 0 -83.5 33.5t-33.5 82.5z" />
    <glyph glyph-name="comma.tnum" horiz-adv-x="563" 
d="M422 211l-170 -506h-111l76 506h205z" />
    <glyph glyph-name="colon.tnum" horiz-adv-x="563" 
d="M166 870q0 48 34 82.5t83 34.5q47 0 81.5 -35t34.5 -82q0 -50 -33.5 -83t-82.5 -33q-50 0 -83.5 33.5t-33.5 82.5zM166 106q0 48 34 82.5t83 34.5q47 0 81.5 -35t34.5 -82q0 -50 -33.5 -83t-82.5 -33q-50 0 -83.5 33.5t-33.5 82.5z" />
    <glyph glyph-name="semicolon.tnum" horiz-adv-x="563" 
d="M195 870q0 48 33.5 82.5t82.5 34.5q47 0 82 -35t35 -82q0 -49 -33.5 -82.5t-83.5 -33.5q-49 0 -82.5 33t-33.5 83zM416 211l-170 -506h-111l76 506h205z" />
    <glyph glyph-name="section.tnum" 
d="M901 221q0 -133 -105.5 -218t-269.5 -85q-150 0 -270 68v180q57 -52 132 -82.5t147 -30.5q83 0 135.5 45.5t52.5 116.5q0 54 -30 93.5t-103 72.5l-273 123q-90 40 -142 107t-52 145q0 73 49 136t137 103q-65 74 -65 164q0 131 102.5 214t263.5 83q149 0 267 -67v-177
q-57 51 -131 81t-144 30q-81 0 -132.5 -44.5t-51.5 -113.5q0 -54 29.5 -92.5t101.5 -71.5l266 -120q89 -40 140 -105t51 -141q0 -72 -48.5 -135t-134.5 -101q78 -81 78 -178zM442 610l246 -116q6 -3 17.5 -9.5t17.5 -9.5q111 59 111 150q0 51 -27.5 80.5t-114.5 70.5
l-239 115q-24 12 -45 24q-109 -59 -109 -149q0 -53 28 -84t115 -72z" />
    <glyph glyph-name="plus.tnum" 
d="M479 991h170v-387h367v-151h-367v-387h-170v387h-368v151h368v387z" />
    <glyph glyph-name="minus.tnum" 
d="M121 608h885v-151h-885v151z" />
    <glyph glyph-name="divide.tnum" 
d="M563 1018q52 0 90.5 -36.5t38.5 -86.5q0 -52 -38 -88.5t-91 -36.5t-90 36.5t-37 88.5q0 51 37 87t90 36zM121 610h885v-151h-885v151zM563 283q52 0 90.5 -36.5t38.5 -86.5q0 -52 -38 -89.5t-91 -37.5t-90 37.5t-37 89.5q0 51 37 87t90 36z" />
    <glyph glyph-name="multiply.tnum" 
d="M246 938l319 -320l318 318l108 -113l-317 -313l317 -317l-108 -115l-318 317l-319 -315l-109 113l314 317l-314 315z" />
    <glyph glyph-name="equal.tnum" 
d="M139 797h850v-152h-850v152zM139 410h850v-152h-850v152z" />
    <glyph glyph-name="less.tnum" 
d="M117 567l895 379v-178l-660 -258l660 -258v-182l-895 379v118z" />
    <glyph glyph-name="greater.tnum" 
d="M117 70v182l661 258l-661 258v178l895 -379v-118z" />
    <glyph glyph-name="fraction.tnum" 
d="M999 1397l-753 -1428h-119l756 1428h116z" />
    <glyph glyph-name="dollar.tnum" 
d="M150 109v213q70 -76 175.5 -122t209.5 -46q116 0 182.5 59t66.5 160q0 193 -260 223q-166 21 -265 121t-99 258q0 157 96.5 264t251.5 129v266h113v-264q177 -13 297 -117v-204q-60 69 -146.5 108t-177.5 41q-112 -2 -178 -58.5t-66 -158.5q0 -94 61.5 -144.5
t200.5 -70.5q188 -26 278.5 -118.5t90.5 -258.5q0 -167 -96.5 -273.5t-263.5 -129.5v-267h-113v261q-217 10 -358 129z" />
    <glyph glyph-name="cent.tnum" 
d="M578 -281v267q-165 26 -275 159.5t-110 341.5q0 204 105.5 341.5t279.5 160.5v260h112v-258q123 -11 234 -90v-211q-47 69 -113 107.5t-143 38.5q-134 0 -211.5 -98.5t-77.5 -252.5q0 -152 81 -250t218 -98q154 0 256 146v-211q-115 -81 -244 -90v-263h-112z" />
    <glyph glyph-name="sterling.tnum" 
d="M295 174v436h-141v103h141v276q0 94 32.5 169t88 120.5t123.5 69.5t143 24q134 0 244 -72v-194q-46 44 -105 71t-116 27q-97 0 -154 -65.5t-57 -175.5v-250h356v-103h-356v-198q0 -139 -56 -238h547v-174h-844v123z" />
    <glyph glyph-name="yen.tnum" 
d="M197 395h268v129h-268v103h225l-332 725h211l260 -637h4l266 637h205l-331 -725h241v-103h-284v-129h284v-102h-284v-293h-197v293h-268v102z" />
    <glyph glyph-name="Euro.tnum" 
d="M70 510l32 102h179q-2 20 -2 64q0 41 2 61h-211l32 103h187q18 133 65.5 237t114.5 167.5t146 95.5t165 32q140 0 256 -72v-202q-94 104 -239 104q-128 0 -207.5 -95.5t-104.5 -266.5h521l-33 -103h-496q-2 -18 -2 -57q0 -45 2 -68h457l-33 -102h-414q25 -168 105 -261
t209 -93q153 0 256 106v-207q-126 -75 -262 -75q-185 0 -326 138t-178 392h-221z" />
    <glyph glyph-name="florin.tnum" 
d="M92 -381v150q43 -19 121 -19q64 0 100.5 56.5t59.5 177.5l114 630h-223v150h252l45 248q61 360 346 360q74 0 129 -20v-150q-36 19 -121 19q-137 0 -167 -234l-41 -223h260v-150h-287l-121 -655q-61 -360 -338 -360q-74 0 -129 20z" />
    <glyph glyph-name="degree.tnum" horiz-adv-x="563" 
d="M31 1110q0 114 71 188t179 74q107 0 179 -75t72 -187q0 -110 -72 -185t-179 -75t-178.5 74.5t-71.5 185.5zM156 1114q0 -64 36.5 -107.5t90.5 -43.5t90.5 43.5t36.5 107.5t-36.5 107t-90.5 43t-90.5 -43t-36.5 -107z" />
    <glyph glyph-name="zeroslash.tnum" 
d="M563 1372q214 0 328.5 -184.5t114.5 -511.5t-114.5 -511.5t-328.5 -184.5q-213 0 -327.5 184.5t-114.5 511.5t114.5 511.5t327.5 184.5zM563 1212q-124 0 -185 -137.5t-61 -388.5q0 -173 31 -303l395 704q-61 125 -180 125zM811 686q0 138 -18 246l-390 -692
q61 -99 160 -99q84 0 140.5 69.5t82 189.5t25.5 286z" />
    </font>
</defs>
</svg>
