<svg width="304" height="82" viewBox="0 0 304 82" fill="none" xmlns="http://www.w3.org/2000/svg">
<path d="M33.1263 41L25.0713 9.95H31.9113L37.3113 32.765C37.4013 33.17 37.5813 33.71 37.6713 34.25C37.7613 33.71 37.9413 33.17 38.0313 32.765L43.5663 9.95H52.5213L57.9663 32.765C58.0563 33.17 58.1913 33.665 58.2814 34.25L58.6413 32.765L64.2213 9.95H71.0163L62.7813 41H53.6913L48.3813 18.23L48.0663 16.79C47.9763 17.24 47.8413 17.78 47.7513 18.23L42.2163 41H33.1263ZM100.644 41H93.5343L91.0593 34.07H78.8643L76.3893 41H69.3243L81.3393 9.95H88.6743L100.644 41ZM84.4443 18.635L80.9343 28.4H89.0343L85.5243 18.635C85.3443 18.095 85.2093 17.645 84.9843 17.015C84.8043 17.645 84.6243 18.095 84.4443 18.635ZM114.716 41H108.056V16.115H98.5606V9.95H124.211V16.115H114.716V41ZM150.778 41H128.278V9.95H150.553V15.845H134.983V22.325H148.123V28.22H134.983V35.105H150.778V41ZM176.671 31.055L182.926 41H175.141L169.516 31.73C168.616 30.155 168.256 29.975 166.636 29.975H162.361V41H155.656V9.95H169.696C176.401 9.95 180.946 13.775 180.946 19.67C180.946 24.035 178.696 27.14 174.781 28.58C175.456 29.12 175.951 29.885 176.671 31.055ZM162.361 15.755V24.35H168.571C172.081 24.35 173.971 22.865 173.971 20.075C173.971 17.24 172.081 15.755 168.571 15.755H162.361ZM207.606 41H186.726V9.95H193.431V34.835H207.606V41ZM225.609 41.45C216.249 41.45 209.409 34.79 209.409 25.475C209.409 16.16 216.249 9.5 225.609 9.5C234.879 9.5 241.764 16.16 241.764 25.475C241.764 34.79 234.879 41.45 225.609 41.45ZM225.609 35.285C230.964 35.285 234.789 31.37 234.789 25.475C234.789 19.535 230.964 15.665 225.609 15.665C220.209 15.665 216.384 19.58 216.384 25.475C216.384 31.415 220.209 35.285 225.609 35.285ZM261.468 41.45C252.108 41.45 245.268 34.79 245.268 25.475C245.268 16.16 252.108 9.5 261.468 9.5C270.738 9.5 277.623 16.16 277.623 25.475C277.623 34.79 270.738 41.45 261.468 41.45ZM261.468 35.285C266.823 35.285 270.648 31.37 270.648 25.475C270.648 19.535 266.823 15.665 261.468 15.665C256.068 15.665 252.243 19.58 252.243 25.475C252.243 31.415 256.068 35.285 261.468 35.285Z" fill="black"/>
<path d="M109.633 65.27H111.724V77H109.208V68.33C108.613 68.925 107.729 69.112 106.692 69.112V66.783C108.035 66.783 109.106 66.307 109.633 65.27ZM119.642 69.316C121.92 69.316 123.518 70.829 123.518 73.09C123.518 75.521 121.733 77.17 119.064 77.17C116.99 77.17 115.409 76.405 114.525 74.96L116.208 73.532C116.99 74.603 117.823 75.062 118.877 75.062C120.203 75.062 121.002 74.314 121.002 73.107C121.002 71.934 120.254 71.203 119.047 71.203C118.214 71.203 117.602 71.509 117.126 72.138H114.882L115.443 65.27H122.719V67.446H117.466L117.245 70.115C117.874 69.571 118.673 69.316 119.642 69.316ZM133.86 77H131.378V65.27H134.506L137.532 71.322L140.558 65.27H143.669V77H141.187V69.605C141.187 69.384 141.187 69.18 141.204 68.959C141.102 69.18 141 69.401 140.881 69.605L138.586 74.246H136.495L134.166 69.588L133.843 68.959C133.86 69.18 133.86 69.401 133.86 69.622V77ZM149.47 77H146.937V65.27H149.47V77ZM155.233 77H152.751V65.27H155.59L160.435 72.699C160.588 72.92 160.707 73.141 160.826 73.362C160.809 73.141 160.809 72.92 160.809 72.699V65.27H163.291V77H160.435L155.607 69.605C155.471 69.384 155.335 69.18 155.216 68.942C155.233 69.18 155.233 69.384 155.233 69.605V77ZM170.681 77.17C168.709 77.17 166.89 76.49 165.836 75.266L167.468 73.6C168.369 74.62 169.457 75.045 170.732 75.045C172.075 75.045 172.772 74.569 172.772 73.719C172.772 72.971 172.279 72.614 170.97 72.308L169.865 72.07C167.383 71.543 166.21 70.523 166.21 68.687C166.21 66.477 167.91 65.1 170.766 65.1C172.534 65.1 173.979 65.695 175.118 66.817L173.52 68.483C172.653 67.497 171.769 67.208 170.579 67.208C169.406 67.208 168.709 67.701 168.709 68.517C168.709 69.248 169.27 69.588 170.511 69.877L171.616 70.098C174.149 70.642 175.288 71.696 175.288 73.566C175.288 75.742 173.554 77.17 170.681 77.17Z" fill="black"/>
<path d="M193.112 61.5C194.083 61.5 194.875 62.3489 194.875 63.3964C194.875 64.4439 194.083 65.2928 193.112 65.2928C192.14 65.2928 191.348 64.4439 191.348 63.3964C191.348 62.3489 192.14 61.5 193.112 61.5ZM193.606 70.1873L193.631 70.2414C193.81 70.7381 194.091 71.1535 194.423 71.4876C194.773 71.8398 195.19 72.0836 195.625 72.2552H195.642L197.243 72.8332L197.805 71.0452L196.238 70.4853H196.212C195.948 70.3588 195.752 70.2324 195.608 70.0879C195.446 69.9344 195.335 69.7628 195.258 69.519L195.241 69.4919L194.73 68.2999L194.705 68.2367C194.262 67.0176 193.154 66.2771 191.979 66.2861C191.723 66.2861 191.467 66.3132 191.22 66.3764H191.203L189.338 66.9544C188.52 67.1982 187.864 67.7671 187.43 68.4805C186.901 69.3384 186.194 70.4762 186.194 70.4762L187.66 71.5328C187.66 71.5328 188.367 70.395 188.895 69.5461C189.167 69.1217 189.397 68.932 189.815 68.7966L190.743 68.5166L190.104 71.6773C189.926 72.3365 190.19 73.0048 190.547 73.4743L193.069 76.4273L193.197 76.6079L194.526 80.5H196.383C196.034 79.5518 195.148 77.1768 194.79 76.039L192.728 72.8332L192.669 72.5261L193.29 69.4829L193.606 70.2144V70.1873ZM188.963 76.8607L186.314 80.4639H188.341L190.369 77.9986L191.076 75.7229L189.747 74.1065L188.954 76.8607H188.963Z" fill="black"/>
</svg>
