<svg width="304" height="132" viewBox="0 0 304 132" fill="none" xmlns="http://www.w3.org/2000/svg">
<path d="M77.2031 41.45C72.5531 41.45 68.6981 39.95 65.6381 36.95C62.6081 33.95 61.0931 30.11 61.0931 25.43C61.0931 20.78 62.6081 16.97 65.6381 14C68.6981 11 72.5531 9.5 77.2031 9.5C82.3931 9.5 86.5481 11.345 89.6681 15.035L84.7181 19.13C82.8281 16.82 80.3231 15.665 77.2031 15.665C74.5331 15.665 72.3431 16.565 70.6331 18.365C68.9231 20.165 68.0681 22.52 68.0681 25.43C68.0681 28.4 68.9081 30.785 70.5881 32.585C72.2681 34.385 74.4731 35.285 77.2031 35.285C78.8831 35.285 80.3381 35 81.5681 34.43C82.7981 33.83 83.9981 32.87 85.1681 31.55L90.0281 35.69C86.9981 39.53 82.7231 41.45 77.2031 41.45ZM108.275 41.45C103.595 41.45 99.7246 39.95 96.6646 36.95C93.6046 33.95 92.0746 30.125 92.0746 25.475C92.0746 20.825 93.6046 17 96.6646 14C99.7246 11 103.595 9.5 108.275 9.5C112.925 9.5 116.78 11 119.84 14C122.9 17 124.43 20.825 124.43 25.475C124.43 30.125 122.9 33.95 119.84 36.95C116.78 39.95 112.925 41.45 108.275 41.45ZM108.275 35.285C110.975 35.285 113.18 34.385 114.89 32.585C116.6 30.785 117.455 28.415 117.455 25.475C117.455 22.535 116.6 20.165 114.89 18.365C113.18 16.565 110.975 15.665 108.275 15.665C105.545 15.665 103.325 16.565 101.615 18.365C99.9046 20.165 99.0496 22.535 99.0496 25.475C99.0496 28.415 99.9046 30.785 101.615 32.585C103.325 34.385 105.545 35.285 108.275 35.285ZM148.578 9.95H155.643L144.078 41H136.293L124.773 9.95H131.883L139.668 32.405L140.208 34.16C140.268 34.04 140.358 33.77 140.478 33.35C140.598 32.93 140.703 32.63 140.793 32.45L148.578 9.95ZM181.189 41H158.689V9.95H180.964V15.845H165.394V22.325H178.534V28.22H165.394V35.105H181.189V41ZM192.637 41H186.067V9.95H193.582L206.407 29.615C206.677 30.005 207.022 30.59 207.442 31.37C207.412 30.98 207.397 30.395 207.397 29.615V9.95H213.967V41H206.407L193.627 21.425C193.057 20.525 192.712 19.94 192.592 19.67C192.622 20.09 192.637 20.675 192.637 21.425V41ZM234.159 41H227.499V16.115H218.004V9.95H243.654V16.115H234.159V41ZM72.9749 79.255V73.675H87.6449V91H82.2899V87.535C80.4299 90.145 77.2349 91.45 72.7049 91.45C68.2349 91.45 64.5449 90.01 61.6349 87.13C58.7249 84.22 57.2699 80.41 57.2699 75.7C57.2699 70.9 58.7999 67 61.8599 64C64.9499 61 68.8799 59.5 73.6499 59.5C79.4399 59.5 83.9099 61.345 87.0599 65.035L82.1099 69.13C80.2199 66.82 77.3999 65.665 73.6499 65.665C70.8599 65.665 68.5949 66.58 66.8549 68.41C65.1149 70.21 64.2449 72.64 64.2449 75.7C64.2449 78.91 65.0999 81.385 66.8099 83.125C68.5499 84.865 70.8449 85.735 73.6949 85.735C76.0649 85.735 77.9849 85.24 79.4549 84.25C80.9249 83.26 81.6599 81.865 81.6599 80.065V79.255H72.9749ZM121.738 91H114.628L112.153 84.07H99.958L97.483 91H90.418L102.433 59.95H109.768L121.738 91ZM105.538 68.635L102.028 78.4H110.128L106.618 68.635C106.588 68.515 106.528 68.35 106.438 68.14C106.378 67.93 106.318 67.735 106.258 67.555C106.198 67.375 106.138 67.195 106.078 67.015L105.538 68.635ZM146.261 81.055L152.516 91H144.731L139.106 81.73C138.656 80.95 138.266 80.47 137.936 80.29C137.606 80.08 137.036 79.975 136.226 79.975H131.951V91H125.246V59.95H139.286C142.646 59.95 145.361 60.835 147.431 62.605C149.501 64.375 150.536 66.73 150.536 69.67C150.536 71.83 149.996 73.675 148.916 75.205C147.866 76.735 146.351 77.86 144.371 78.58C144.851 78.97 145.481 79.795 146.261 81.055ZM131.951 65.755V74.35H138.161C141.761 74.35 143.561 72.925 143.561 70.075C143.561 67.195 141.761 65.755 138.161 65.755H131.951ZM168.196 91H156.316V59.95H168.196C173.056 59.95 177.076 61.345 180.256 64.135C183.466 66.895 185.071 70.66 185.071 75.43C185.071 80.2 183.466 83.995 180.256 86.815C177.046 89.605 173.026 91 168.196 91ZM163.021 66.115V84.835H167.836C170.866 84.835 173.326 84.04 175.216 82.45C177.136 80.83 178.096 78.49 178.096 75.43C178.096 72.4 177.151 70.09 175.261 68.5C173.371 66.91 170.896 66.115 167.836 66.115H163.021ZM212.39 91H189.89V59.95H212.165V65.845H196.595V72.325H209.735V78.22H196.595V85.105H212.39V91ZM223.838 91H217.268V59.95H224.783L237.608 79.615C237.878 80.005 238.223 80.59 238.643 81.37C238.613 80.98 238.598 80.395 238.598 79.615V59.95H245.168V91H237.608L224.828 71.425C224.258 70.525 223.913 69.94 223.793 69.67C223.823 70.09 223.838 70.675 223.838 71.425V91Z" fill="black"/>
<path d="M116.103 119.435C118.483 119.435 120.03 120.948 120.03 123.209C120.03 125.657 118.194 127.17 115.508 127.17C112.55 127.17 110.714 125.096 110.714 121.628C110.714 117.48 112.635 115.1 116.001 115.1C117.65 115.1 118.976 115.61 119.894 116.579L118.313 118.16C117.633 117.48 116.902 117.174 115.967 117.174C114.233 117.174 113.179 118.551 113.179 120.914V120.965C113.706 120.03 114.828 119.435 116.103 119.435ZM115.525 125.249C116.783 125.249 117.565 124.467 117.565 123.328C117.565 122.189 116.783 121.407 115.525 121.407C114.284 121.407 113.502 122.189 113.502 123.328C113.502 124.467 114.284 125.249 115.525 125.249ZM130.314 127H127.832V115.27H130.96L133.986 121.322L137.012 115.27H140.123V127H137.641V119.605C137.641 119.384 137.641 119.18 137.658 118.959C137.556 119.18 137.454 119.401 137.335 119.605L135.04 124.246H132.949L130.62 119.588L130.297 118.959C130.314 119.18 130.314 119.401 130.314 119.622V127ZM145.924 127H143.391V115.27H145.924V127ZM151.687 127H149.205V115.27H152.044L156.889 122.699C157.042 122.92 157.161 123.141 157.28 123.362C157.263 123.141 157.263 122.92 157.263 122.699V115.27H159.745V127H156.889L152.061 119.605C151.925 119.384 151.789 119.18 151.67 118.942C151.687 119.18 151.687 119.384 151.687 119.605V127ZM167.135 127.17C165.163 127.17 163.344 126.49 162.29 125.266L163.922 123.6C164.823 124.62 165.911 125.045 167.186 125.045C168.529 125.045 169.226 124.569 169.226 123.719C169.226 122.971 168.733 122.614 167.424 122.308L166.319 122.07C163.837 121.543 162.664 120.523 162.664 118.687C162.664 116.477 164.364 115.1 167.22 115.1C168.988 115.1 170.433 115.695 171.572 116.817L169.974 118.483C169.107 117.497 168.223 117.208 167.033 117.208C165.86 117.208 165.163 117.701 165.163 118.517C165.163 119.248 165.724 119.588 166.965 119.877L168.07 120.098C170.603 120.642 171.742 121.696 171.742 123.566C171.742 125.742 170.008 127.17 167.135 127.17Z" fill="black"/>
<path d="M189.612 111.5C190.583 111.5 191.375 112.349 191.375 113.396C191.375 114.444 190.583 115.293 189.612 115.293C188.64 115.293 187.848 114.444 187.848 113.396C187.848 112.349 188.64 111.5 189.612 111.5ZM190.106 120.187L190.131 120.241C190.31 120.738 190.591 121.154 190.923 121.488C191.273 121.84 191.69 122.084 192.125 122.255H192.142L193.743 122.833L194.305 121.045L192.738 120.485H192.712C192.448 120.359 192.252 120.232 192.108 120.088C191.946 119.934 191.835 119.763 191.758 119.519L191.741 119.492L191.23 118.3L191.205 118.237C190.762 117.018 189.654 116.277 188.479 116.286C188.223 116.286 187.967 116.313 187.72 116.376H187.703L185.838 116.954C185.02 117.198 184.364 117.767 183.93 118.481C183.401 119.338 182.694 120.476 182.694 120.476L184.16 121.533C184.16 121.533 184.867 120.395 185.395 119.546C185.667 119.122 185.897 118.932 186.315 118.797L187.243 118.517L186.604 121.677C186.426 122.337 186.69 123.005 187.047 123.474L189.569 126.427L189.697 126.608L191.026 130.5H192.883C192.534 129.552 191.648 127.177 191.29 126.039L189.228 122.833L189.169 122.526L189.79 119.483L190.106 120.214V120.187ZM185.463 126.861L182.814 130.464H184.841L186.869 127.999L187.576 125.723L186.247 124.106L185.454 126.861H185.463Z" fill="black"/>
</svg>
