<svg width="305" height="132" viewBox="0 0 305 132" fill="none" xmlns="http://www.w3.org/2000/svg">
<path d="M57.7117 41H36.8317V9.95H43.5367V34.835H57.7117V41ZM84.3805 41H61.8805V9.95H84.1555V15.845H68.5855V22.325H81.7255V28.22H68.5855V35.105H84.3805V41ZM95.9635 41H89.2585V9.95H95.9635V41ZM116.933 41.45C107.663 41.45 100.823 34.835 100.823 25.43C100.823 16.07 107.663 9.5 116.933 9.5C121.928 9.5 126.383 11.48 129.398 15.035L124.448 19.13C122.693 16.97 119.858 15.665 116.933 15.665C111.623 15.665 107.798 19.58 107.798 25.43C107.798 31.415 111.533 35.285 116.933 35.285C120.353 35.285 122.603 34.115 124.898 31.55L129.758 35.69C126.833 39.38 122.423 41.45 116.933 41.45ZM156.319 41H133.819V9.95H156.094V15.845H140.524V22.325H153.664V28.22H140.524V35.105H156.319V41ZM172.132 41.45C166.912 41.45 162.097 39.65 159.307 36.41L163.627 32C166.012 34.7 168.892 35.825 172.267 35.825C175.822 35.825 177.667 34.565 177.667 32.315C177.667 30.335 176.362 29.39 172.897 28.58L169.972 27.95C163.402 26.555 160.297 23.855 160.297 18.995C160.297 13.145 164.797 9.5 172.357 9.5C177.037 9.5 180.862 11.075 183.877 14.045L179.647 18.455C177.352 15.845 175.012 15.08 171.862 15.08C168.757 15.08 166.912 16.385 166.912 18.545C166.912 20.48 168.397 21.38 171.682 22.145L174.607 22.73C181.312 24.17 184.327 26.96 184.327 31.91C184.327 37.67 179.737 41.45 172.132 41.45ZM202.214 41H195.554V16.115H186.059V9.95H211.709V16.115H202.214V41ZM238.277 41H215.777V9.95H238.052V15.845H222.482V22.325H235.622V28.22H222.482V35.105H238.277V41ZM264.17 31.055L270.425 41H262.64L257.015 31.73C256.115 30.155 255.755 29.975 254.135 29.975H249.86V41H243.155V9.95H257.195C263.9 9.95 268.445 13.775 268.445 19.67C268.445 24.035 266.195 27.14 262.28 28.58C262.955 29.12 263.45 29.885 264.17 31.055ZM249.86 15.755V24.35H256.07C259.58 24.35 261.47 22.865 261.47 20.075C261.47 17.24 259.58 15.755 256.07 15.755H249.86ZM73.4967 91.45C68.2767 91.45 63.4617 89.65 60.6717 86.41L64.9917 82C67.3767 84.7 70.2567 85.825 73.6317 85.825C77.1867 85.825 79.0317 84.565 79.0317 82.315C79.0317 80.335 77.7267 79.39 74.2617 78.58L71.3367 77.95C64.7667 76.555 61.6617 73.855 61.6617 68.995C61.6617 63.145 66.1617 59.5 73.7217 59.5C78.4017 59.5 82.2267 61.075 85.2417 64.045L81.0117 68.455C78.7167 65.845 76.3767 65.08 73.2267 65.08C70.1217 65.08 68.2767 66.385 68.2767 68.545C68.2767 70.48 69.7617 71.38 73.0467 72.145L75.9717 72.73C82.6767 74.17 85.6917 76.96 85.6917 81.91C85.6917 87.67 81.1017 91.45 73.4967 91.45ZM121.423 75.475C121.423 79.795 119.938 83.53 117.418 86.32C118.273 87.985 118.993 89.875 119.623 92.125L113.593 93.655C113.278 92.17 112.918 91 112.558 89.92C110.398 90.91 107.923 91.45 105.268 91.45C95.9078 91.45 89.0678 84.79 89.0678 75.475C89.0678 66.16 95.9078 59.5 105.268 59.5C114.538 59.5 121.423 66.16 121.423 75.475ZM105.268 65.665C99.8678 65.665 96.0428 69.49 96.0428 75.745C96.0428 77.905 96.4478 79.75 97.2128 81.325C99.1028 79.12 101.803 77.68 105.268 77.68C108.688 77.68 111.208 78.85 113.368 81.1C114.088 79.615 114.448 77.815 114.448 75.745C114.448 69.445 110.623 65.665 105.268 65.665ZM100.183 84.7C101.578 85.555 103.333 86.05 105.268 86.05C107.158 86.05 108.823 85.6 110.173 84.745C109.003 83.215 107.293 82.45 105.313 82.45C103.108 82.45 101.623 83.215 100.183 84.7ZM139.468 91.405C130.963 91.36 125.968 86.455 125.968 78.13V59.95H132.673V77.455C132.673 82.36 135.103 85.15 139.513 85.24C143.878 85.15 146.263 82.45 146.263 77.545V59.95H152.968V78.04C152.968 86.455 148.018 91.36 139.468 91.405ZM186.539 91H179.429L176.954 84.07H164.759L162.284 91H155.219L167.234 59.95H174.569L186.539 91ZM170.339 68.635L166.829 78.4H174.929L171.419 68.635C171.239 68.095 171.104 67.645 170.879 67.015C170.699 67.645 170.519 68.095 170.339 68.635ZM211.062 81.055L217.317 91H209.532L203.907 81.73C203.007 80.155 202.647 79.975 201.027 79.975H196.752V91H190.047V59.95H204.087C210.792 59.95 215.337 63.775 215.337 69.67C215.337 74.035 213.087 77.14 209.172 78.58C209.847 79.12 210.342 79.885 211.062 81.055ZM196.752 65.755V74.35H202.962C206.472 74.35 208.362 72.865 208.362 70.075C208.362 67.24 206.472 65.755 202.962 65.755H196.752ZM243.616 91H221.116V59.95H243.391V65.845H227.821V72.325H240.961V78.22H227.821V85.105H243.616V91Z" fill="black"/>
<path d="M110 115.27H112.091V127H109.575V118.33C108.98 118.925 108.096 119.112 107.059 119.112V116.783C108.402 116.783 109.473 116.307 110 115.27ZM119.192 127.17C117.084 127.17 115.452 126.422 114.568 124.977L116.251 123.6C117.067 124.671 117.934 125.096 119.158 125.096C120.484 125.096 121.249 124.501 121.249 123.566C121.249 122.631 120.535 122.104 119.243 122.104H117.798V120.064H119.226C120.348 120.064 121.045 119.503 121.045 118.551C121.045 117.701 120.331 117.174 119.209 117.174C118.121 117.174 117.254 117.633 116.523 118.551L114.84 117.106C115.928 115.746 117.424 115.1 119.226 115.1C121.963 115.1 123.544 116.324 123.544 118.364C123.544 119.588 122.643 120.642 121.504 120.948C122.949 121.186 123.782 122.257 123.782 123.634C123.765 125.81 121.997 127.17 119.192 127.17ZM134.16 127H131.678V115.27H134.806L137.832 121.322L140.858 115.27H143.969V127H141.487V119.605C141.487 119.384 141.487 119.18 141.504 118.959C141.402 119.18 141.3 119.401 141.181 119.605L138.886 124.246H136.795L134.466 119.588L134.143 118.959C134.16 119.18 134.16 119.401 134.16 119.622V127ZM149.77 127H147.237V115.27H149.77V127ZM155.533 127H153.051V115.27H155.89L160.735 122.699C160.888 122.92 161.007 123.141 161.126 123.362C161.109 123.141 161.109 122.92 161.109 122.699V115.27H163.591V127H160.735L155.907 119.605C155.771 119.384 155.635 119.18 155.516 118.942C155.533 119.18 155.533 119.384 155.533 119.605V127ZM170.981 127.17C169.009 127.17 167.19 126.49 166.136 125.266L167.768 123.6C168.669 124.62 169.757 125.045 171.032 125.045C172.375 125.045 173.072 124.569 173.072 123.719C173.072 122.971 172.579 122.614 171.27 122.308L170.165 122.07C167.683 121.543 166.51 120.523 166.51 118.687C166.51 116.477 168.21 115.1 171.066 115.1C172.834 115.1 174.279 115.695 175.418 116.817L173.82 118.483C172.953 117.497 172.069 117.208 170.879 117.208C169.706 117.208 169.009 117.701 169.009 118.517C169.009 119.248 169.57 119.588 170.811 119.877L171.916 120.098C174.449 120.642 175.588 121.696 175.588 123.566C175.588 125.742 173.854 127.17 170.981 127.17Z" fill="black"/>
<path d="M193.445 111.5C194.416 111.5 195.208 112.349 195.208 113.396C195.208 114.444 194.416 115.293 193.445 115.293C192.473 115.293 191.681 114.444 191.681 113.396C191.681 112.349 192.473 111.5 193.445 111.5ZM193.939 120.187L193.964 120.241C194.143 120.738 194.424 121.154 194.756 121.488C195.106 121.84 195.523 122.084 195.958 122.255H195.975L197.576 122.833L198.138 121.045L196.571 120.485H196.545C196.281 120.359 196.085 120.232 195.941 120.088C195.779 119.934 195.668 119.763 195.591 119.519L195.574 119.492L195.063 118.3L195.038 118.237C194.595 117.018 193.487 116.277 192.312 116.286C192.056 116.286 191.8 116.313 191.553 116.376H191.536L189.671 116.954C188.853 117.198 188.197 117.767 187.763 118.481C187.234 119.338 186.527 120.476 186.527 120.476L187.993 121.533C187.993 121.533 188.7 120.395 189.228 119.546C189.5 119.122 189.73 118.932 190.148 118.797L191.076 118.517L190.437 121.677C190.259 122.337 190.523 123.005 190.88 123.474L193.402 126.427L193.53 126.608L194.859 130.5H196.716C196.367 129.552 195.481 127.177 195.123 126.039L193.061 122.833L193.002 122.526L193.623 119.483L193.939 120.214V120.187ZM189.296 126.861L186.647 130.464H188.674L190.702 127.999L191.409 125.723L190.08 124.106L189.287 126.861H189.296Z" fill="black"/>
</svg>
