<svg width="305" height="132" viewBox="0 0 305 132" fill="none" xmlns="http://www.w3.org/2000/svg">
<path d="M65.4112 41.45C56.1412 41.45 49.3012 34.835 49.3012 25.43C49.3012 16.07 56.1412 9.5 65.4112 9.5C70.4062 9.5 74.8612 11.48 77.8762 15.035L72.9262 19.13C71.1712 16.97 68.3362 15.665 65.4112 15.665C60.1012 15.665 56.2762 19.58 56.2762 25.43C56.2762 31.415 60.0112 35.285 65.4112 35.285C68.8312 35.285 71.0812 34.115 73.3762 31.55L78.2362 35.69C75.3112 39.38 70.9012 41.45 65.4112 41.45ZM102.862 22.145V9.95H109.567V41H102.862V28.265H89.0021V41H82.2971V9.95H89.0021V22.145H102.862ZM144.399 41H137.289L134.814 34.07H122.619L120.144 41H113.079L125.094 9.95H132.429L144.399 41ZM128.199 18.635L124.689 28.4H132.789L129.279 18.635C129.099 18.095 128.964 17.645 128.739 17.015C128.559 17.645 128.379 18.095 128.199 18.635ZM168.922 31.055L175.177 41H167.392L161.767 31.73C160.867 30.155 160.507 29.975 158.887 29.975H154.612V41H147.907V9.95H161.947C168.652 9.95 173.197 13.775 173.197 19.67C173.197 24.035 170.947 27.14 167.032 28.58C167.707 29.12 168.202 29.885 168.922 31.055ZM154.612 15.755V24.35H160.822C164.332 24.35 166.222 22.865 166.222 20.075C166.222 17.24 164.332 15.755 160.822 15.755H154.612ZM185.682 41H178.977V9.95H185.682V41ZM198.686 41H192.116V9.95H199.631L212.456 29.615C212.861 30.2 213.176 30.785 213.491 31.37C213.446 30.785 213.446 30.2 213.446 29.615V9.95H220.016V41H212.456L199.676 21.425C199.316 20.84 198.956 20.3 198.641 19.67C198.686 20.3 198.686 20.84 198.686 21.425V41ZM240.524 29.255V23.675H255.194V41H249.839V37.535C247.949 40.19 244.709 41.45 240.254 41.45C231.479 41.45 224.819 35.285 224.819 25.7C224.819 16.025 231.704 9.5 241.199 9.5C246.959 9.5 251.549 11.435 254.609 15.035L249.659 19.13C247.814 16.88 244.979 15.665 241.199 15.665C235.664 15.665 231.794 19.535 231.794 25.7C231.794 32.315 235.709 35.735 241.244 35.735C245.834 35.735 249.209 33.8 249.209 30.065V29.255H240.524ZM93.7779 91.45C84.5079 91.45 77.6679 84.835 77.6679 75.43C77.6679 66.07 84.5079 59.5 93.7779 59.5C98.7729 59.5 103.228 61.48 106.243 65.035L101.293 69.13C99.5379 66.97 96.7029 65.665 93.7779 65.665C88.4679 65.665 84.6429 69.58 84.6429 75.43C84.6429 81.415 88.3779 85.285 93.7779 85.285C97.1979 85.285 99.4479 84.115 101.743 81.55L106.603 85.69C103.678 89.38 99.2679 91.45 93.7779 91.45ZM131.679 81.055L137.934 91H130.149L124.524 81.73C123.624 80.155 123.264 79.975 121.644 79.975H117.369V91H110.664V59.95H124.704C131.409 59.95 135.954 63.775 135.954 69.67C135.954 74.035 133.704 77.14 129.789 78.58C130.464 79.12 130.959 79.885 131.679 81.055ZM117.369 65.755V74.35H123.579C127.089 74.35 128.979 72.865 128.979 70.075C128.979 67.24 127.089 65.755 123.579 65.755H117.369ZM155.919 91.45C146.559 91.45 139.719 84.79 139.719 75.475C139.719 66.16 146.559 59.5 155.919 59.5C165.189 59.5 172.074 66.16 172.074 75.475C172.074 84.79 165.189 91.45 155.919 91.45ZM155.919 85.285C161.274 85.285 165.099 81.37 165.099 75.475C165.099 69.535 161.274 65.665 155.919 65.665C150.519 65.665 146.694 69.58 146.694 75.475C146.694 81.415 150.519 85.285 155.919 85.285ZM187.824 91.45C182.604 91.45 177.789 89.65 174.999 86.41L179.319 82C181.704 84.7 184.584 85.825 187.959 85.825C191.514 85.825 193.359 84.565 193.359 82.315C193.359 80.335 192.054 79.39 188.589 78.58L185.664 77.95C179.094 76.555 175.989 73.855 175.989 68.995C175.989 63.145 180.489 59.5 188.049 59.5C192.729 59.5 196.554 61.075 199.569 64.045L195.339 68.455C193.044 65.845 190.704 65.08 187.554 65.08C184.449 65.08 182.604 66.385 182.604 68.545C182.604 70.48 184.089 71.38 187.374 72.145L190.299 72.73C197.004 74.17 200.019 76.96 200.019 81.91C200.019 87.67 195.429 91.45 187.824 91.45ZM215.334 91.45C210.114 91.45 205.299 89.65 202.509 86.41L206.829 82C209.214 84.7 212.094 85.825 215.469 85.825C219.024 85.825 220.869 84.565 220.869 82.315C220.869 80.335 219.564 79.39 216.099 78.58L213.174 77.95C206.604 76.555 203.499 73.855 203.499 68.995C203.499 63.145 207.999 59.5 215.559 59.5C220.239 59.5 224.064 61.075 227.079 64.045L222.849 68.455C220.554 65.845 218.214 65.08 215.064 65.08C211.959 65.08 210.114 66.385 210.114 68.545C210.114 70.48 211.599 71.38 214.884 72.145L217.809 72.73C224.514 74.17 227.529 76.96 227.529 81.91C227.529 87.67 222.939 91.45 215.334 91.45Z" fill="black"/>
<path d="M115.989 127.153C113.133 127.153 111.348 125.776 111.348 123.566C111.348 122.257 112.045 121.271 113.303 120.812C112.317 120.37 111.756 119.452 111.756 118.364C111.756 116.443 113.371 115.1 115.989 115.1C118.624 115.1 120.239 116.443 120.239 118.364C120.239 119.452 119.678 120.37 118.692 120.812C119.95 121.271 120.63 122.257 120.63 123.566C120.63 125.776 118.862 127.153 115.989 127.153ZM115.989 120.064C117.111 120.064 117.842 119.418 117.842 118.517C117.842 117.633 117.111 117.004 115.989 117.004C114.884 117.004 114.153 117.633 114.153 118.517C114.153 119.418 114.884 120.064 115.989 120.064ZM115.989 125.249C117.315 125.249 118.131 124.586 118.131 123.583C118.131 122.563 117.315 121.883 115.989 121.883C114.68 121.883 113.864 122.563 113.864 123.583C113.864 124.586 114.68 125.249 115.989 125.249ZM131.014 127H128.532V115.27H131.66L134.686 121.322L137.712 115.27H140.823V127H138.341V119.605C138.341 119.384 138.341 119.18 138.358 118.959C138.256 119.18 138.154 119.401 138.035 119.605L135.74 124.246H133.649L131.32 119.588L130.997 118.959C131.014 119.18 131.014 119.401 131.014 119.622V127ZM146.623 127H144.09V115.27H146.623V127ZM152.386 127H149.904V115.27H152.743L157.588 122.699C157.741 122.92 157.86 123.141 157.979 123.362C157.962 123.141 157.962 122.92 157.962 122.699V115.27H160.444V127H157.588L152.76 119.605C152.624 119.384 152.488 119.18 152.369 118.942C152.386 119.18 152.386 119.384 152.386 119.605V127ZM167.835 127.17C165.863 127.17 164.044 126.49 162.99 125.266L164.622 123.6C165.523 124.62 166.611 125.045 167.886 125.045C169.229 125.045 169.926 124.569 169.926 123.719C169.926 122.971 169.433 122.614 168.124 122.308L167.019 122.07C164.537 121.543 163.364 120.523 163.364 118.687C163.364 116.477 165.064 115.1 167.92 115.1C169.688 115.1 171.133 115.695 172.272 116.817L170.674 118.483C169.807 117.497 168.923 117.208 167.733 117.208C166.56 117.208 165.863 117.701 165.863 118.517C165.863 119.248 166.424 119.588 167.665 119.877L168.77 120.098C171.303 120.642 172.442 121.696 172.442 123.566C172.442 125.742 170.708 127.17 167.835 127.17Z" fill="black"/>
<path d="M190.278 111.5C191.249 111.5 192.041 112.349 192.041 113.396C192.041 114.444 191.249 115.293 190.278 115.293C189.307 115.293 188.515 114.444 188.515 113.396C188.515 112.349 189.307 111.5 190.278 111.5ZM190.772 120.187L190.798 120.241C190.977 120.738 191.258 121.154 191.59 121.488C191.939 121.84 192.357 122.084 192.791 122.255H192.808L194.41 122.833L194.972 121.045L193.404 120.485H193.379C193.115 120.359 192.919 120.232 192.774 120.088C192.612 119.934 192.502 119.763 192.425 119.519L192.408 119.492L191.897 118.3L191.871 118.237C191.428 117.018 190.321 116.277 189.145 116.286C188.89 116.286 188.634 116.313 188.387 116.376H188.37L186.504 116.954C185.686 117.198 185.031 117.767 184.596 118.481C184.068 119.338 183.361 120.476 183.361 120.476L184.826 121.533C184.826 121.533 185.533 120.395 186.061 119.546C186.334 119.122 186.564 118.932 186.981 118.797L187.91 118.517L187.271 121.677C187.092 122.337 187.356 123.005 187.714 123.474L190.236 126.427L190.363 126.608L191.692 130.5H193.549C193.2 129.552 192.314 127.177 191.956 126.039L189.895 122.833L189.835 122.526L190.457 119.483L190.772 120.214V120.187ZM186.129 126.861L183.48 130.464H185.508L187.535 127.999L188.242 125.723L186.913 124.106L186.121 126.861H186.129Z" fill="black"/>
</svg>
